G04*
G04 #@! TF.GenerationSoftware,Altium Limited,Altium Designer,23.4.1 (23)*
G04*
G04 Layer_Color=2752767*
%FSLAX44Y44*%
%MOMM*%
G71*
G04*
G04 #@! TF.SameCoordinates,D2C56FB1-3194-4FD5-B733-79DB95D4BDB6*
G04*
G04*
G04 #@! TF.FilePolarity,Positive*
G04*
G01*
G75*
%ADD93C,0.1693*%
%ADD94C,0.1270*%
D93*
X1362964Y735330D02*
G03*
X1362964Y735330I-5080J0D01*
G01*
X1388364D02*
G03*
X1388364Y735330I-5080J0D01*
G01*
X1515364Y760730D02*
G03*
X1515364Y760730I-5080J0D01*
G01*
X1489964D02*
G03*
X1489964Y760730I-5080J0D01*
G01*
X1464564Y760730D02*
G03*
X1464564Y760730I-5080J0D01*
G01*
X1515364Y735330D02*
G03*
X1515364Y735330I-5080J0D01*
G01*
X1489964D02*
G03*
X1489964Y735330I-5080J0D01*
G01*
X1464564D02*
G03*
X1464564Y735330I-5080J0D01*
G01*
X1286764D02*
G03*
X1286764Y735330I-5080J0D01*
G01*
Y760730D02*
G03*
X1286764Y760730I-5080J0D01*
G01*
X1312164Y735330D02*
G03*
X1312164Y735330I-5080J0D01*
G01*
X1312164Y760730D02*
G03*
X1312164Y760730I-5080J0D01*
G01*
X1337564Y735330D02*
G03*
X1337564Y735330I-5080J0D01*
G01*
Y760730D02*
G03*
X1337564Y760730I-5080J0D01*
G01*
X1362964D02*
G03*
X1362964Y760730I-5080J0D01*
G01*
X1413764Y735330D02*
G03*
X1413764Y735330I-5080J0D01*
G01*
X1388364Y760730D02*
G03*
X1388364Y760730I-5080J0D01*
G01*
X1413764D02*
G03*
X1413764Y760730I-5080J0D01*
G01*
X1439164Y735330D02*
G03*
X1439164Y735330I-5080J0D01*
G01*
Y760730D02*
G03*
X1439164Y760730I-5080J0D01*
G01*
D94*
X1309116Y593344D02*
Y603504D01*
X1319276D01*
Y593344D01*
X1309116D01*
X1308100Y411480D02*
Y421640D01*
X1318260D01*
Y411480D01*
X1308100D01*
X1746463Y412201D02*
Y422361D01*
X1756623D01*
Y412201D01*
X1746463D01*
X1397000Y572770D02*
Y582930D01*
X1407160D01*
Y572770D01*
X1397000D01*
X1397508Y392509D02*
Y402669D01*
X1407668D01*
Y392509D01*
X1397508D01*
X1839468Y390604D02*
Y400764D01*
X1849628D01*
Y390604D01*
X1839468D01*
Y371094D02*
Y381254D01*
X1849628D01*
Y371094D01*
X1839468D01*
X1869468Y366788D02*
Y376948D01*
X1879628D01*
Y366788D01*
X1869468D01*
X1839214Y363728D02*
Y373888D01*
X1849374D01*
Y363728D01*
X1839214D01*
X1880616Y366788D02*
Y376948D01*
X1890776D01*
Y366788D01*
X1880616D01*
X1512570Y562864D02*
Y573024D01*
X1522730D01*
Y562864D01*
X1512570D01*
X1553210D02*
Y573024D01*
X1563370D01*
Y562864D01*
X1553210D01*
X1592326Y562356D02*
Y572516D01*
X1602486D01*
Y562356D01*
X1592326D01*
X1747266Y592836D02*
Y602996D01*
X1757426D01*
Y592836D01*
X1747266D01*
X1819148Y551688D02*
Y561848D01*
X1829308D01*
Y551688D01*
X1819148D01*
X1833372Y540258D02*
Y550418D01*
X1843532D01*
Y540258D01*
X1833372D01*
X1833880Y549656D02*
Y559816D01*
X1844040D01*
Y549656D01*
X1833880D01*
X1818894Y543052D02*
Y553212D01*
X1829054D01*
Y543052D01*
X1818894D01*
X1385062Y362204D02*
Y372364D01*
X1395222D01*
Y362204D01*
X1385062D01*
X1399794Y370078D02*
Y380238D01*
X1409954D01*
Y370078D01*
X1399794D01*
X1384808Y370332D02*
Y380492D01*
X1394968D01*
Y370332D01*
X1384808D01*
X1810142Y567303D02*
Y577463D01*
X1820302D01*
Y567303D01*
X1810142D01*
X1863100Y544697D02*
Y554857D01*
X1873260D01*
Y544697D01*
X1863100D01*
X1878566D02*
Y554857D01*
X1888726D01*
Y544697D01*
X1878566D01*
X1835658Y560578D02*
Y570738D01*
X1845818D01*
Y560578D01*
X1835658D01*
X1825498Y560832D02*
Y570992D01*
X1835658D01*
Y560832D01*
X1825498D01*
X1430102Y366788D02*
Y376948D01*
X1440262D01*
Y366788D01*
X1430102D01*
X1476076Y366534D02*
Y376694D01*
X1486236D01*
Y366534D01*
X1476076D01*
X1446076D02*
Y376694D01*
X1456236D01*
Y366534D01*
X1446076D01*
X1488948Y562356D02*
Y572516D01*
X1499108D01*
Y562356D01*
X1488948D01*
X1384808Y634238D02*
Y644398D01*
X1394968D01*
Y634238D01*
X1384808D01*
X1431036Y633222D02*
Y643382D01*
X1441196D01*
Y633222D01*
X1431036D01*
X1453388D02*
Y643382D01*
X1463548D01*
Y633222D01*
X1453388D01*
X1464564D02*
Y643382D01*
X1474724D01*
Y633222D01*
X1464564D01*
X1384046Y452628D02*
Y462788D01*
X1394206D01*
Y452628D01*
X1384046D01*
X1448054Y452882D02*
Y463042D01*
X1458214D01*
Y452882D01*
X1448054D01*
X1430020Y453136D02*
Y463296D01*
X1440180D01*
Y453136D01*
X1430020D01*
X1460754D02*
Y463296D01*
X1470914D01*
Y453136D01*
X1460754D01*
X1843532Y645414D02*
Y655574D01*
X1853692D01*
Y645414D01*
X1843532D01*
X1896364Y633984D02*
Y644144D01*
X1906524D01*
Y633984D01*
X1896364D01*
X1885696Y634238D02*
Y644398D01*
X1895856D01*
Y634238D01*
X1885696D01*
X1869948Y633984D02*
Y644144D01*
X1880108D01*
Y633984D01*
X1869948D01*
X1824228D02*
Y644144D01*
X1834388D01*
Y633984D01*
X1824228D01*
X1896364Y452882D02*
Y463042D01*
X1906524D01*
Y452882D01*
X1896364D01*
X1887220D02*
Y463042D01*
X1897380D01*
Y452882D01*
X1887220D01*
X1869186Y452628D02*
Y462788D01*
X1879346D01*
Y452628D01*
X1869186D01*
X1385316Y383032D02*
Y393192D01*
X1395476D01*
Y383032D01*
X1385316D01*
X1810512Y386588D02*
Y396748D01*
X1820672D01*
Y386588D01*
X1810512D01*
X1830324Y381254D02*
Y391414D01*
X1840484D01*
Y381254D01*
X1830324D01*
X1399794Y362204D02*
Y372364D01*
X1409954D01*
Y362204D01*
X1399794D01*
X1460246Y572008D02*
Y582168D01*
X1470406D01*
Y572008D01*
X1460246D01*
X1446022Y565912D02*
Y576072D01*
X1456182D01*
Y565912D01*
X1446022D01*
X1435608Y572262D02*
Y582422D01*
X1445768D01*
Y572262D01*
X1435608D01*
X1822210Y452998D02*
Y463158D01*
X1832370D01*
Y452998D01*
X1822210D01*
X1630426Y552944D02*
Y563104D01*
X1640586D01*
Y552944D01*
X1630426D01*
X1647952Y565920D02*
Y576080D01*
X1658112D01*
Y565920D01*
X1647952D01*
X1590294Y552944D02*
Y563104D01*
X1600454D01*
Y552944D01*
X1590294D01*
X1530350Y565286D02*
Y575446D01*
X1540510D01*
Y565286D01*
X1530350D01*
X1510538Y552944D02*
Y563104D01*
X1520698D01*
Y552944D01*
X1510538D01*
X1568450Y565920D02*
Y576080D01*
X1578610D01*
Y565920D01*
X1568450D01*
X1767840Y717550D02*
Y727710D01*
X1778000D01*
Y717550D01*
X1767840D01*
X1752092D02*
Y727710D01*
X1762252D01*
Y717550D01*
X1752092D01*
X1657604Y750570D02*
Y760730D01*
X1667764D01*
Y750570D01*
X1657604D01*
X1630934Y722630D02*
Y732790D01*
X1641094D01*
Y722630D01*
X1630934D01*
X1604010Y725076D02*
Y735236D01*
X1614170D01*
Y725076D01*
X1604010D01*
X1910616Y366788D02*
Y376948D01*
X1920776D01*
Y366788D01*
X1910616D01*
X1440422Y547745D02*
Y557905D01*
X1450582D01*
Y547745D01*
X1440422D01*
X1470422D02*
Y557905D01*
X1480582D01*
Y547745D01*
X1470422D01*
X1384300Y551942D02*
Y562102D01*
X1394460D01*
Y551942D01*
X1384300D01*
Y544322D02*
Y554482D01*
X1394460D01*
Y544322D01*
X1384300D01*
X1399794Y551942D02*
Y562102D01*
X1409954D01*
Y551942D01*
X1399794D01*
Y544322D02*
Y554482D01*
X1409954D01*
Y544322D01*
X1399794D01*
X1653540Y491490D02*
Y501650D01*
X1663700D01*
Y491490D01*
X1653540D01*
X1377188Y619506D02*
Y629666D01*
X1387348D01*
Y619506D01*
X1377188D01*
X1369822D02*
Y629666D01*
X1379982D01*
Y619506D01*
X1369822D01*
X1429274Y547745D02*
Y557905D01*
X1439434D01*
Y547745D01*
X1429274D01*
X1857627Y575588D02*
Y585748D01*
X1867787D01*
Y575588D01*
X1857627D01*
X1826690Y618205D02*
Y628365D01*
X1836850D01*
Y618205D01*
X1826690D01*
X1811782Y619760D02*
Y629920D01*
X1821942D01*
Y619760D01*
X1811782D01*
X1815846Y437896D02*
Y448056D01*
X1826006D01*
Y437896D01*
X1815846D01*
X1826708Y437248D02*
Y447408D01*
X1836868D01*
Y437248D01*
X1826708D01*
X1780032Y749554D02*
Y759714D01*
X1790192D01*
Y749554D01*
X1780032D01*
X1306830Y558292D02*
Y568452D01*
X1316990D01*
Y558292D01*
X1306830D01*
X1398270Y464820D02*
Y474980D01*
X1408430D01*
Y464820D01*
X1398270D01*
X1545844Y752856D02*
Y763016D01*
X1556004D01*
Y752856D01*
X1545844D01*
X1557020Y667004D02*
Y677164D01*
X1567180D01*
Y667004D01*
X1557020D01*
X1520698Y478790D02*
Y488950D01*
X1530858D01*
Y478790D01*
X1520698D01*
X1482090Y449834D02*
Y459994D01*
X1492250D01*
Y449834D01*
X1482090D01*
X1607312Y499618D02*
Y509778D01*
X1617472D01*
Y499618D01*
X1607312D01*
X1547876Y553974D02*
Y564134D01*
X1558036D01*
Y553974D01*
X1547876D01*
X1655064Y401066D02*
Y411226D01*
X1665224D01*
Y401066D01*
X1655064D01*
X1649222Y451866D02*
Y462026D01*
X1659382D01*
Y451866D01*
X1649222D01*
X1378042Y684784D02*
Y694944D01*
X1388202D01*
Y684784D01*
X1378042D01*
X1385316D02*
Y694944D01*
X1395476D01*
Y684784D01*
X1385316D01*
X1356221D02*
Y694944D01*
X1366382D01*
Y684784D01*
X1356221D01*
X1363495D02*
Y694944D01*
X1373655D01*
Y684784D01*
X1363495D01*
X1370769D02*
Y694944D01*
X1380929D01*
Y684784D01*
X1370769D01*
X1356221Y675894D02*
Y686054D01*
X1366382D01*
Y675894D01*
X1356221D01*
X1363495D02*
Y686054D01*
X1373655D01*
Y675894D01*
X1363495D01*
X1370769D02*
Y686054D01*
X1380929D01*
Y675894D01*
X1370769D01*
X1378042D02*
Y686054D01*
X1388202D01*
Y675894D01*
X1378042D01*
X1385316D02*
Y686054D01*
X1395476D01*
Y675894D01*
X1385316D01*
X1339942Y684784D02*
Y694944D01*
X1350102D01*
Y684784D01*
X1339942D01*
X1347216D02*
Y694944D01*
X1357376D01*
Y684784D01*
X1347216D01*
X1318121D02*
Y694944D01*
X1328282D01*
Y684784D01*
X1318121D01*
X1325395D02*
Y694944D01*
X1335555D01*
Y684784D01*
X1325395D01*
X1332669D02*
Y694944D01*
X1342829D01*
Y684784D01*
X1332669D01*
X1318121Y675894D02*
Y686054D01*
X1328282D01*
Y675894D01*
X1318121D01*
X1325395D02*
Y686054D01*
X1335555D01*
Y675894D01*
X1325395D01*
X1332669D02*
Y686054D01*
X1342829D01*
Y675894D01*
X1332669D01*
X1339942D02*
Y686054D01*
X1350102D01*
Y675894D01*
X1339942D01*
X1347216D02*
Y686054D01*
X1357376D01*
Y675894D01*
X1347216D01*
X1456274Y497332D02*
Y507492D01*
X1466434D01*
Y497332D01*
X1456274D01*
X1463548D02*
Y507492D01*
X1473708D01*
Y497332D01*
X1463548D01*
X1449001D02*
Y507492D01*
X1459161D01*
Y497332D01*
X1449001D01*
Y487934D02*
Y498094D01*
X1459161D01*
Y487934D01*
X1449001D01*
X1456274D02*
Y498094D01*
X1466434D01*
Y487934D01*
X1456274D01*
X1463548D02*
Y498094D01*
X1473708D01*
Y487934D01*
X1463548D01*
X1337195Y498348D02*
Y508508D01*
X1347354D01*
Y498348D01*
X1337195D01*
X1329921D02*
Y508508D01*
X1340081D01*
Y498348D01*
X1329921D01*
X1322647D02*
Y508508D01*
X1332807D01*
Y498348D01*
X1322647D01*
X1315374D02*
Y508508D01*
X1325534D01*
Y498348D01*
X1315374D01*
X1308100D02*
Y508508D01*
X1318260D01*
Y498348D01*
X1308100D01*
X1344468D02*
Y508508D01*
X1354628D01*
Y498348D01*
X1344468D01*
X1380836D02*
Y508508D01*
X1390996D01*
Y498348D01*
X1380836D01*
X1373563D02*
Y508508D01*
X1383723D01*
Y498348D01*
X1373563D01*
X1366289D02*
Y508508D01*
X1376449D01*
Y498348D01*
X1366289D01*
X1359015D02*
Y508508D01*
X1369175D01*
Y498348D01*
X1359015D01*
X1351742D02*
Y508508D01*
X1361902D01*
Y498348D01*
X1351742D01*
X1388110D02*
Y508508D01*
X1398270D01*
Y498348D01*
X1388110D01*
X1322647Y506476D02*
Y516636D01*
X1332807D01*
Y506476D01*
X1322647D01*
X1315374D02*
Y516636D01*
X1325534D01*
Y506476D01*
X1315374D01*
X1308100D02*
Y516636D01*
X1318260D01*
Y506476D01*
X1308100D01*
X1344468D02*
Y516636D01*
X1354628D01*
Y506476D01*
X1344468D01*
X1337195D02*
Y516636D01*
X1347354D01*
Y506476D01*
X1337195D01*
X1329921D02*
Y516636D01*
X1340081D01*
Y506476D01*
X1329921D01*
X1366289D02*
Y516636D01*
X1376449D01*
Y506476D01*
X1366289D01*
X1359015D02*
Y516636D01*
X1369175D01*
Y506476D01*
X1359015D01*
X1351742D02*
Y516636D01*
X1361902D01*
Y506476D01*
X1351742D01*
X1388110D02*
Y516636D01*
X1398270D01*
Y506476D01*
X1388110D01*
X1380836D02*
Y516636D01*
X1390996D01*
Y506476D01*
X1380836D01*
X1373563D02*
Y516636D01*
X1383723D01*
Y506476D01*
X1373563D01*
X1604264Y525732D02*
Y535892D01*
X1614424D01*
Y525732D01*
X1604264D01*
X1650238Y666496D02*
Y676656D01*
X1660398D01*
Y666496D01*
X1650238D01*
X1664970D02*
Y676656D01*
X1675130D01*
Y666496D01*
X1664970D01*
X1635506D02*
Y676656D01*
X1645666D01*
Y666496D01*
X1635506D01*
X1815269Y508508D02*
Y518668D01*
X1825429D01*
Y508508D01*
X1815269D01*
X1822542D02*
Y518668D01*
X1832702D01*
Y508508D01*
X1822542D01*
X1829816D02*
Y518668D01*
X1839976D01*
Y508508D01*
X1829816D01*
X1793448D02*
Y518668D01*
X1803608D01*
Y508508D01*
X1793448D01*
X1800721D02*
Y518668D01*
X1810881D01*
Y508508D01*
X1800721D01*
X1807995D02*
Y518668D01*
X1818155D01*
Y508508D01*
X1807995D01*
X1771627D02*
Y518668D01*
X1781787D01*
Y508508D01*
X1771627D01*
X1778900D02*
Y518668D01*
X1789061D01*
Y508508D01*
X1778900D01*
X1786174D02*
Y518668D01*
X1796334D01*
Y508508D01*
X1786174D01*
X1749806D02*
Y518668D01*
X1759966D01*
Y508508D01*
X1749806D01*
X1757080D02*
Y518668D01*
X1767240D01*
Y508508D01*
X1757080D01*
X1764353D02*
Y518668D01*
X1774513D01*
Y508508D01*
X1764353D01*
X1829816Y499110D02*
Y509270D01*
X1839976D01*
Y499110D01*
X1829816D01*
X1793448D02*
Y509270D01*
X1803608D01*
Y499110D01*
X1793448D01*
X1800721D02*
Y509270D01*
X1810881D01*
Y499110D01*
X1800721D01*
X1807995D02*
Y509270D01*
X1818155D01*
Y499110D01*
X1807995D01*
X1815269D02*
Y509270D01*
X1825429D01*
Y499110D01*
X1815269D01*
X1822542D02*
Y509270D01*
X1832702D01*
Y499110D01*
X1822542D01*
X1786174D02*
Y509270D01*
X1796334D01*
Y499110D01*
X1786174D01*
X1749806D02*
Y509270D01*
X1759966D01*
Y499110D01*
X1749806D01*
X1757080D02*
Y509270D01*
X1767240D01*
Y499110D01*
X1757080D01*
X1764353D02*
Y509270D01*
X1774513D01*
Y499110D01*
X1764353D01*
X1771627D02*
Y509270D01*
X1781787D01*
Y499110D01*
X1771627D01*
X1778900D02*
Y509270D01*
X1789061D01*
Y499110D01*
X1778900D01*
X1832102Y675386D02*
Y685546D01*
X1842262D01*
Y675386D01*
X1832102D01*
X1817370D02*
Y685546D01*
X1827530D01*
Y675386D01*
X1817370D01*
X1802638D02*
Y685546D01*
X1812798D01*
Y675386D01*
X1802638D01*
X1787906D02*
Y685546D01*
X1798066D01*
Y675386D01*
X1787906D01*
X1773174D02*
Y685546D01*
X1783334D01*
Y675386D01*
X1773174D01*
X1758442D02*
Y685546D01*
X1768602D01*
Y675386D01*
X1758442D01*
X1743710D02*
Y685546D01*
X1753870D01*
Y675386D01*
X1743710D01*
X1664970Y675640D02*
Y685800D01*
X1675130D01*
Y675640D01*
X1664970D01*
X1650238D02*
Y685800D01*
X1660398D01*
Y675640D01*
X1650238D01*
X1635506D02*
Y685800D01*
X1645666D01*
Y675640D01*
X1635506D01*
X1743964Y684022D02*
Y694182D01*
X1754124D01*
Y684022D01*
X1743964D01*
X1758654D02*
Y694182D01*
X1768814D01*
Y684022D01*
X1758654D01*
X1773343D02*
Y694182D01*
X1783503D01*
Y684022D01*
X1773343D01*
X1788033D02*
Y694182D01*
X1798193D01*
Y684022D01*
X1788033D01*
X1802722D02*
Y694182D01*
X1812883D01*
Y684022D01*
X1802722D01*
X1817412D02*
Y694182D01*
X1827572D01*
Y684022D01*
X1817412D01*
X1832102D02*
Y694182D01*
X1842262D01*
Y684022D01*
X1832102D01*
X1799336Y717550D02*
Y727710D01*
X1809496D01*
Y717550D01*
X1799336D01*
X1554480Y602488D02*
Y612648D01*
X1564640D01*
Y602488D01*
X1554480D01*
X1604264Y624586D02*
Y634746D01*
X1614424D01*
Y624586D01*
X1604264D01*
X1577594Y483362D02*
Y493522D01*
X1587754D01*
Y483362D01*
X1577594D01*
X1529184Y452016D02*
Y462176D01*
X1539344D01*
Y452016D01*
X1529184D01*
X1820876Y383783D02*
Y393943D01*
X1831036D01*
Y383783D01*
X1820876D01*
X1826260Y371089D02*
Y381249D01*
X1836420D01*
Y371089D01*
X1826260D01*
Y363971D02*
Y374131D01*
X1836420D01*
Y363971D01*
X1826260D01*
X1369778Y386346D02*
Y396506D01*
X1379938D01*
Y386346D01*
X1369778D01*
X1369966Y567303D02*
Y577463D01*
X1380126D01*
Y567303D01*
X1369966D01*
X1307084Y544830D02*
Y554990D01*
X1317244D01*
Y544830D01*
X1307084D01*
X1671574Y631952D02*
Y642112D01*
X1681734D01*
Y631952D01*
X1671574D01*
X1838960Y464312D02*
Y474472D01*
X1849120D01*
Y464312D01*
X1838960D01*
X1398270Y647700D02*
Y657860D01*
X1408430D01*
Y647700D01*
X1398270D01*
X1233932Y454152D02*
Y464312D01*
X1244092D01*
Y454152D01*
X1233932D01*
X1234186Y635508D02*
Y645668D01*
X1244346D01*
Y635508D01*
X1234186D01*
X1747012Y363982D02*
Y374142D01*
X1757172D01*
Y363982D01*
X1747012D01*
X1759966Y363728D02*
Y373888D01*
X1770126D01*
Y363728D01*
X1759966D01*
X1746758Y377444D02*
Y387604D01*
X1756918D01*
Y377444D01*
X1746758D01*
X1759966D02*
Y387604D01*
X1770126D01*
Y377444D01*
X1759966D01*
X1306068Y364236D02*
Y374396D01*
X1316228D01*
Y364236D01*
X1306068D01*
X1319022Y363982D02*
Y374142D01*
X1329182D01*
Y363982D01*
X1319022D01*
X1305814Y377698D02*
Y387858D01*
X1315974D01*
Y377698D01*
X1305814D01*
X1319022D02*
Y387858D01*
X1329182D01*
Y377698D01*
X1319022D01*
X1320038Y544576D02*
Y554736D01*
X1330198D01*
Y544576D01*
X1320038D01*
Y558292D02*
Y568452D01*
X1330198D01*
Y558292D01*
X1320038D01*
X1759204Y560324D02*
Y570484D01*
X1769364D01*
Y560324D01*
X1759204D01*
X1745996D02*
Y570484D01*
X1756156D01*
Y560324D01*
X1745996D01*
X1759204Y546608D02*
Y556768D01*
X1769364D01*
Y546608D01*
X1759204D01*
X1746250Y546862D02*
Y557022D01*
X1756410D01*
Y546862D01*
X1746250D01*
X1908230Y547733D02*
Y557893D01*
X1918390D01*
Y547733D01*
X1908230D01*
X1724588Y625965D02*
Y636125D01*
X1734748D01*
Y625965D01*
X1724588D01*
X1724606Y445008D02*
Y455168D01*
X1734766D01*
Y445008D01*
X1724606D01*
X1377950Y437896D02*
Y448056D01*
X1388110D01*
Y437896D01*
X1377950D01*
X1370057Y437990D02*
Y448150D01*
X1380217D01*
Y437990D01*
X1370057D01*
X1284224Y445008D02*
Y455168D01*
X1294384D01*
Y445008D01*
X1284224D01*
X1284412Y625965D02*
Y636125D01*
X1294572D01*
Y625965D01*
X1284412D01*
M02*
