G04*
G04 #@! TF.GenerationSoftware,Altium Limited,Altium Designer,23.4.1 (23)*
G04*
G04 Layer_Color=16711935*
%FSLAX44Y44*%
%MOMM*%
G71*
G04*
G04 #@! TF.SameCoordinates,D2C56FB1-3194-4FD5-B733-79DB95D4BDB6*
G04*
G04*
G04 #@! TF.FilePolarity,Negative*
G04*
G01*
G75*
%ADD68C,1.8032*%
G04:AMPARAMS|DCode=69|XSize=1.8032mm|YSize=1.8032mm|CornerRadius=0.5016mm|HoleSize=0mm|Usage=FLASHONLY|Rotation=0.000|XOffset=0mm|YOffset=0mm|HoleType=Round|Shape=RoundedRectangle|*
%AMROUNDEDRECTD69*
21,1,1.8032,0.8000,0,0,0.0*
21,1,0.8000,1.8032,0,0,0.0*
1,1,1.0032,0.4000,-0.4000*
1,1,1.0032,-0.4000,-0.4000*
1,1,1.0032,-0.4000,0.4000*
1,1,1.0032,0.4000,0.4000*
%
%ADD69ROUNDEDRECTD69*%
%ADD70C,0.8032*%
D68*
X1357884Y735330D02*
D03*
X1383284D02*
D03*
X1510284Y760730D02*
D03*
X1484884D02*
D03*
X1459484Y760730D02*
D03*
X1510284Y735330D02*
D03*
X1484884D02*
D03*
X1459484D02*
D03*
X1281684Y760730D02*
D03*
X1307084Y735330D02*
D03*
X1307084Y760730D02*
D03*
X1332484Y735330D02*
D03*
Y760730D02*
D03*
X1357884D02*
D03*
X1408684Y735330D02*
D03*
X1383284Y760730D02*
D03*
X1408684D02*
D03*
X1434084Y735330D02*
D03*
Y760730D02*
D03*
D69*
X1281684Y735330D02*
D03*
D70*
X1314196Y598424D02*
D03*
X1313180Y416560D02*
D03*
X1751543Y417281D02*
D03*
X1402080Y577850D02*
D03*
X1402588Y397589D02*
D03*
X1844548Y395684D02*
D03*
Y376174D02*
D03*
X1874548Y371868D02*
D03*
X1844294Y368808D02*
D03*
X1885696Y371868D02*
D03*
X1517650Y567944D02*
D03*
X1558290D02*
D03*
X1597406Y567436D02*
D03*
X1752346Y597916D02*
D03*
X1824228Y556768D02*
D03*
X1838452Y545338D02*
D03*
X1838960Y554736D02*
D03*
X1823974Y548132D02*
D03*
X1390142Y367284D02*
D03*
X1404874Y375158D02*
D03*
X1389888Y375412D02*
D03*
X1815222Y572383D02*
D03*
X1868180Y549777D02*
D03*
X1883646D02*
D03*
X1840738Y565658D02*
D03*
X1830578Y565912D02*
D03*
X1435182Y371868D02*
D03*
X1481156Y371614D02*
D03*
X1451156D02*
D03*
X1494028Y567436D02*
D03*
X1389888Y639318D02*
D03*
X1436116Y638302D02*
D03*
X1458468D02*
D03*
X1469644D02*
D03*
X1389126Y457708D02*
D03*
X1453134Y457962D02*
D03*
X1435100Y458216D02*
D03*
X1465834D02*
D03*
X1848612Y650494D02*
D03*
X1901444Y639064D02*
D03*
X1890776Y639318D02*
D03*
X1875028Y639064D02*
D03*
X1829308D02*
D03*
X1901444Y457962D02*
D03*
X1892300D02*
D03*
X1874266Y457708D02*
D03*
X1390396Y388112D02*
D03*
X1815592Y391668D02*
D03*
X1835404Y386334D02*
D03*
X1404874Y367284D02*
D03*
X1465326Y577088D02*
D03*
X1451102Y570992D02*
D03*
X1440688Y577342D02*
D03*
X1827290Y458078D02*
D03*
X1635506Y558024D02*
D03*
X1653032Y571000D02*
D03*
X1595374Y558024D02*
D03*
X1535430Y570366D02*
D03*
X1515618Y558024D02*
D03*
X1573530Y571000D02*
D03*
X1772920Y722630D02*
D03*
X1757172D02*
D03*
X1662684Y755650D02*
D03*
X1636014Y727710D02*
D03*
X1609090Y730156D02*
D03*
X1915696Y371868D02*
D03*
X1445502Y552825D02*
D03*
X1475502D02*
D03*
X1389380Y557022D02*
D03*
Y549402D02*
D03*
X1404874Y557022D02*
D03*
Y549402D02*
D03*
X1658620Y496570D02*
D03*
X1382268Y624586D02*
D03*
X1374902D02*
D03*
X1434354Y552825D02*
D03*
X1862707Y580668D02*
D03*
X1831770Y623285D02*
D03*
X1816862Y624840D02*
D03*
X1820926Y442976D02*
D03*
X1831788Y442328D02*
D03*
X1785112Y754634D02*
D03*
X1311910Y563372D02*
D03*
X1403350Y469900D02*
D03*
X1550924Y757936D02*
D03*
X1562100Y672084D02*
D03*
X1525778Y483870D02*
D03*
X1487170Y454914D02*
D03*
X1612392Y504698D02*
D03*
X1552956Y559054D02*
D03*
X1660144Y406146D02*
D03*
X1654302Y456946D02*
D03*
X1461354Y502412D02*
D03*
X1468628D02*
D03*
X1454081D02*
D03*
Y493014D02*
D03*
X1461354D02*
D03*
X1468628D02*
D03*
X1609344Y530812D02*
D03*
X1804416Y722630D02*
D03*
X1559560Y607568D02*
D03*
X1609344Y629666D02*
D03*
X1582674Y488442D02*
D03*
X1534264Y457096D02*
D03*
X1825956Y388863D02*
D03*
X1831340Y376169D02*
D03*
Y369051D02*
D03*
X1374858Y391426D02*
D03*
X1375046Y572383D02*
D03*
X1312164Y549910D02*
D03*
X1676654Y637032D02*
D03*
X1844040Y469392D02*
D03*
X1403350Y652780D02*
D03*
X1239012Y459232D02*
D03*
X1239266Y640588D02*
D03*
X1752092Y369062D02*
D03*
X1765046Y368808D02*
D03*
X1751838Y382524D02*
D03*
X1765046D02*
D03*
X1311148Y369316D02*
D03*
X1324102Y369062D02*
D03*
X1310894Y382778D02*
D03*
X1324102D02*
D03*
X1325118Y549656D02*
D03*
Y563372D02*
D03*
X1764284Y565404D02*
D03*
X1751076D02*
D03*
X1764284Y551688D02*
D03*
X1751330Y551942D02*
D03*
X1913310Y552813D02*
D03*
X1729668Y631045D02*
D03*
X1729686Y450088D02*
D03*
X1383030Y442976D02*
D03*
X1375137Y443070D02*
D03*
X1289304Y450088D02*
D03*
X1289492Y631045D02*
D03*
M02*
