G04*
G04 #@! TF.GenerationSoftware,Altium Limited,Altium Designer,23.4.1 (23)*
G04*
G04 Layer_Physical_Order=1*
G04 Layer_Color=255*
%FSLAX44Y44*%
%MOMM*%
G71*
G04*
G04 #@! TF.SameCoordinates,D2C56FB1-3194-4FD5-B733-79DB95D4BDB6*
G04*
G04*
G04 #@! TF.FilePolarity,Positive*
G04*
G01*
G75*
%ADD15R,0.6000X0.6000*%
%ADD21R,1.0000X1.8000*%
G04:AMPARAMS|DCode=22|XSize=0.45mm|YSize=1.55mm|CornerRadius=0.0495mm|HoleSize=0mm|Usage=FLASHONLY|Rotation=90.000|XOffset=0mm|YOffset=0mm|HoleType=Round|Shape=RoundedRectangle|*
%AMROUNDEDRECTD22*
21,1,0.4500,1.4510,0,0,90.0*
21,1,0.3510,1.5500,0,0,90.0*
1,1,0.0990,0.7255,0.1755*
1,1,0.0990,0.7255,-0.1755*
1,1,0.0990,-0.7255,-0.1755*
1,1,0.0990,-0.7255,0.1755*
%
%ADD22ROUNDEDRECTD22*%
G04:AMPARAMS|DCode=23|XSize=1.73mm|YSize=1.85mm|CornerRadius=0.0519mm|HoleSize=0mm|Usage=FLASHONLY|Rotation=0.000|XOffset=0mm|YOffset=0mm|HoleType=Round|Shape=RoundedRectangle|*
%AMROUNDEDRECTD23*
21,1,1.7300,1.7462,0,0,0.0*
21,1,1.6262,1.8500,0,0,0.0*
1,1,0.1038,0.8131,-0.8731*
1,1,0.1038,-0.8131,-0.8731*
1,1,0.1038,-0.8131,0.8731*
1,1,0.1038,0.8131,0.8731*
%
%ADD23ROUNDEDRECTD23*%
%ADD24R,0.8500X0.9000*%
%ADD25R,0.6000X0.5000*%
%ADD26R,0.6000X0.4000*%
%ADD27R,0.5200X0.5200*%
%ADD28R,0.8000X0.9000*%
G04:AMPARAMS|DCode=29|XSize=1mm|YSize=1.2mm|CornerRadius=0.25mm|HoleSize=0mm|Usage=FLASHONLY|Rotation=270.000|XOffset=0mm|YOffset=0mm|HoleType=Round|Shape=RoundedRectangle|*
%AMROUNDEDRECTD29*
21,1,1.0000,0.7000,0,0,270.0*
21,1,0.5000,1.2000,0,0,270.0*
1,1,0.5000,-0.3500,-0.2500*
1,1,0.5000,-0.3500,0.2500*
1,1,0.5000,0.3500,0.2500*
1,1,0.5000,0.3500,-0.2500*
%
%ADD29ROUNDEDRECTD29*%
%ADD30R,1.6500X1.1000*%
%ADD31R,1.8000X1.0000*%
%ADD32R,0.3000X1.4000*%
G04:AMPARAMS|DCode=33|XSize=0.9mm|YSize=1.45mm|CornerRadius=0.0495mm|HoleSize=0mm|Usage=FLASHONLY|Rotation=180.000|XOffset=0mm|YOffset=0mm|HoleType=Round|Shape=RoundedRectangle|*
%AMROUNDEDRECTD33*
21,1,0.9000,1.3510,0,0,180.0*
21,1,0.8010,1.4500,0,0,180.0*
1,1,0.0990,-0.4005,0.6755*
1,1,0.0990,0.4005,0.6755*
1,1,0.0990,0.4005,-0.6755*
1,1,0.0990,-0.4005,-0.6755*
%
%ADD33ROUNDEDRECTD33*%
G04:AMPARAMS|DCode=34|XSize=3.15mm|YSize=1.45mm|CornerRadius=0.0508mm|HoleSize=0mm|Usage=FLASHONLY|Rotation=180.000|XOffset=0mm|YOffset=0mm|HoleType=Round|Shape=RoundedRectangle|*
%AMROUNDEDRECTD34*
21,1,3.1500,1.3485,0,0,180.0*
21,1,3.0485,1.4500,0,0,180.0*
1,1,0.1015,-1.5243,0.6743*
1,1,0.1015,1.5243,0.6743*
1,1,0.1015,1.5243,-0.6743*
1,1,0.1015,-1.5243,-0.6743*
%
%ADD34ROUNDEDRECTD34*%
G04:AMPARAMS|DCode=35|XSize=1.6mm|YSize=2.2mm|CornerRadius=0.4mm|HoleSize=0mm|Usage=FLASHONLY|Rotation=0.000|XOffset=0mm|YOffset=0mm|HoleType=Round|Shape=RoundedRectangle|*
%AMROUNDEDRECTD35*
21,1,1.6000,1.4000,0,0,0.0*
21,1,0.8000,2.2000,0,0,0.0*
1,1,0.8000,0.4000,-0.7000*
1,1,0.8000,-0.4000,-0.7000*
1,1,0.8000,-0.4000,0.7000*
1,1,0.8000,0.4000,0.7000*
%
%ADD35ROUNDEDRECTD35*%
%ADD36R,1.6000X2.2000*%
%ADD37R,0.9000X0.8000*%
%ADD38R,0.4000X0.6000*%
%ADD39R,0.5000X0.6000*%
%ADD40R,1.0000X0.7500*%
%ADD41R,0.9500X0.6000*%
%ADD42R,5.3000X2.0000*%
%ADD43R,1.5200X1.6800*%
%ADD44R,1.0500X1.6000*%
%ADD45R,1.1000X1.3500*%
%ADD46R,0.9000X0.8500*%
%ADD47R,1.5240X1.5240*%
%ADD48R,1.2000X1.0000*%
%ADD59R,0.6000X0.6000*%
%ADD65R,1.6000X0.3500*%
%ADD71C,0.2540*%
%ADD72C,0.5080*%
%ADD73R,3.9878X1.2954*%
%ADD74R,4.0894X1.2954*%
%ADD75R,5.2068X1.3208*%
%ADD76R,4.3942X1.2954*%
%ADD77R,2.1082X1.7780*%
%ADD78C,1.6000*%
G04:AMPARAMS|DCode=79|XSize=1.6mm|YSize=1.6mm|CornerRadius=0.4mm|HoleSize=0mm|Usage=FLASHONLY|Rotation=0.000|XOffset=0mm|YOffset=0mm|HoleType=Round|Shape=RoundedRectangle|*
%AMROUNDEDRECTD79*
21,1,1.6000,0.8000,0,0,0.0*
21,1,0.8000,1.6000,0,0,0.0*
1,1,0.8000,0.4000,-0.4000*
1,1,0.8000,-0.4000,-0.4000*
1,1,0.8000,-0.4000,0.4000*
1,1,0.8000,0.4000,0.4000*
%
%ADD79ROUNDEDRECTD79*%
%ADD80C,0.6000*%
G36*
X1471930Y519938D02*
X1472385Y519938D01*
X1473225Y519590D01*
X1473868Y518947D01*
X1474216Y518106D01*
X1474215Y517651D01*
X1474216Y517652D01*
X1474216Y484378D01*
X1474216Y483822D01*
X1473791Y482795D01*
X1473004Y482009D01*
X1471977Y481584D01*
X1471421Y481584D01*
X1471422D01*
X1471421D01*
D01*
X1395730Y481584D01*
X1395334Y481545D01*
X1394601Y481242D01*
X1394040Y480681D01*
X1393737Y479948D01*
X1393698Y479552D01*
Y479552D01*
Y479552D01*
D01*
X1393698Y466852D01*
X1370838Y466852D01*
X1369060Y466852D01*
X1368713Y466818D01*
X1368072Y466552D01*
X1367581Y466062D01*
X1367316Y465420D01*
X1367282Y465074D01*
X1367282Y465074D01*
X1367282Y461772D01*
X1367282Y461570D01*
X1367127Y461196D01*
X1366841Y460910D01*
X1366468Y460756D01*
X1366266Y460756D01*
X1352805D01*
X1352339Y460949D01*
X1351981Y461307D01*
X1351788Y461773D01*
Y462026D01*
X1351788Y493268D01*
X1351759Y493565D01*
X1351531Y494115D01*
X1351110Y494535D01*
X1350561Y494762D01*
X1350264Y494791D01*
X1350264Y494792D01*
X1323971Y494792D01*
X1322980Y494743D01*
X1321037Y494357D01*
X1319206Y493598D01*
X1317558Y492497D01*
X1316823Y491831D01*
X1316823Y491831D01*
X1310553Y485561D01*
X1309849Y484857D01*
X1308193Y483750D01*
X1306353Y482988D01*
X1304400Y482600D01*
X1303405Y482600D01*
X1303405D01*
X1303405D01*
D01*
X1271393Y482600D01*
X1271003Y482581D01*
X1270239Y482429D01*
X1269519Y482130D01*
X1268870Y481697D01*
X1268581Y481435D01*
Y481435D01*
X1268435Y481289D01*
X1268092Y481060D01*
X1267711Y480902D01*
X1267307Y480822D01*
X1267101Y480822D01*
X1259384D01*
X1258708Y480822D01*
X1257369Y480998D01*
X1256064Y481348D01*
X1254816Y481864D01*
X1254231Y482202D01*
X1253731Y482469D01*
X1252684Y482902D01*
X1251589Y483196D01*
X1250465Y483343D01*
X1249898Y483362D01*
X1249898Y483362D01*
X1241044Y483362D01*
X1240791D01*
X1240325Y483555D01*
X1239967Y483913D01*
X1239774Y484379D01*
Y484632D01*
Y485376D01*
Y486105D01*
X1240058Y487535D01*
X1240616Y488882D01*
X1241426Y490094D01*
X1241942Y490610D01*
X1241942Y490610D01*
X1268309Y516977D01*
X1269013Y517681D01*
X1270669Y518787D01*
X1272508Y519549D01*
X1274462Y519938D01*
X1275457Y519938D01*
X1275457Y519938D01*
X1471930Y519938D01*
D02*
G37*
G36*
X1418336Y453390D02*
X1383538D01*
Y463339D01*
X1383792Y463550D01*
X1418336D01*
Y453390D01*
D02*
G37*
G36*
X1256792Y448056D02*
X1256538Y447802D01*
X1247394D01*
X1242314Y442722D01*
X1236218D01*
Y447802D01*
X1242060Y453644D01*
X1256792D01*
Y448056D01*
D02*
G37*
G36*
X1480566Y418846D02*
X1429766D01*
X1417828Y406908D01*
X1411732D01*
X1398270Y420370D01*
X1386586D01*
X1377442Y411226D01*
Y409194D01*
X1362202D01*
Y425958D01*
X1376680D01*
X1386586Y435864D01*
X1419606D01*
X1422654Y438658D01*
X1480566D01*
Y418846D01*
D02*
G37*
G36*
X1348486Y414528D02*
Y410210D01*
X1354582Y398272D01*
X1366266D01*
Y364236D01*
X1365504Y363474D01*
X1308608D01*
X1273302Y398780D01*
Y416814D01*
X1268730Y421386D01*
Y438912D01*
X1274572D01*
X1291590Y421894D01*
Y395732D01*
X1310894D01*
X1325372Y410210D01*
Y437642D01*
X1322324Y440690D01*
X1305052D01*
X1305306Y440944D01*
Y446024D01*
X1323134D01*
X1327658Y449834D01*
Y462788D01*
X1338326Y462788D01*
Y491236D01*
X1339850Y492760D01*
X1348486D01*
Y414528D01*
D02*
G37*
G36*
X1500378Y397129D02*
Y381635D01*
X1491742D01*
X1489710Y383667D01*
X1410208D01*
Y362585D01*
X1385062D01*
X1384808Y362331D01*
Y380111D01*
X1380236Y384683D01*
X1369314D01*
Y398145D01*
X1387348D01*
X1392682Y392811D01*
X1422146D01*
X1427480Y398145D01*
Y403479D01*
X1494028D01*
X1500378Y397129D01*
D02*
G37*
G36*
X1456182Y362712D02*
X1427480D01*
X1427226Y362966D01*
Y380746D01*
X1456182D01*
Y362712D01*
D02*
G37*
G36*
X1464564Y695040D02*
X1465652Y694623D01*
X1467682Y693479D01*
X1469524Y692050D01*
X1471136Y690367D01*
X1472484Y688466D01*
X1473540Y686389D01*
X1474280Y684179D01*
X1474689Y681884D01*
X1474723Y680720D01*
X1474723Y680720D01*
X1474724Y670814D01*
X1474724Y669999D01*
X1474406Y668401D01*
X1473783Y666895D01*
X1472878Y665540D01*
X1471725Y664388D01*
X1470370Y663482D01*
X1468864Y662859D01*
X1467266Y662541D01*
X1466451Y662541D01*
X1395918Y662541D01*
X1395683Y662518D01*
X1395249Y662338D01*
X1394917Y662006D01*
X1394737Y661572D01*
X1394714Y661337D01*
Y661337D01*
X1394714Y647954D01*
X1394714Y647802D01*
X1394598Y647522D01*
X1394384Y647308D01*
X1394104Y647192D01*
X1393952Y647192D01*
X1368631D01*
X1368405Y647170D01*
X1367986Y646996D01*
X1367666Y646676D01*
X1367493Y646258D01*
X1367470Y646031D01*
Y641713D01*
X1352695D01*
X1352552Y641713D01*
X1352288Y641823D01*
X1352086Y642025D01*
X1351976Y642289D01*
X1351976Y642432D01*
Y642432D01*
X1351976Y674225D01*
X1351902Y674501D01*
X1351636Y675006D01*
X1351233Y675409D01*
X1350728Y675675D01*
X1350452Y675749D01*
X1350452Y675749D01*
X1321169Y675749D01*
X1320885Y675735D01*
X1320330Y675625D01*
X1319807Y675408D01*
X1319336Y675094D01*
X1319126Y674903D01*
X1319126Y674903D01*
X1309641Y665418D01*
X1309199Y664975D01*
X1308158Y664280D01*
X1307002Y663801D01*
X1305774Y663557D01*
X1305148Y663557D01*
X1305149D01*
X1269855Y663557D01*
X1268077Y661779D01*
X1256218D01*
X1254440Y663557D01*
X1241697D01*
X1241365Y663557D01*
X1240751Y663811D01*
X1240282Y664281D01*
X1240028Y664894D01*
X1240028Y665226D01*
Y665226D01*
Y673038D01*
Y673596D01*
X1240246Y674691D01*
X1240673Y675723D01*
X1241293Y676651D01*
X1241688Y677045D01*
X1253577Y688935D01*
X1254281Y690077D01*
X1256109Y692042D01*
X1258284Y693614D01*
X1260724Y694730D01*
X1262030Y695040D01*
X1262030Y695040D01*
X1464564Y695040D01*
D02*
G37*
G36*
X1419098Y634347D02*
X1384107D01*
Y644507D01*
X1419098D01*
Y634347D01*
D02*
G37*
G36*
X1256980Y628251D02*
X1256726Y627997D01*
X1247582D01*
X1242502Y622917D01*
X1236406D01*
Y627997D01*
X1243155Y634746D01*
X1256980D01*
Y628251D01*
D02*
G37*
G36*
X1480754Y599041D02*
X1429954D01*
X1418016Y587103D01*
X1411920D01*
X1398458Y600565D01*
X1386774D01*
X1377630Y591421D01*
Y589389D01*
X1362390D01*
Y607060D01*
X1377775D01*
X1387427Y616712D01*
X1420506D01*
X1423831Y619760D01*
X1480754D01*
Y599041D01*
D02*
G37*
G36*
X1348674Y594723D02*
Y590405D01*
X1354177Y579628D01*
X1366454D01*
Y544431D01*
X1365692Y543669D01*
X1298085D01*
X1273490Y568264D01*
Y597009D01*
X1268918Y601581D01*
Y619107D01*
X1274760D01*
X1291778Y602089D01*
Y575927D01*
X1311082D01*
X1325560Y590405D01*
Y617837D01*
X1322512Y620885D01*
X1305494D01*
Y621139D01*
Y626872D01*
X1324097D01*
X1327846Y630029D01*
Y642983D01*
X1338514Y642983D01*
X1338514Y672272D01*
X1339850Y673608D01*
X1348674D01*
Y594723D01*
D02*
G37*
G36*
X1498092Y572008D02*
X1498092Y562719D01*
X1487315D01*
X1485283Y564751D01*
X1410396D01*
X1409446Y563801D01*
Y543669D01*
X1385250D01*
X1384996Y543415D01*
Y561195D01*
X1380424Y565767D01*
X1369502D01*
Y579229D01*
X1387536D01*
X1394902Y571863D01*
X1420302D01*
X1427668Y579229D01*
Y584563D01*
X1485537D01*
X1498092Y572008D01*
D02*
G37*
G36*
X1539494Y565912D02*
X1526540Y552958D01*
X1506474D01*
Y563118D01*
X1518158Y574802D01*
X1539494D01*
Y565912D01*
D02*
G37*
G36*
X1452372Y543814D02*
X1429766D01*
X1429512Y544068D01*
Y561848D01*
X1452372D01*
Y543814D01*
D02*
G37*
G36*
X1738822Y791464D02*
X1739441Y791464D01*
X1740654Y791223D01*
X1741797Y790749D01*
X1742826Y790062D01*
X1743264Y789624D01*
X1745426Y787462D01*
X1745426Y787461D01*
X1745883Y787048D01*
X1746907Y786364D01*
X1748044Y785892D01*
X1749252Y785652D01*
X1749868Y785622D01*
X1812036D01*
X1812036Y785622D01*
X1812339Y785622D01*
X1812899Y785390D01*
X1813328Y784961D01*
X1813560Y784401D01*
X1813560Y784098D01*
X1813560Y762762D01*
X1753362D01*
X1733748Y743148D01*
X1733748Y743147D01*
X1732903Y742216D01*
X1731507Y740127D01*
X1730546Y737806D01*
X1730056Y735342D01*
X1729994Y734085D01*
Y715010D01*
X1720850D01*
Y734445D01*
X1720850Y734445D01*
X1720795Y735556D01*
X1720362Y737735D01*
X1719512Y739788D01*
X1718277Y741636D01*
X1717530Y742460D01*
X1695022Y764968D01*
X1695021Y764968D01*
X1693634Y766225D01*
X1690525Y768303D01*
X1687070Y769734D01*
X1683402Y770464D01*
X1681532Y770556D01*
X1668654Y770556D01*
X1668654Y770555D01*
X1667210Y770489D01*
X1664372Y769959D01*
X1661679Y768917D01*
X1659223Y767399D01*
X1657087Y765456D01*
X1655344Y763154D01*
X1654053Y760572D01*
X1653258Y757796D01*
X1653056Y756365D01*
X1653056Y756365D01*
X1653027Y756062D01*
X1652755Y755517D01*
X1652305Y755108D01*
X1651737Y754888D01*
X1628140D01*
Y768945D01*
X1628140Y769589D01*
X1628391Y770851D01*
X1628884Y772040D01*
X1629599Y773111D01*
X1630054Y773566D01*
X1644019Y787531D01*
X1644019Y787531D01*
X1644954Y788466D01*
X1647153Y789936D01*
X1649597Y790948D01*
X1652192Y791464D01*
X1653514Y791464D01*
X1738822Y791464D01*
X1738822Y791464D01*
D02*
G37*
G36*
X1643380Y719328D02*
X1600962D01*
X1601090Y719456D01*
Y735838D01*
X1643380D01*
Y719328D01*
D02*
G37*
G36*
X1813814Y733044D02*
Y711200D01*
X1797812D01*
X1794002Y715010D01*
X1743710D01*
Y729742D01*
X1794002Y729996D01*
X1799336Y735330D01*
X1811528D01*
X1813814Y733044D01*
D02*
G37*
G36*
X1869142Y697196D02*
X1872634Y695885D01*
X1875802Y693918D01*
X1878527Y691371D01*
X1880702Y688341D01*
X1882244Y684945D01*
X1883093Y681314D01*
X1883156Y679450D01*
X1883156Y679450D01*
Y662686D01*
X1836166D01*
X1833880Y660400D01*
X1833880Y647700D01*
X1809242Y647700D01*
X1807718Y646176D01*
Y641858D01*
X1792224D01*
Y674370D01*
X1790700Y675894D01*
X1760220D01*
X1748028Y663702D01*
X1709420D01*
X1707388Y661670D01*
X1696720D01*
X1694180Y664210D01*
X1645412D01*
X1644461Y664210D01*
X1642597Y664581D01*
X1640840Y665308D01*
X1639259Y666365D01*
X1637915Y667709D01*
X1636858Y669290D01*
X1636131Y671047D01*
X1635760Y672911D01*
X1635760Y673862D01*
Y673862D01*
X1635760Y689356D01*
Y690182D01*
X1636082Y691801D01*
X1636714Y693326D01*
X1637631Y694699D01*
X1638799Y695867D01*
X1640172Y696784D01*
X1641697Y697416D01*
X1643316Y697738D01*
X1644142Y697738D01*
X1863598Y697738D01*
X1865462Y697801D01*
X1869142Y697196D01*
D02*
G37*
G36*
X1858518Y634347D02*
X1824289D01*
Y644507D01*
X1858518D01*
Y634347D01*
D02*
G37*
G36*
X1697228Y629158D02*
X1696720Y628650D01*
X1687576D01*
X1682750Y623824D01*
X1676654D01*
Y628904D01*
X1682496Y634746D01*
X1697228D01*
Y629158D01*
D02*
G37*
G36*
X1921002Y599694D02*
X1869948D01*
X1858010Y587756D01*
X1852422D01*
X1838960Y601218D01*
X1829054Y601218D01*
X1817878Y590042D01*
X1802638Y590042D01*
Y607060D01*
X1817116D01*
X1827022Y616966D01*
X1860042D01*
X1863090Y619760D01*
X1921002D01*
Y599694D01*
D02*
G37*
G36*
X1788668Y595376D02*
Y591058D01*
X1794764Y579120D01*
X1806448D01*
Y545084D01*
X1805686Y544322D01*
X1748790D01*
X1713484Y579628D01*
Y597662D01*
X1708912Y602234D01*
Y619760D01*
X1714754D01*
X1731772Y602742D01*
Y576580D01*
X1751076D01*
X1765554Y591058D01*
Y618490D01*
X1762506Y621538D01*
X1745488D01*
Y621792D01*
Y626872D01*
X1763316D01*
X1767840Y630682D01*
Y643636D01*
X1778508Y643636D01*
Y672084D01*
X1780032Y673608D01*
X1788668D01*
Y595376D01*
D02*
G37*
G36*
X1918506Y585470D02*
X1918858Y585470D01*
X1919548Y585333D01*
X1920199Y585063D01*
X1920784Y584672D01*
X1921033Y584423D01*
X1921033Y584423D01*
X1930921Y574535D01*
X1931461Y573995D01*
X1932311Y572724D01*
X1932896Y571311D01*
X1933194Y569812D01*
X1933194Y569047D01*
X1933194Y569047D01*
Y560324D01*
Y560071D01*
X1933001Y559605D01*
X1932643Y559247D01*
X1932177Y559054D01*
X1927414D01*
X1926855Y559054D01*
X1925760Y559272D01*
X1924729Y559699D01*
X1923801Y560319D01*
X1923406Y560714D01*
X1923406Y560714D01*
X1920704Y563416D01*
X1920400Y563692D01*
X1919718Y564148D01*
X1918959Y564462D01*
X1918154Y564622D01*
X1917744Y564642D01*
X1917744Y564642D01*
X1850644Y564642D01*
X1849897Y564605D01*
X1848432Y564314D01*
X1847052Y563742D01*
X1845810Y562912D01*
X1844753Y561856D01*
X1843923Y560614D01*
X1843352Y559234D01*
X1843061Y557769D01*
X1843024Y557022D01*
Y557022D01*
X1843024Y541528D01*
X1843024Y541376D01*
X1842908Y541096D01*
X1842694Y540882D01*
X1842413Y540766D01*
X1842262Y540766D01*
X1818184D01*
X1817811Y540921D01*
X1817525Y541206D01*
X1817370Y541580D01*
X1817370Y541782D01*
X1817370Y541782D01*
X1817370Y563880D01*
X1817336Y564227D01*
X1817070Y564868D01*
X1816580Y565358D01*
X1815939Y565624D01*
X1815592Y565658D01*
X1815592Y565658D01*
X1810512D01*
X1810360Y565658D01*
X1810080Y565774D01*
X1809866Y565988D01*
X1809750Y566268D01*
X1809750Y566420D01*
Y566420D01*
Y578104D01*
Y578306D01*
X1809905Y578680D01*
X1810190Y578965D01*
X1810564Y579120D01*
X1810766D01*
X1825795Y579120D01*
X1826268Y579120D01*
X1827196Y578936D01*
X1828069Y578573D01*
X1828855Y578048D01*
X1829190Y577713D01*
X1829190Y577714D01*
X1833490Y573414D01*
X1833902Y573041D01*
X1834826Y572423D01*
X1835852Y571998D01*
X1836942Y571781D01*
X1837498Y571754D01*
X1860550D01*
X1867916Y579120D01*
Y585470D01*
X1918506Y585470D01*
D02*
G37*
G36*
X1657350Y566166D02*
X1644396Y553212D01*
X1626362D01*
Y563118D01*
X1639062Y575818D01*
X1657350D01*
Y566166D01*
D02*
G37*
G36*
X1617472Y565912D02*
X1604518Y552958D01*
X1586484D01*
Y562864D01*
X1599184Y575564D01*
X1617472D01*
Y565912D01*
D02*
G37*
G36*
X1577594D02*
X1564640Y552958D01*
X1546606D01*
Y562864D01*
X1559306Y575564D01*
X1577594D01*
Y565912D01*
D02*
G37*
G36*
X1862198Y520873D02*
X1864634Y520209D01*
X1866960Y519227D01*
X1868047Y518586D01*
X1868047Y518586D01*
X1879354Y511923D01*
X1880048Y511514D01*
X1881181Y510367D01*
X1881981Y508967D01*
X1882394Y507409D01*
X1882394Y506603D01*
X1882394Y506603D01*
X1882394Y482600D01*
Y482398D01*
X1882239Y482024D01*
X1881953Y481739D01*
X1881580Y481584D01*
X1881378D01*
X1836166Y481584D01*
X1835621Y481530D01*
X1834613Y481113D01*
X1833842Y480342D01*
X1833425Y479335D01*
X1833372Y478790D01*
Y478790D01*
X1833372Y467360D01*
X1833372Y467259D01*
X1833295Y467072D01*
X1833152Y466929D01*
X1832965Y466852D01*
X1832864Y466852D01*
X1832864D01*
X1822058Y466852D01*
X1809496Y466852D01*
X1809149Y466818D01*
X1808508Y466553D01*
X1808017Y466062D01*
X1807752Y465421D01*
X1807718Y465074D01*
Y461772D01*
Y461570D01*
X1807563Y461197D01*
X1807278Y460911D01*
X1806904Y460756D01*
X1792834D01*
X1792554Y460872D01*
X1792340Y461086D01*
X1792224Y461366D01*
Y461518D01*
X1792224Y493268D01*
X1792195Y493565D01*
X1791967Y494115D01*
X1791547Y494535D01*
X1790997Y494762D01*
X1790700Y494792D01*
X1790700Y494792D01*
X1763181Y494792D01*
X1762480Y494758D01*
X1761106Y494484D01*
X1759811Y493948D01*
X1758646Y493169D01*
X1758126Y492698D01*
X1758126Y492698D01*
X1749075Y483647D01*
X1748826Y483398D01*
X1748241Y483007D01*
X1747590Y482737D01*
X1746899Y482600D01*
X1746547Y482600D01*
X1711303Y482600D01*
X1711098Y482590D01*
X1710695Y482510D01*
X1710316Y482353D01*
X1709975Y482125D01*
X1709823Y481987D01*
Y481987D01*
X1709525Y481689D01*
X1709319Y481483D01*
X1708834Y481159D01*
X1708295Y480936D01*
X1707723Y480822D01*
X1707431Y480822D01*
X1698200D01*
X1697788Y480822D01*
X1696979Y480983D01*
X1696217Y481298D01*
X1695531Y481757D01*
X1695240Y482048D01*
X1695240Y482048D01*
X1693926Y483362D01*
X1681480D01*
X1681480Y487872D01*
X1681480Y488430D01*
X1681698Y489525D01*
X1682125Y490557D01*
X1682745Y491485D01*
X1683140Y491880D01*
X1683140Y491880D01*
X1711421Y520161D01*
X1711670Y520410D01*
X1712255Y520801D01*
X1712906Y521071D01*
X1713596Y521208D01*
X1713948Y521208D01*
X1713948Y521208D01*
X1770380D01*
X1858433Y521208D01*
X1859696Y521208D01*
X1862198Y520873D01*
D02*
G37*
G36*
X1857756Y453499D02*
X1822758D01*
Y462389D01*
X1824289Y463659D01*
X1857756D01*
Y453499D01*
D02*
G37*
G36*
X1921002Y418846D02*
X1870202D01*
X1858264Y406908D01*
X1852168D01*
X1838706Y420370D01*
X1829054Y420370D01*
X1817878Y409194D01*
X1802638D01*
Y425958D01*
X1817116D01*
X1827022Y435864D01*
X1860042D01*
X1863090Y438658D01*
X1921002D01*
Y418846D01*
D02*
G37*
G36*
X1788668Y414528D02*
Y410210D01*
X1794764Y398272D01*
X1806448D01*
Y364236D01*
X1805686Y363474D01*
X1748790D01*
X1713484Y398780D01*
Y416814D01*
X1708912Y421386D01*
Y438912D01*
X1714754D01*
X1731772Y421894D01*
Y395732D01*
X1751076D01*
X1765554Y410210D01*
Y437642D01*
X1762506Y440690D01*
X1745488D01*
Y440944D01*
Y446024D01*
X1763316D01*
X1767840Y449834D01*
Y462788D01*
X1778508Y462788D01*
Y491236D01*
X1780032Y492760D01*
X1788668D01*
Y414528D01*
D02*
G37*
G36*
X1932432Y392176D02*
Y381762D01*
X1923034D01*
X1921002Y383794D01*
X1850644D01*
X1849628Y382778D01*
Y362712D01*
X1824990D01*
Y380492D01*
X1820926Y384556D01*
X1809750D01*
Y398272D01*
X1827784D01*
X1835150Y390906D01*
X1860550D01*
X1867916Y398272D01*
Y403606D01*
X1921002D01*
X1932432Y392176D01*
D02*
G37*
%LPC*%
G36*
X1466451Y662541D02*
X1466451D01*
D01*
X1466451D01*
D02*
G37*
G36*
X1746548Y482600D02*
X1746547D01*
D01*
X1746548D01*
D02*
G37*
%LPD*%
D15*
X1509302Y368674D02*
D03*
Y383674D02*
D03*
X1527302D02*
D03*
Y368674D02*
D03*
X1712084Y435742D02*
D03*
Y450742D02*
D03*
X1694084D02*
D03*
Y435742D02*
D03*
X1271702D02*
D03*
Y450742D02*
D03*
X1253702D02*
D03*
Y435742D02*
D03*
X1271890Y616699D02*
D03*
Y631699D02*
D03*
X1253890D02*
D03*
Y616699D02*
D03*
X1712066D02*
D03*
Y631699D02*
D03*
X1694066D02*
D03*
Y616699D02*
D03*
X1692512Y383674D02*
D03*
Y368674D02*
D03*
X1674512D02*
D03*
Y383674D02*
D03*
D21*
X1874548Y371868D02*
D03*
X1844548D02*
D03*
X1915696D02*
D03*
X1885696D02*
D03*
X1434354Y552825D02*
D03*
X1404354D02*
D03*
X1572754Y504698D02*
D03*
X1602754D02*
D03*
X1688592Y407936D02*
D03*
X1718592D02*
D03*
X1248210D02*
D03*
X1278210D02*
D03*
X1451156Y371614D02*
D03*
X1481156D02*
D03*
X1405182Y371868D02*
D03*
X1435182D02*
D03*
X1248398Y588893D02*
D03*
X1278398D02*
D03*
X1447280Y552825D02*
D03*
X1477280D02*
D03*
X1883646Y549777D02*
D03*
X1913646D02*
D03*
X1688574Y588893D02*
D03*
X1718574D02*
D03*
X1838180Y549777D02*
D03*
X1868180D02*
D03*
D22*
X1753494Y463166D02*
D03*
X1799994D02*
D03*
Y456666D02*
D03*
Y450166D02*
D03*
Y443666D02*
D03*
X1753494Y456666D02*
D03*
Y450166D02*
D03*
Y443666D02*
D03*
X1313112D02*
D03*
Y450166D02*
D03*
Y456666D02*
D03*
X1359612Y443666D02*
D03*
Y450166D02*
D03*
Y456666D02*
D03*
Y463166D02*
D03*
X1313112D02*
D03*
X1313300Y624623D02*
D03*
Y631123D02*
D03*
Y637623D02*
D03*
X1359800Y624623D02*
D03*
Y631123D02*
D03*
Y637623D02*
D03*
Y644123D02*
D03*
X1313300D02*
D03*
X1753476Y624623D02*
D03*
Y631123D02*
D03*
Y637623D02*
D03*
X1799976Y624623D02*
D03*
Y631123D02*
D03*
Y637623D02*
D03*
Y644123D02*
D03*
X1753476Y644123D02*
D03*
D23*
X1776744Y453416D02*
D03*
X1336362D02*
D03*
X1336550Y634373D02*
D03*
X1776726D02*
D03*
D24*
X1357086Y488200D02*
D03*
X1344086D02*
D03*
X1784468Y477786D02*
D03*
X1797468D02*
D03*
X1784468Y488200D02*
D03*
X1797468D02*
D03*
X1344086Y477786D02*
D03*
X1357086D02*
D03*
X1344274Y658743D02*
D03*
X1357274D02*
D03*
X1344274Y669157D02*
D03*
X1357274D02*
D03*
X1784450Y658743D02*
D03*
X1797450D02*
D03*
X1784450Y669157D02*
D03*
X1797450D02*
D03*
D25*
X1243144Y475774D02*
D03*
Y485774D02*
D03*
X1295402Y666731D02*
D03*
Y656731D02*
D03*
X1679716Y445274D02*
D03*
Y435274D02*
D03*
X1737628Y416986D02*
D03*
Y426986D02*
D03*
X1684542Y485774D02*
D03*
Y475774D02*
D03*
X1736104D02*
D03*
Y485774D02*
D03*
X1855162Y399368D02*
D03*
Y409368D02*
D03*
X1239334Y445274D02*
D03*
Y435274D02*
D03*
X1297246Y416986D02*
D03*
Y426986D02*
D03*
X1294706Y475774D02*
D03*
Y485774D02*
D03*
X1414780Y399368D02*
D03*
Y409368D02*
D03*
X1239522Y626231D02*
D03*
Y616231D02*
D03*
X1297434Y597943D02*
D03*
Y607943D02*
D03*
X1243840Y666731D02*
D03*
Y656731D02*
D03*
X1414968Y580325D02*
D03*
Y590325D02*
D03*
X1679698Y626231D02*
D03*
Y616231D02*
D03*
X1737610Y597943D02*
D03*
Y607943D02*
D03*
X1683762Y666731D02*
D03*
Y656731D02*
D03*
X1735324D02*
D03*
Y666731D02*
D03*
X1855144Y580325D02*
D03*
Y590325D02*
D03*
D26*
X1509302Y376174D02*
D03*
X1527302D02*
D03*
X1712084Y443242D02*
D03*
X1694084D02*
D03*
X1271702D02*
D03*
X1253702D02*
D03*
X1271890Y624199D02*
D03*
X1253890D02*
D03*
X1712066D02*
D03*
X1694066D02*
D03*
X1692512Y376174D02*
D03*
X1674512D02*
D03*
D27*
X1279908Y666231D02*
D03*
Y658231D02*
D03*
X1720610Y477274D02*
D03*
Y485274D02*
D03*
X1279212Y477274D02*
D03*
Y485274D02*
D03*
X1719830Y658231D02*
D03*
Y666231D02*
D03*
D28*
X1494030Y567167D02*
D03*
Y550167D02*
D03*
X1535430Y587366D02*
D03*
Y570366D02*
D03*
X1573530Y588000D02*
D03*
Y571000D02*
D03*
X1614170Y588000D02*
D03*
Y571000D02*
D03*
X1653032Y588000D02*
D03*
Y571000D02*
D03*
X1928382Y369210D02*
D03*
Y386210D02*
D03*
X1496382Y369210D02*
D03*
Y386210D02*
D03*
X1928872Y547119D02*
D03*
Y564119D02*
D03*
X1503172Y426348D02*
D03*
Y443348D02*
D03*
Y487544D02*
D03*
Y470544D02*
D03*
X1660144Y443348D02*
D03*
Y426348D02*
D03*
X1659128Y470798D02*
D03*
Y487798D02*
D03*
D29*
X1676654Y775556D02*
D03*
Y755556D02*
D03*
X1773174Y742188D02*
D03*
Y722188D02*
D03*
X1609090Y750156D02*
D03*
Y730156D02*
D03*
X1586230Y730410D02*
D03*
D30*
X1535176Y679730D02*
D03*
Y651230D02*
D03*
X1874280Y458710D02*
D03*
Y487210D02*
D03*
X1434660Y458710D02*
D03*
Y487210D02*
D03*
X1436118Y639667D02*
D03*
Y668167D02*
D03*
X1874770Y639667D02*
D03*
Y668167D02*
D03*
X1584960Y669798D02*
D03*
Y698298D02*
D03*
D31*
X1515618Y588024D02*
D03*
Y558024D02*
D03*
X1555750Y588024D02*
D03*
Y558024D02*
D03*
X1595374Y588024D02*
D03*
Y558024D02*
D03*
X1635506Y588024D02*
D03*
Y558024D02*
D03*
X1848880Y488468D02*
D03*
Y458468D02*
D03*
X1409260Y488468D02*
D03*
Y458468D02*
D03*
X1410210Y669425D02*
D03*
Y639425D02*
D03*
X1849624Y669425D02*
D03*
Y639425D02*
D03*
X1528064Y470140D02*
D03*
Y500140D02*
D03*
Y443752D02*
D03*
Y413752D02*
D03*
X1637284Y443752D02*
D03*
Y413752D02*
D03*
X1637538Y470140D02*
D03*
Y500140D02*
D03*
D32*
X1589880Y606650D02*
D03*
X1584880D02*
D03*
X1579880D02*
D03*
X1574880D02*
D03*
X1569880D02*
D03*
Y650650D02*
D03*
X1574880D02*
D03*
X1579880D02*
D03*
X1584880D02*
D03*
X1589880D02*
D03*
D33*
X1702422Y722360D02*
D03*
X1725422D02*
D03*
X1748422D02*
D03*
D34*
X1725422Y783860D02*
D03*
D35*
X1805686Y722982D02*
D03*
D36*
Y766982D02*
D03*
D37*
X1579000Y522732D02*
D03*
X1596000D02*
D03*
D38*
X1495806Y517796D02*
D03*
Y535796D02*
D03*
X1678178Y536146D02*
D03*
Y518146D02*
D03*
D39*
X1729580Y404634D02*
D03*
X1739580D02*
D03*
X1289198D02*
D03*
X1299198D02*
D03*
X1289386Y585591D02*
D03*
X1299386D02*
D03*
X1729562D02*
D03*
X1739562D02*
D03*
D40*
X1702830Y469524D02*
D03*
Y484524D02*
D03*
X1261432Y469524D02*
D03*
Y484524D02*
D03*
X1262128Y650481D02*
D03*
Y665481D02*
D03*
X1702050Y650481D02*
D03*
Y665481D02*
D03*
D41*
X1831788Y442328D02*
D03*
Y432828D02*
D03*
Y423328D02*
D03*
X1854288Y442328D02*
D03*
Y432828D02*
D03*
Y423328D02*
D03*
X1391406Y442328D02*
D03*
Y432828D02*
D03*
Y423328D02*
D03*
X1413906Y442328D02*
D03*
Y432828D02*
D03*
Y423328D02*
D03*
X1391594Y623285D02*
D03*
Y613785D02*
D03*
Y604285D02*
D03*
X1414094Y623285D02*
D03*
Y613785D02*
D03*
Y604285D02*
D03*
X1831770Y623285D02*
D03*
X1831770Y613785D02*
D03*
X1831770Y604285D02*
D03*
X1854270Y623285D02*
D03*
Y613785D02*
D03*
Y604285D02*
D03*
D42*
X1894346Y393738D02*
D03*
Y428738D02*
D03*
X1453964Y393738D02*
D03*
Y428738D02*
D03*
X1454152Y574695D02*
D03*
Y609695D02*
D03*
X1894328Y574695D02*
D03*
Y609695D02*
D03*
D43*
X1810272Y417588D02*
D03*
X1776272D02*
D03*
X1369890D02*
D03*
X1335890D02*
D03*
X1370078Y598545D02*
D03*
X1336078D02*
D03*
X1810254D02*
D03*
X1776254D02*
D03*
D44*
X1830356Y371614D02*
D03*
X1800856D02*
D03*
X1389974D02*
D03*
X1360474D02*
D03*
X1390162Y552571D02*
D03*
X1360662D02*
D03*
X1822718D02*
D03*
X1793218D02*
D03*
D45*
X1801240Y391426D02*
D03*
X1815240D02*
D03*
X1360858D02*
D03*
X1374858D02*
D03*
X1361046Y572383D02*
D03*
X1375046D02*
D03*
X1801222D02*
D03*
X1815222D02*
D03*
D46*
X1828814Y458078D02*
D03*
Y471078D02*
D03*
X1816114Y458078D02*
D03*
Y471078D02*
D03*
X1389194Y458078D02*
D03*
Y471078D02*
D03*
X1375732Y458078D02*
D03*
Y471078D02*
D03*
X1389636Y639035D02*
D03*
Y652035D02*
D03*
X1375920Y639035D02*
D03*
Y652035D02*
D03*
X1829304Y639035D02*
D03*
Y652035D02*
D03*
X1816096Y639035D02*
D03*
Y652035D02*
D03*
D47*
X1635760Y728091D02*
D03*
Y762381D02*
D03*
D48*
X1586230Y750410D02*
D03*
D59*
X1488306Y517796D02*
D03*
X1503306D02*
D03*
Y535796D02*
D03*
X1488306D02*
D03*
X1685678Y536146D02*
D03*
X1670678D02*
D03*
Y518146D02*
D03*
X1685678D02*
D03*
D65*
X1555122Y476596D02*
D03*
Y470096D02*
D03*
Y463596D02*
D03*
Y457096D02*
D03*
Y450596D02*
D03*
Y444096D02*
D03*
Y437596D02*
D03*
X1611122D02*
D03*
Y444096D02*
D03*
Y450596D02*
D03*
Y457096D02*
D03*
Y463596D02*
D03*
Y470096D02*
D03*
Y476596D02*
D03*
D71*
X1297434Y597943D02*
X1297675Y598184D01*
X1313956D01*
X1314196Y598424D01*
X1297459Y416773D02*
X1312967D01*
X1297246Y416986D02*
X1297459Y416773D01*
X1312967D02*
X1313180Y416560D01*
X1737628Y416986D02*
X1737923Y417281D01*
X1751543D01*
X1405491Y580325D02*
X1414968D01*
X1403016Y577850D02*
X1405491Y580325D01*
X1402080Y577850D02*
X1403016D01*
X1413663Y398251D02*
X1414780Y399368D01*
X1403250Y398251D02*
X1413663D01*
X1402588Y397589D02*
X1403250Y398251D01*
X1845484Y395684D02*
X1848352Y398552D01*
X1854346D01*
X1855162Y399368D01*
X1844548Y395684D02*
X1845484D01*
X1874548Y371868D02*
X1885696D01*
X1737610Y597943D02*
X1737624Y597930D01*
X1752332D01*
X1752346Y597916D01*
X1822718Y549388D02*
Y552571D01*
Y549388D02*
X1823974Y548132D01*
X1822718Y552571D02*
X1823904Y551385D01*
X1827884Y552571D02*
X1830338D01*
X1823904Y551385D02*
X1826698D01*
X1827884Y552571D01*
X1389974Y367452D02*
X1390142Y367284D01*
X1389974Y367452D02*
Y371614D01*
X1295402Y656731D02*
X1295902D01*
X1297132Y655501D01*
Y652205D02*
Y655501D01*
Y652205D02*
X1304248Y645089D01*
X1279908Y658231D02*
X1280186Y657953D01*
X1286318D01*
X1287540Y656731D01*
X1295402D01*
X1258062Y640588D02*
X1262302Y636348D01*
Y628517D02*
Y636348D01*
X1248628Y640588D02*
X1258062D01*
X1243840Y645376D02*
Y656731D01*
Y645376D02*
X1248628Y640588D01*
X1269410Y634179D02*
Y644449D01*
X1262128Y650481D02*
X1263378D01*
X1269410Y644449D01*
X1735324Y656731D02*
X1735824D01*
X1742936Y649619D01*
Y646577D02*
Y649619D01*
X1719830Y658231D02*
X1720108Y657953D01*
X1726240D01*
X1727462Y656731D01*
X1735324D01*
X1709586Y634179D02*
Y644195D01*
X1702050Y650481D02*
X1703300D01*
X1709586Y644195D01*
X1699152Y640987D02*
X1702478Y637661D01*
X1683762Y645164D02*
X1687939Y640987D01*
X1699152D01*
X1683762Y645164D02*
Y656731D01*
X1736104Y475774D02*
X1741466D01*
X1722110D02*
X1736104D01*
X1720610Y477274D02*
X1722110Y475774D01*
X1741466D02*
X1742954Y474286D01*
Y465620D02*
Y474286D01*
X1709604Y453222D02*
Y464000D01*
X1702830Y469524D02*
X1704080D01*
X1709604Y464000D01*
X1694814Y443972D02*
X1698644D01*
X1700132Y445460D02*
Y455005D01*
X1698644Y443972D02*
X1700132Y445460D01*
X1694084Y443242D02*
X1694814Y443972D01*
X1686272Y468865D02*
Y474544D01*
Y468865D02*
X1700132Y455005D01*
X1685042Y475774D02*
X1686272Y474544D01*
X1693850Y435976D02*
X1694084Y436210D01*
X1693850Y429230D02*
Y435508D01*
X1688358Y408170D02*
X1688592Y407936D01*
X1680946Y436504D02*
X1682672D01*
X1688358Y423738D02*
X1693850Y429230D01*
X1682934Y436766D02*
X1693060D01*
X1684542Y475774D02*
X1685042D01*
X1679716Y435274D02*
X1680946Y436504D01*
X1682672D02*
X1682934Y436766D01*
X1694084Y436210D02*
Y443242D01*
X1693060Y436766D02*
X1694084Y435742D01*
X1693850Y435508D02*
X1694084Y435742D01*
X1688358Y408170D02*
Y423738D01*
X1280712Y475774D02*
X1294706D01*
X1279212Y477274D02*
X1280712Y475774D01*
X1301084D02*
X1302572Y474286D01*
X1294706Y475774D02*
X1301084D01*
X1302572Y465620D02*
Y474286D01*
X1266634Y465572D02*
Y465572D01*
X1269181Y461203D02*
X1269222Y461161D01*
X1266634Y465572D02*
X1269181Y463025D01*
Y461203D02*
Y463025D01*
X1262682Y469524D02*
X1266634Y465572D01*
X1269222Y453222D02*
Y461161D01*
X1261432Y469524D02*
X1262682D01*
X1258526Y443972D02*
X1261062Y446508D01*
X1243076Y471679D02*
Y474064D01*
X1261062Y446508D02*
Y453693D01*
X1243076Y471679D02*
X1261062Y453693D01*
X1868180Y549777D02*
X1883646D01*
X1584960Y698298D02*
Y707644D01*
X1408176Y710438D02*
X1582166D01*
X1584960Y707644D01*
X1383284Y735330D02*
X1408176Y710438D01*
X1584880Y666670D02*
X1584960Y666750D01*
X1584880Y650650D02*
Y666670D01*
X1435182Y371868D02*
X1450902D01*
X1496382Y369210D02*
X1496918Y368674D01*
X1509302D01*
X1481156Y371614D02*
X1483560Y369210D01*
X1496382D01*
X1450902Y371868D02*
X1451156Y371614D01*
X1527302Y376174D02*
X1534668D01*
X1540256Y381762D01*
Y403418D01*
X1503308Y443484D02*
X1528064D01*
X1527302Y368674D02*
X1536312D01*
X1572006Y404368D01*
Y439710D01*
X1529276Y413752D02*
X1529922D01*
X1540256Y403418D01*
X1528064Y413752D02*
X1529276Y414964D01*
X1488306Y535796D02*
Y543943D01*
X1494030Y549667D01*
Y550167D01*
X1475502Y552825D02*
Y555365D01*
X1477280Y552825D02*
X1491372D01*
X1475502D02*
X1477280D01*
X1491372D02*
X1494030Y550167D01*
X1389636Y639035D02*
Y639066D01*
X1389888Y639318D01*
X1436118Y639667D02*
X1457357D01*
X1428494D02*
X1436118D01*
X1426210Y641951D02*
X1428494Y639667D01*
X1436116Y638302D02*
Y639665D01*
X1436118Y639667D01*
X1458468Y638556D02*
X1469644D01*
X1457357Y639667D02*
X1458468Y638556D01*
X1389126Y457708D02*
X1389634Y458216D01*
X1402658D01*
X1403350Y458908D01*
X1434660Y458710D02*
X1435408Y457962D01*
X1453896Y458724D02*
X1465580D01*
X1435408Y457962D02*
X1453134D01*
X1453896Y458724D01*
X1435100Y458216D02*
Y458270D01*
X1465580Y458724D02*
X1465834Y458978D01*
X1843274Y639425D02*
X1844882D01*
X1848612Y643155D01*
Y650494D01*
X1843167Y639318D02*
X1843274Y639425D01*
X1829304Y639035D02*
X1829587Y639318D01*
X1843167D01*
X1829304Y639035D02*
Y639060D01*
X1829308Y639064D01*
X1874520Y458470D02*
X1875028Y457962D01*
X1892300D01*
X1874266Y457708D02*
X1874280Y457722D01*
Y458710D01*
X1440688Y577342D02*
X1451505D01*
X1454152Y574695D01*
X1915696Y369210D02*
Y371868D01*
Y360218D02*
Y369210D01*
X1925724Y371868D02*
X1928382Y369210D01*
X1915696Y371868D02*
X1925724D01*
X1911840Y356362D02*
X1915696Y360218D01*
X1434354Y552825D02*
X1445502D01*
X1390162Y550184D02*
Y552571D01*
X1389380Y549402D02*
X1390162Y550184D01*
X1382918Y623936D02*
X1390944D01*
X1382268Y624586D02*
X1382918Y623936D01*
X1374883Y624605D02*
X1374902Y624586D01*
X1390944Y623936D02*
X1391594Y623285D01*
X1374902Y624586D02*
X1382268D01*
X1359800Y624623D02*
X1359819Y624605D01*
X1374883D01*
X1391406Y442328D02*
X1391603Y442525D01*
X1391082Y442652D02*
X1391406Y442328D01*
X1855144Y580325D02*
X1855315Y580497D01*
X1862536D01*
X1862707Y580668D01*
X1830215Y624840D02*
X1831770Y623285D01*
X1816862Y624840D02*
X1830215D01*
X1799976Y624623D02*
X1800084Y624732D01*
X1816754D01*
X1816862Y624840D01*
X1800339Y443321D02*
X1820581D01*
X1821250Y442652D01*
X1831464D01*
X1799994Y443666D02*
X1800339Y443321D01*
X1831464Y442652D02*
X1831788Y442328D01*
X1773174Y742188D02*
X1773508D01*
X1785112Y753792D01*
Y754634D01*
X1403350Y458908D02*
Y469900D01*
X1584200Y732440D02*
X1586230Y730410D01*
X1576420Y732440D02*
X1584200D01*
X1550924Y757936D02*
X1576420Y732440D01*
X1574650Y650880D02*
X1574880Y650650D01*
X1574650Y650880D02*
Y658999D01*
X1562100Y671550D02*
X1574650Y658999D01*
X1562100Y671550D02*
Y672084D01*
X1679216Y445274D02*
X1679716D01*
X1667544Y456946D02*
X1679216Y445274D01*
X1654302Y456946D02*
X1667544D01*
X1503620Y470096D02*
X1555122D01*
X1488631Y485585D02*
X1503172Y471044D01*
X1488631Y485585D02*
Y517471D01*
X1506474Y500126D02*
X1528050D01*
X1496194Y510406D02*
X1506474Y500126D01*
X1495806Y517796D02*
X1496194Y517408D01*
Y510406D02*
Y517408D01*
X1488306Y517796D02*
X1488631Y517471D01*
X1625490Y518558D02*
X1662938Y556006D01*
X1621172Y539449D02*
X1621218Y539495D01*
X1621172Y498492D02*
Y539449D01*
X1625490Y494428D02*
Y518558D01*
X1679716Y445274D02*
X1680216D01*
X1685684Y450742D01*
X1694084D01*
X1660144Y406146D02*
Y426348D01*
X1611122Y457096D02*
X1654152D01*
X1654302Y456946D01*
X1559814Y607314D02*
X1569650D01*
X1559560Y607568D02*
X1559814Y607314D01*
X1569880Y606650D02*
Y607084D01*
X1569650Y607314D02*
X1569880Y607084D01*
X1586582Y636138D02*
X1593053Y629666D01*
X1580110Y642609D02*
X1586582Y636138D01*
X1589880Y639436D02*
Y650650D01*
X1586582Y636138D02*
X1589880Y639436D01*
X1580110Y642609D02*
Y650420D01*
X1593053Y629666D02*
X1609344D01*
X1579880Y650650D02*
X1580110Y650420D01*
X1572754Y504698D02*
Y508698D01*
X1577490Y513434D01*
X1577512D01*
X1579000Y514922D01*
Y522732D01*
X1572754Y500698D02*
Y504698D01*
Y500698D02*
X1582012Y491440D01*
Y489104D02*
Y491440D01*
Y489104D02*
X1582674Y488442D01*
X1534264Y457096D02*
X1555122D01*
X1830356Y370046D02*
Y371614D01*
Y370046D02*
X1831340Y369062D01*
X1357884Y710438D02*
X1368806Y699516D01*
X1512640D02*
X1532426Y679730D01*
X1368806Y699516D02*
X1512640D01*
X1357884Y710438D02*
Y735330D01*
X1532426Y679730D02*
X1535176D01*
X1685678Y518146D02*
X1702964Y535432D01*
X1899745D02*
X1914480Y550167D01*
X1702964Y535432D02*
X1899745D01*
X1297434Y588043D02*
Y597943D01*
Y588043D02*
X1299386Y586091D01*
Y585591D02*
Y586091D01*
X1737610Y588043D02*
Y597943D01*
Y588043D02*
X1739562Y586091D01*
Y585591D02*
Y586091D01*
X1737628Y407086D02*
Y416986D01*
Y407086D02*
X1739580Y405134D01*
Y404634D02*
Y405134D01*
X1297246Y407086D02*
X1299198Y405134D01*
X1297246Y407086D02*
Y416986D01*
X1299198Y404634D02*
Y405134D01*
X1540256Y583436D02*
X1543050Y580642D01*
Y539750D02*
X1553972Y528828D01*
X1543050Y539750D02*
Y580642D01*
X1536192Y587500D02*
Y588000D01*
X1536168Y588024D02*
X1536192Y588000D01*
X1676908Y636778D02*
X1680210D01*
X1676654Y637032D02*
X1676908Y636778D01*
X1680210D02*
X1682750Y634238D01*
X1844040Y459216D02*
Y469392D01*
X1843292Y458468D02*
X1844040Y459216D01*
X1403098Y639425D02*
Y652528D01*
X1403350Y652780D01*
X1239012Y459232D02*
X1242822Y455422D01*
Y451612D02*
Y455422D01*
X1240028Y626231D02*
X1242314Y628517D01*
X1239266Y640418D02*
Y640588D01*
X1242314Y628517D02*
Y637370D01*
X1239266Y640418D02*
X1242314Y637370D01*
X1239522Y626231D02*
X1240028D01*
X1535176Y651230D02*
X1569650D01*
X1569880Y651000D01*
Y650650D02*
Y651000D01*
X1586230Y750410D02*
X1586484Y750156D01*
X1609090D01*
X1597660Y477195D02*
X1599760Y479294D01*
X1597660Y465248D02*
Y477195D01*
X1599760Y479294D02*
Y479294D01*
X1602050Y481584D01*
X1653008Y587524D02*
Y588024D01*
Y587524D02*
X1662938Y577594D01*
Y556006D02*
Y577594D01*
X1612646Y481584D02*
X1625490Y494428D01*
X1621218Y539495D02*
Y580452D01*
X1609852Y487172D02*
X1621172Y498492D01*
X1614146Y587524D02*
X1621218Y580452D01*
X1614146Y587524D02*
Y588024D01*
X1600200Y487172D02*
X1609852D01*
X1602050Y481584D02*
X1612646D01*
X1593342Y480314D02*
X1600200Y487172D01*
X1599312Y463596D02*
X1611122D01*
X1597660Y465248D02*
X1599312Y463596D01*
X1593342Y452564D02*
Y480314D01*
X1594830Y451076D02*
X1610642D01*
X1593342Y452564D02*
X1594830Y451076D01*
X1610642D02*
X1611122Y450596D01*
X1579880Y464566D02*
Y477738D01*
X1559880Y497738D02*
X1579880Y477738D01*
X1574880Y597560D02*
Y606650D01*
X1573392Y596072D02*
X1574880Y597560D01*
X1543764Y596072D02*
X1573392D01*
X1622122Y597408D02*
X1631506Y588024D01*
X1589880Y606650D02*
X1590110Y606420D01*
X1591598Y597408D02*
X1622122D01*
X1590110Y598896D02*
Y606420D01*
Y598896D02*
X1591598Y597408D01*
X1631506Y588024D02*
X1635506D01*
X1591374D02*
X1595374D01*
X1584880Y594518D02*
X1591374Y588024D01*
X1584880Y594518D02*
Y606650D01*
X1579880Y594850D02*
Y606650D01*
X1573530Y588500D02*
X1579880Y594850D01*
X1573530Y588000D02*
Y588500D01*
X1536192Y588000D02*
Y588500D01*
X1543764Y596072D01*
X1573530Y587500D02*
Y588000D01*
Y587500D02*
X1581150Y579880D01*
Y548429D02*
Y579880D01*
X1559880Y527159D02*
X1581150Y548429D01*
X1559880Y497738D02*
Y527159D01*
X1555122Y450596D02*
X1565910D01*
X1579880Y464566D01*
X1536192Y587500D02*
X1540256Y583436D01*
X1553972Y497332D02*
Y528828D01*
X1572514Y469392D02*
Y478790D01*
X1553972Y497332D02*
X1572514Y478790D01*
X1555122Y463596D02*
X1566718D01*
X1572514Y469392D01*
X1515618Y588024D02*
X1536168D01*
X1573506D02*
X1573530Y588000D01*
X1555750Y588024D02*
X1573506D01*
X1595374D02*
X1614146D01*
X1635506D02*
X1653008D01*
X1914480Y550167D02*
X1928364D01*
X1672102Y545032D02*
X1677448Y539687D01*
X1659584Y545032D02*
X1672102D01*
X1637538Y522986D02*
X1659584Y545032D01*
X1677448Y536876D02*
X1678178Y536146D01*
X1677448Y536876D02*
Y539687D01*
X1637538Y470798D02*
X1659128D01*
Y471298D01*
X1670050Y482220D01*
Y497586D01*
X1657096Y510540D02*
X1670050Y497586D01*
X1657096Y520446D02*
X1663192Y526542D01*
X1657096Y510540D02*
Y520446D01*
X1663192Y526542D02*
X1677885D01*
X1683948Y534416D02*
X1685678Y536146D01*
X1683948Y532606D02*
Y534416D01*
X1677885Y526542D02*
X1683948Y532606D01*
X1637538Y500140D02*
Y522986D01*
X1708270Y383674D02*
X1735582Y356362D01*
X1911840D01*
X1651000Y376174D02*
X1674512D01*
X1637284Y389890D02*
X1651000Y376174D01*
X1637284Y389890D02*
Y413752D01*
X1611122Y444096D02*
X1659396D01*
X1674512Y383674D02*
Y428480D01*
X1660144Y442848D02*
X1674512Y428480D01*
X1660144Y442848D02*
Y443348D01*
X1692512Y383674D02*
X1708270D01*
X1637284Y413752D02*
Y424942D01*
X1633538Y500140D02*
X1637538D01*
X1528050Y500126D02*
X1528064Y500140D01*
X1503172Y470544D02*
Y471044D01*
X1555122Y444096D02*
X1567620D01*
X1572006Y439710D01*
X1629808Y484268D02*
Y496410D01*
X1622136Y476596D02*
X1629808Y484268D01*
X1611122Y476596D02*
X1622136D01*
X1901856Y567167D02*
X1928364D01*
X1894328Y574695D02*
X1901856Y567167D01*
X1928364Y550167D02*
X1928488Y550043D01*
X1694066Y624199D02*
X1694796Y624929D01*
X1694066Y608929D02*
Y616699D01*
Y624199D01*
X1688574Y603437D02*
X1694066Y608929D01*
X1688574Y588893D02*
Y603437D01*
X1709586Y634179D02*
X1712066Y631699D01*
X1702478Y628517D02*
Y637661D01*
X1698890Y624929D02*
X1702478Y628517D01*
X1694796Y624929D02*
X1698890D01*
X1737610Y607943D02*
Y615991D01*
X1729402Y624199D02*
X1737610Y615991D01*
X1712066Y624199D02*
X1729402D01*
X1693832Y616465D02*
X1694066Y616699D01*
X1679932Y616465D02*
X1693832D01*
X1679698Y616231D02*
X1679932Y616465D01*
X1732032Y631123D02*
X1753476D01*
X1731954Y631045D02*
X1732032Y631123D01*
X1729668Y631045D02*
X1731954D01*
X1727078Y637623D02*
X1753476D01*
X1712066Y631699D02*
X1721154D01*
X1727078Y637623D01*
X1852520Y623285D02*
X1854270D01*
X1844682Y631123D02*
X1852520Y623285D01*
X1799976Y631123D02*
X1844682D01*
X1814684Y637623D02*
X1816096Y639035D01*
X1799976Y637623D02*
X1814684D01*
X1742936Y646577D02*
X1744424Y645089D01*
X1752510D01*
X1753476Y644123D01*
X1709604Y453222D02*
X1712084Y450742D01*
X1737628Y426986D02*
Y435034D01*
X1729420Y443242D02*
X1737628Y435034D01*
X1712084Y443242D02*
X1729420D01*
X1732050Y450166D02*
X1753494D01*
X1731972Y450088D02*
X1732050Y450166D01*
X1729686Y450088D02*
X1731972D01*
X1727096Y456666D02*
X1753494D01*
X1712084Y450742D02*
X1721172D01*
X1727096Y456666D01*
X1852538Y442328D02*
X1854288D01*
X1844700Y450166D02*
X1852538Y442328D01*
X1799994Y450166D02*
X1844700D01*
X1814702Y456666D02*
X1816114Y458078D01*
X1799994Y456666D02*
X1814702D01*
X1742954Y465620D02*
X1744442Y464132D01*
X1752528D01*
X1753494Y463166D01*
X1374320Y456666D02*
X1375732Y458078D01*
X1289038Y443242D02*
X1297246Y435034D01*
Y426986D02*
Y435034D01*
X1291668Y450166D02*
X1313112D01*
X1269222Y453222D02*
X1271702Y450742D01*
X1291590Y450088D02*
X1291668Y450166D01*
X1271702Y443242D02*
X1289038D01*
X1289304Y450088D02*
X1291590D01*
X1271702Y450742D02*
X1280790D01*
X1286714Y456666D01*
X1382685Y443321D02*
X1383354Y442652D01*
X1359612Y443666D02*
X1359957Y443321D01*
X1359612Y450166D02*
X1404318D01*
X1383354Y442652D02*
X1391082D01*
X1359957Y443321D02*
X1382685D01*
X1359612Y456666D02*
X1374320D01*
X1304060Y464132D02*
X1312146D01*
X1302572Y465620D02*
X1304060Y464132D01*
X1286714Y456666D02*
X1313112D01*
X1312146Y464132D02*
X1313112Y463166D01*
X1404318Y450166D02*
X1412156Y442328D01*
X1413906D01*
X1253702Y427972D02*
Y435742D01*
X1248210Y422480D02*
X1253702Y427972D01*
X1254432Y443972D02*
X1258526D01*
X1248210Y407936D02*
Y422480D01*
X1239568Y435508D02*
X1253468D01*
X1239334Y435274D02*
X1239568Y435508D01*
X1253702Y435742D02*
Y443242D01*
X1253468Y435508D02*
X1253702Y435742D01*
Y443242D02*
X1254432Y443972D01*
X1374508Y637623D02*
X1375920Y639035D01*
X1359800Y637623D02*
X1374508D01*
X1253890Y608929D02*
Y616699D01*
X1253656Y616465D02*
X1253890Y616699D01*
X1291856Y631123D02*
X1313300D01*
X1286902Y637623D02*
X1313300D01*
X1291778Y631045D02*
X1291856Y631123D01*
X1289492Y631045D02*
X1291778D01*
X1280978Y631699D02*
X1286902Y637623D01*
X1304248Y645089D02*
X1312334D01*
X1313300Y644123D01*
X1254620Y624929D02*
X1258714D01*
X1262302Y628517D01*
X1253890Y616699D02*
Y624199D01*
X1254620Y624929D01*
X1269410Y634179D02*
X1271890Y631699D01*
X1280978D01*
X1297434Y607943D02*
Y615991D01*
X1289226Y624199D02*
X1297434Y615991D01*
X1271890Y624199D02*
X1289226D01*
X1404506Y631123D02*
X1412344Y623285D01*
X1414094D01*
X1359800Y631123D02*
X1404506D01*
X1239522Y616231D02*
X1239756Y616465D01*
X1253656D01*
X1248398Y588893D02*
Y603437D01*
X1253890Y608929D01*
X1530038Y492818D02*
X1545780Y477076D01*
X1528064Y500140D02*
X1530038Y498166D01*
Y492818D02*
Y498166D01*
X1554642Y477076D02*
X1555122Y476596D01*
X1545780Y477076D02*
X1554642D01*
X1503172Y470544D02*
X1503620Y470096D01*
X1629808Y496410D02*
X1633538Y500140D01*
X1611122Y470096D02*
X1637494D01*
X1659396Y444096D02*
X1660144Y443348D01*
X1624630Y437596D02*
X1637284Y424942D01*
X1611122Y437596D02*
X1624630D01*
X1529276Y414964D02*
Y421074D01*
X1545431Y437229D01*
X1554755D01*
X1555122Y437596D01*
X1528064Y443752D02*
X1528408Y444096D01*
X1555122D01*
X1503172Y443348D02*
X1503308Y443484D01*
D72*
X1676654Y738378D02*
Y753364D01*
Y755556D01*
X1662731Y755603D02*
X1676607D01*
X1676654Y755556D01*
X1662684Y755650D02*
X1662731Y755603D01*
X1658796Y488130D02*
X1659128Y487798D01*
X1658796Y488130D02*
Y496394D01*
X1658620Y496570D02*
X1658796Y496394D01*
X1506846Y483870D02*
X1525778D01*
X1503172Y487044D02*
Y487544D01*
Y487044D02*
X1504632Y485584D01*
X1505132D01*
X1506846Y483870D01*
X1503172Y426348D02*
Y426848D01*
X1487170Y442850D02*
X1503172Y426848D01*
X1487170Y442850D02*
Y454914D01*
X1610868Y504444D02*
X1611122Y504698D01*
X1612392D01*
X1602754D02*
X1603008Y504444D01*
X1610868D01*
X1676654Y738378D02*
X1692672Y722360D01*
X1702422D01*
X1596000Y522732D02*
X1606368D01*
X1609344Y525708D01*
Y530812D01*
X1786382Y722630D02*
X1787144D01*
X1787652Y722122D01*
D73*
X1886331Y639191D02*
D03*
D74*
Y457835D02*
D03*
D75*
X1449960Y638556D02*
D03*
D76*
X1448435Y458343D02*
D03*
D77*
X1879981Y371856D02*
D03*
D78*
X1357884Y735330D02*
D03*
X1383284D02*
D03*
X1510284Y760730D02*
D03*
X1484884D02*
D03*
X1459484Y760730D02*
D03*
X1510284Y735330D02*
D03*
X1484884D02*
D03*
X1459484D02*
D03*
X1281684Y760730D02*
D03*
X1307084Y735330D02*
D03*
X1307084Y760730D02*
D03*
X1332484Y735330D02*
D03*
Y760730D02*
D03*
X1357884D02*
D03*
X1408684Y735330D02*
D03*
X1383284Y760730D02*
D03*
X1408684D02*
D03*
X1434084Y735330D02*
D03*
Y760730D02*
D03*
D79*
X1281684Y735330D02*
D03*
D80*
X1314196Y598424D02*
D03*
X1313180Y416560D02*
D03*
X1751543Y417281D02*
D03*
X1402080Y577850D02*
D03*
X1402588Y397589D02*
D03*
X1844548Y395684D02*
D03*
Y376174D02*
D03*
X1874548Y371868D02*
D03*
X1844294Y368808D02*
D03*
X1885696Y371868D02*
D03*
X1517650Y567944D02*
D03*
X1558290D02*
D03*
X1597406Y567436D02*
D03*
X1752346Y597916D02*
D03*
X1824228Y556768D02*
D03*
X1838452Y545338D02*
D03*
X1838960Y554736D02*
D03*
X1823974Y548132D02*
D03*
X1390142Y367284D02*
D03*
X1404874Y375158D02*
D03*
X1389888Y375412D02*
D03*
X1815222Y572383D02*
D03*
X1868180Y549777D02*
D03*
X1883646D02*
D03*
X1840738Y565658D02*
D03*
X1830578Y565912D02*
D03*
X1435182Y371868D02*
D03*
X1481156Y371614D02*
D03*
X1451156D02*
D03*
X1494028Y567436D02*
D03*
X1389888Y639318D02*
D03*
X1436116Y638302D02*
D03*
X1458468D02*
D03*
X1469644D02*
D03*
X1389126Y457708D02*
D03*
X1453134Y457962D02*
D03*
X1435100Y458216D02*
D03*
X1465834D02*
D03*
X1848612Y650494D02*
D03*
X1901444Y639064D02*
D03*
X1890776Y639318D02*
D03*
X1875028Y639064D02*
D03*
X1829308D02*
D03*
X1901444Y457962D02*
D03*
X1892300D02*
D03*
X1874266Y457708D02*
D03*
X1390396Y388112D02*
D03*
X1815592Y391668D02*
D03*
X1835404Y386334D02*
D03*
X1404874Y367284D02*
D03*
X1465326Y577088D02*
D03*
X1451102Y570992D02*
D03*
X1440688Y577342D02*
D03*
X1827290Y458078D02*
D03*
X1635506Y558024D02*
D03*
X1653032Y571000D02*
D03*
X1595374Y558024D02*
D03*
X1535430Y570366D02*
D03*
X1515618Y558024D02*
D03*
X1573530Y571000D02*
D03*
X1772920Y722630D02*
D03*
X1757172D02*
D03*
X1662684Y755650D02*
D03*
X1636014Y727710D02*
D03*
X1609090Y730156D02*
D03*
X1915696Y371868D02*
D03*
X1445502Y552825D02*
D03*
X1475502D02*
D03*
X1389380Y557022D02*
D03*
Y549402D02*
D03*
X1404874Y557022D02*
D03*
Y549402D02*
D03*
X1658620Y496570D02*
D03*
X1382268Y624586D02*
D03*
X1374902D02*
D03*
X1434354Y552825D02*
D03*
X1862707Y580668D02*
D03*
X1831770Y623285D02*
D03*
X1816862Y624840D02*
D03*
X1820926Y442976D02*
D03*
X1831788Y442328D02*
D03*
X1785112Y754634D02*
D03*
X1311910Y563372D02*
D03*
X1403350Y469900D02*
D03*
X1550924Y757936D02*
D03*
X1562100Y672084D02*
D03*
X1525778Y483870D02*
D03*
X1487170Y454914D02*
D03*
X1612392Y504698D02*
D03*
X1552956Y559054D02*
D03*
X1660144Y406146D02*
D03*
X1654302Y456946D02*
D03*
X1383122Y689864D02*
D03*
X1390396D02*
D03*
X1361302D02*
D03*
X1368575D02*
D03*
X1375849D02*
D03*
X1361302Y680974D02*
D03*
X1368575D02*
D03*
X1375849D02*
D03*
X1383122D02*
D03*
X1390396D02*
D03*
X1345022Y689864D02*
D03*
X1352296D02*
D03*
X1323201D02*
D03*
X1330475D02*
D03*
X1337749D02*
D03*
X1323201Y680974D02*
D03*
X1330475D02*
D03*
X1337749D02*
D03*
X1345022D02*
D03*
X1352296D02*
D03*
X1461354Y502412D02*
D03*
X1468628D02*
D03*
X1454081D02*
D03*
Y493014D02*
D03*
X1461354D02*
D03*
X1468628D02*
D03*
X1342274Y503428D02*
D03*
X1335001D02*
D03*
X1327727D02*
D03*
X1320454D02*
D03*
X1313180D02*
D03*
X1349548D02*
D03*
X1385916D02*
D03*
X1378643D02*
D03*
X1371369D02*
D03*
X1364095D02*
D03*
X1356822D02*
D03*
X1393190D02*
D03*
X1327727Y511556D02*
D03*
X1320454D02*
D03*
X1313180D02*
D03*
X1349548D02*
D03*
X1342274D02*
D03*
X1335001D02*
D03*
X1371369D02*
D03*
X1364095D02*
D03*
X1356822D02*
D03*
X1393190D02*
D03*
X1385916D02*
D03*
X1378643D02*
D03*
X1609344Y530812D02*
D03*
X1655318Y671576D02*
D03*
X1670050D02*
D03*
X1640586D02*
D03*
X1820349Y513588D02*
D03*
X1827622D02*
D03*
X1834896D02*
D03*
X1798528D02*
D03*
X1805801D02*
D03*
X1813075D02*
D03*
X1776707D02*
D03*
X1783981D02*
D03*
X1791254D02*
D03*
X1754886D02*
D03*
X1762160D02*
D03*
X1769433D02*
D03*
X1834896Y504190D02*
D03*
X1798528D02*
D03*
X1805801D02*
D03*
X1813075D02*
D03*
X1820349D02*
D03*
X1827622D02*
D03*
X1791254D02*
D03*
X1754886D02*
D03*
X1762160D02*
D03*
X1769433D02*
D03*
X1776707D02*
D03*
X1783981D02*
D03*
X1837182Y680466D02*
D03*
X1822450D02*
D03*
X1807718D02*
D03*
X1792986D02*
D03*
X1778254D02*
D03*
X1763522D02*
D03*
X1748790D02*
D03*
X1670050Y680720D02*
D03*
X1655318D02*
D03*
X1640586D02*
D03*
X1749044Y689102D02*
D03*
X1763734D02*
D03*
X1778423D02*
D03*
X1793113D02*
D03*
X1807802D02*
D03*
X1822492D02*
D03*
X1837182D02*
D03*
X1804416Y722630D02*
D03*
X1559560Y607568D02*
D03*
X1609344Y629666D02*
D03*
X1582674Y488442D02*
D03*
X1534264Y457096D02*
D03*
X1825956Y388863D02*
D03*
X1831340Y376169D02*
D03*
Y369051D02*
D03*
X1374858Y391426D02*
D03*
X1375046Y572383D02*
D03*
X1312164Y549910D02*
D03*
X1676654Y637032D02*
D03*
X1844040Y469392D02*
D03*
X1403350Y652780D02*
D03*
X1239012Y459232D02*
D03*
X1239266Y640588D02*
D03*
X1752092Y369062D02*
D03*
X1765046Y368808D02*
D03*
X1751838Y382524D02*
D03*
X1765046D02*
D03*
X1311148Y369316D02*
D03*
X1324102Y369062D02*
D03*
X1310894Y382778D02*
D03*
X1324102D02*
D03*
X1325118Y549656D02*
D03*
Y563372D02*
D03*
X1764284Y565404D02*
D03*
X1751076D02*
D03*
X1764284Y551688D02*
D03*
X1751330Y551942D02*
D03*
X1913310Y552813D02*
D03*
X1729668Y631045D02*
D03*
X1729686Y450088D02*
D03*
X1383030Y442976D02*
D03*
X1375137Y443070D02*
D03*
X1289304Y450088D02*
D03*
X1289492Y631045D02*
D03*
M02*
