G04*
G04 #@! TF.GenerationSoftware,Altium Limited,Altium Designer,23.4.1 (23)*
G04*
G04 Layer_Color=8388736*
%FSLAX44Y44*%
%MOMM*%
G71*
G04*
G04 #@! TF.SameCoordinates,D2C56FB1-3194-4FD5-B733-79DB95D4BDB6*
G04*
G04*
G04 #@! TF.FilePolarity,Negative*
G04*
G01*
G75*
%ADD15R,0.6000X0.6000*%
%ADD21R,1.0000X1.8000*%
%ADD25R,0.6000X0.5000*%
%ADD26R,0.6000X0.4000*%
%ADD27R,0.5200X0.5200*%
%ADD28R,0.8000X0.9000*%
%ADD31R,1.8000X1.0000*%
%ADD37R,0.9000X0.8000*%
%ADD38R,0.4000X0.6000*%
%ADD39R,0.5000X0.6000*%
%ADD40R,1.0000X0.7500*%
%ADD44R,1.0500X1.6000*%
G04:AMPARAMS|DCode=49|XSize=0.6532mm|YSize=1.7532mm|CornerRadius=0.1511mm|HoleSize=0mm|Usage=FLASHONLY|Rotation=90.000|XOffset=0mm|YOffset=0mm|HoleType=Round|Shape=RoundedRectangle|*
%AMROUNDEDRECTD49*
21,1,0.6532,1.4510,0,0,90.0*
21,1,0.3510,1.7532,0,0,90.0*
1,1,0.3022,0.7255,0.1755*
1,1,0.3022,0.7255,-0.1755*
1,1,0.3022,-0.7255,-0.1755*
1,1,0.3022,-0.7255,0.1755*
%
%ADD49ROUNDEDRECTD49*%
G04:AMPARAMS|DCode=50|XSize=1.9332mm|YSize=2.0532mm|CornerRadius=0.1535mm|HoleSize=0mm|Usage=FLASHONLY|Rotation=0.000|XOffset=0mm|YOffset=0mm|HoleType=Round|Shape=RoundedRectangle|*
%AMROUNDEDRECTD50*
21,1,1.9332,1.7462,0,0,0.0*
21,1,1.6262,2.0532,0,0,0.0*
1,1,0.3070,0.8131,-0.8731*
1,1,0.3070,-0.8131,-0.8731*
1,1,0.3070,-0.8131,0.8731*
1,1,0.3070,0.8131,0.8731*
%
%ADD50ROUNDEDRECTD50*%
%ADD51R,1.0532X1.1032*%
G04:AMPARAMS|DCode=52|XSize=1.15mm|YSize=1.35mm|CornerRadius=0.325mm|HoleSize=0mm|Usage=FLASHONLY|Rotation=270.000|XOffset=0mm|YOffset=0mm|HoleType=Round|Shape=RoundedRectangle|*
%AMROUNDEDRECTD52*
21,1,1.1500,0.7000,0,0,270.0*
21,1,0.5000,1.3500,0,0,270.0*
1,1,0.6500,-0.3500,-0.2500*
1,1,0.6500,-0.3500,0.2500*
1,1,0.6500,0.3500,0.2500*
1,1,0.6500,0.3500,-0.2500*
%
%ADD52ROUNDEDRECTD52*%
%ADD53R,1.8532X1.3032*%
%ADD54R,0.5032X1.6032*%
G04:AMPARAMS|DCode=55|XSize=1.1032mm|YSize=1.6532mm|CornerRadius=0.1511mm|HoleSize=0mm|Usage=FLASHONLY|Rotation=180.000|XOffset=0mm|YOffset=0mm|HoleType=Round|Shape=RoundedRectangle|*
%AMROUNDEDRECTD55*
21,1,1.1032,1.3510,0,0,180.0*
21,1,0.8010,1.6532,0,0,180.0*
1,1,0.3022,-0.4005,0.6755*
1,1,0.3022,0.4005,0.6755*
1,1,0.3022,0.4005,-0.6755*
1,1,0.3022,-0.4005,-0.6755*
%
%ADD55ROUNDEDRECTD55*%
G04:AMPARAMS|DCode=56|XSize=3.3532mm|YSize=1.6532mm|CornerRadius=0.1524mm|HoleSize=0mm|Usage=FLASHONLY|Rotation=180.000|XOffset=0mm|YOffset=0mm|HoleType=Round|Shape=RoundedRectangle|*
%AMROUNDEDRECTD56*
21,1,3.3532,1.3485,0,0,180.0*
21,1,3.0485,1.6532,0,0,180.0*
1,1,0.3047,-1.5243,0.6743*
1,1,0.3047,1.5243,0.6743*
1,1,0.3047,1.5243,-0.6743*
1,1,0.3047,-1.5243,-0.6743*
%
%ADD56ROUNDEDRECTD56*%
G04:AMPARAMS|DCode=57|XSize=1.8032mm|YSize=2.4032mm|CornerRadius=0.5016mm|HoleSize=0mm|Usage=FLASHONLY|Rotation=0.000|XOffset=0mm|YOffset=0mm|HoleType=Round|Shape=RoundedRectangle|*
%AMROUNDEDRECTD57*
21,1,1.8032,1.4000,0,0,0.0*
21,1,0.8000,2.4032,0,0,0.0*
1,1,1.0032,0.4000,-0.7000*
1,1,1.0032,-0.4000,-0.7000*
1,1,1.0032,-0.4000,0.7000*
1,1,1.0032,0.4000,0.7000*
%
%ADD57ROUNDEDRECTD57*%
%ADD58R,1.8032X2.4032*%
%ADD59R,0.6000X0.6000*%
%ADD60R,1.1532X0.8032*%
%ADD61R,5.5032X2.2032*%
%ADD62R,1.7232X1.8832*%
%ADD63R,1.3032X1.5532*%
%ADD64R,1.1032X1.0532*%
%ADD65R,1.6000X0.3500*%
%ADD66R,1.7272X1.7272*%
%ADD67R,1.3500X1.1500*%
%ADD68C,1.8032*%
G04:AMPARAMS|DCode=69|XSize=1.8032mm|YSize=1.8032mm|CornerRadius=0.5016mm|HoleSize=0mm|Usage=FLASHONLY|Rotation=0.000|XOffset=0mm|YOffset=0mm|HoleType=Round|Shape=RoundedRectangle|*
%AMROUNDEDRECTD69*
21,1,1.8032,0.8000,0,0,0.0*
21,1,0.8000,1.8032,0,0,0.0*
1,1,1.0032,0.4000,-0.4000*
1,1,1.0032,-0.4000,-0.4000*
1,1,1.0032,-0.4000,0.4000*
1,1,1.0032,0.4000,0.4000*
%
%ADD69ROUNDEDRECTD69*%
%ADD70C,0.8032*%
D15*
X1509302Y368674D02*
D03*
Y383674D02*
D03*
X1527302D02*
D03*
Y368674D02*
D03*
X1712084Y435742D02*
D03*
Y450742D02*
D03*
X1694084D02*
D03*
Y435742D02*
D03*
X1271702D02*
D03*
Y450742D02*
D03*
X1253702D02*
D03*
Y435742D02*
D03*
X1271890Y616699D02*
D03*
Y631699D02*
D03*
X1253890D02*
D03*
Y616699D02*
D03*
X1712066D02*
D03*
Y631699D02*
D03*
X1694066D02*
D03*
Y616699D02*
D03*
X1692512Y383674D02*
D03*
Y368674D02*
D03*
X1674512D02*
D03*
Y383674D02*
D03*
D21*
X1874548Y371868D02*
D03*
X1844548D02*
D03*
X1915696D02*
D03*
X1885696D02*
D03*
X1434354Y552825D02*
D03*
X1404354D02*
D03*
X1572754Y504698D02*
D03*
X1602754D02*
D03*
X1688592Y407936D02*
D03*
X1718592D02*
D03*
X1248210D02*
D03*
X1278210D02*
D03*
X1451156Y371614D02*
D03*
X1481156D02*
D03*
X1405182Y371868D02*
D03*
X1435182D02*
D03*
X1248398Y588893D02*
D03*
X1278398D02*
D03*
X1447280Y552825D02*
D03*
X1477280D02*
D03*
X1883646Y549777D02*
D03*
X1913646D02*
D03*
X1688574Y588893D02*
D03*
X1718574D02*
D03*
X1838180Y549777D02*
D03*
X1868180D02*
D03*
D25*
X1243144Y475774D02*
D03*
Y485774D02*
D03*
X1295402Y666731D02*
D03*
Y656731D02*
D03*
X1679716Y445274D02*
D03*
Y435274D02*
D03*
X1737628Y416986D02*
D03*
Y426986D02*
D03*
X1684542Y485774D02*
D03*
Y475774D02*
D03*
X1736104D02*
D03*
Y485774D02*
D03*
X1855162Y399368D02*
D03*
Y409368D02*
D03*
X1239334Y445274D02*
D03*
Y435274D02*
D03*
X1297246Y416986D02*
D03*
Y426986D02*
D03*
X1294706Y475774D02*
D03*
Y485774D02*
D03*
X1414780Y399368D02*
D03*
Y409368D02*
D03*
X1239522Y626231D02*
D03*
Y616231D02*
D03*
X1297434Y597943D02*
D03*
Y607943D02*
D03*
X1243840Y666731D02*
D03*
Y656731D02*
D03*
X1414968Y580325D02*
D03*
Y590325D02*
D03*
X1679698Y626231D02*
D03*
Y616231D02*
D03*
X1737610Y597943D02*
D03*
Y607943D02*
D03*
X1683762Y666731D02*
D03*
Y656731D02*
D03*
X1735324D02*
D03*
Y666731D02*
D03*
X1855144Y580325D02*
D03*
Y590325D02*
D03*
D26*
X1509302Y376174D02*
D03*
X1527302D02*
D03*
X1712084Y443242D02*
D03*
X1694084D02*
D03*
X1271702D02*
D03*
X1253702D02*
D03*
X1271890Y624199D02*
D03*
X1253890D02*
D03*
X1712066D02*
D03*
X1694066D02*
D03*
X1692512Y376174D02*
D03*
X1674512D02*
D03*
D27*
X1279908Y666231D02*
D03*
Y658231D02*
D03*
X1720610Y477274D02*
D03*
Y485274D02*
D03*
X1279212Y477274D02*
D03*
Y485274D02*
D03*
X1719830Y658231D02*
D03*
Y666231D02*
D03*
D28*
X1494030Y567167D02*
D03*
Y550167D02*
D03*
X1535430Y587366D02*
D03*
Y570366D02*
D03*
X1573530Y588000D02*
D03*
Y571000D02*
D03*
X1614170Y588000D02*
D03*
Y571000D02*
D03*
X1653032Y588000D02*
D03*
Y571000D02*
D03*
X1928382Y369210D02*
D03*
Y386210D02*
D03*
X1496382Y369210D02*
D03*
Y386210D02*
D03*
X1928872Y547119D02*
D03*
Y564119D02*
D03*
X1503172Y426348D02*
D03*
Y443348D02*
D03*
Y487544D02*
D03*
Y470544D02*
D03*
X1660144Y443348D02*
D03*
Y426348D02*
D03*
X1659128Y470798D02*
D03*
Y487798D02*
D03*
D31*
X1515618Y588024D02*
D03*
Y558024D02*
D03*
X1555750Y588024D02*
D03*
Y558024D02*
D03*
X1595374Y588024D02*
D03*
Y558024D02*
D03*
X1635506Y588024D02*
D03*
Y558024D02*
D03*
X1848880Y488468D02*
D03*
Y458468D02*
D03*
X1409260Y488468D02*
D03*
Y458468D02*
D03*
X1410210Y669425D02*
D03*
Y639425D02*
D03*
X1849624Y669425D02*
D03*
Y639425D02*
D03*
X1528064Y470140D02*
D03*
Y500140D02*
D03*
Y443752D02*
D03*
Y413752D02*
D03*
X1637284Y443752D02*
D03*
Y413752D02*
D03*
X1637538Y470140D02*
D03*
Y500140D02*
D03*
D37*
X1579000Y522732D02*
D03*
X1596000D02*
D03*
D38*
X1495806Y517796D02*
D03*
Y535796D02*
D03*
X1678178Y536146D02*
D03*
Y518146D02*
D03*
D39*
X1729580Y404634D02*
D03*
X1739580D02*
D03*
X1289198D02*
D03*
X1299198D02*
D03*
X1289386Y585591D02*
D03*
X1299386D02*
D03*
X1729562D02*
D03*
X1739562D02*
D03*
D40*
X1702830Y469524D02*
D03*
Y484524D02*
D03*
X1261432Y469524D02*
D03*
Y484524D02*
D03*
X1262128Y650481D02*
D03*
Y665481D02*
D03*
X1702050Y650481D02*
D03*
Y665481D02*
D03*
D44*
X1830356Y371614D02*
D03*
X1800856D02*
D03*
X1389974D02*
D03*
X1360474D02*
D03*
X1390162Y552571D02*
D03*
X1360662D02*
D03*
X1822718D02*
D03*
X1793218D02*
D03*
D49*
X1753494Y463166D02*
D03*
X1799994D02*
D03*
Y456666D02*
D03*
Y450166D02*
D03*
Y443666D02*
D03*
X1753494Y456666D02*
D03*
Y450166D02*
D03*
Y443666D02*
D03*
X1313112D02*
D03*
Y450166D02*
D03*
Y456666D02*
D03*
X1359612Y443666D02*
D03*
Y450166D02*
D03*
Y456666D02*
D03*
Y463166D02*
D03*
X1313112D02*
D03*
X1313300Y624623D02*
D03*
Y631123D02*
D03*
Y637623D02*
D03*
X1359800Y624623D02*
D03*
Y631123D02*
D03*
Y637623D02*
D03*
Y644123D02*
D03*
X1313300D02*
D03*
X1753476Y624623D02*
D03*
Y631123D02*
D03*
Y637623D02*
D03*
X1799976Y624623D02*
D03*
Y631123D02*
D03*
Y637623D02*
D03*
Y644123D02*
D03*
X1753476Y644123D02*
D03*
D50*
X1776744Y453416D02*
D03*
X1336362D02*
D03*
X1336550Y634373D02*
D03*
X1776726D02*
D03*
D51*
X1357086Y488200D02*
D03*
X1344086D02*
D03*
X1784468Y477786D02*
D03*
X1797468D02*
D03*
X1784468Y488200D02*
D03*
X1797468D02*
D03*
X1344086Y477786D02*
D03*
X1357086D02*
D03*
X1344274Y658743D02*
D03*
X1357274D02*
D03*
X1344274Y669157D02*
D03*
X1357274D02*
D03*
X1784450Y658743D02*
D03*
X1797450D02*
D03*
X1784450Y669157D02*
D03*
X1797450D02*
D03*
D52*
X1676654Y775556D02*
D03*
Y755556D02*
D03*
X1773174Y742188D02*
D03*
Y722188D02*
D03*
X1609090Y750156D02*
D03*
Y730156D02*
D03*
X1586230Y730410D02*
D03*
D53*
X1535176Y679730D02*
D03*
Y651230D02*
D03*
X1874280Y458710D02*
D03*
Y487210D02*
D03*
X1434660Y458710D02*
D03*
Y487210D02*
D03*
X1436118Y639667D02*
D03*
Y668167D02*
D03*
X1874770Y639667D02*
D03*
Y668167D02*
D03*
X1584960Y669798D02*
D03*
Y698298D02*
D03*
D54*
X1589880Y606650D02*
D03*
X1584880D02*
D03*
X1579880D02*
D03*
X1574880D02*
D03*
X1569880D02*
D03*
Y650650D02*
D03*
X1574880D02*
D03*
X1579880D02*
D03*
X1584880D02*
D03*
X1589880D02*
D03*
D55*
X1702422Y722360D02*
D03*
X1725422D02*
D03*
X1748422D02*
D03*
D56*
X1725422Y783860D02*
D03*
D57*
X1805686Y722982D02*
D03*
D58*
Y766982D02*
D03*
D59*
X1488306Y517796D02*
D03*
X1503306D02*
D03*
Y535796D02*
D03*
X1488306D02*
D03*
X1685678Y536146D02*
D03*
X1670678D02*
D03*
Y518146D02*
D03*
X1685678D02*
D03*
D60*
X1831788Y442328D02*
D03*
Y432828D02*
D03*
Y423328D02*
D03*
X1854288Y442328D02*
D03*
Y432828D02*
D03*
Y423328D02*
D03*
X1391406Y442328D02*
D03*
Y432828D02*
D03*
Y423328D02*
D03*
X1413906Y442328D02*
D03*
Y432828D02*
D03*
Y423328D02*
D03*
X1391594Y623285D02*
D03*
Y613785D02*
D03*
Y604285D02*
D03*
X1414094Y623285D02*
D03*
Y613785D02*
D03*
Y604285D02*
D03*
X1831770Y623285D02*
D03*
X1831770Y613785D02*
D03*
X1831770Y604285D02*
D03*
X1854270Y623285D02*
D03*
Y613785D02*
D03*
Y604285D02*
D03*
D61*
X1894346Y393738D02*
D03*
Y428738D02*
D03*
X1453964Y393738D02*
D03*
Y428738D02*
D03*
X1454152Y574695D02*
D03*
Y609695D02*
D03*
X1894328Y574695D02*
D03*
Y609695D02*
D03*
D62*
X1810272Y417588D02*
D03*
X1776272D02*
D03*
X1369890D02*
D03*
X1335890D02*
D03*
X1370078Y598545D02*
D03*
X1336078D02*
D03*
X1810254D02*
D03*
X1776254D02*
D03*
D63*
X1801240Y391426D02*
D03*
X1815240D02*
D03*
X1360858D02*
D03*
X1374858D02*
D03*
X1361046Y572383D02*
D03*
X1375046D02*
D03*
X1801222D02*
D03*
X1815222D02*
D03*
D64*
X1828814Y458078D02*
D03*
Y471078D02*
D03*
X1816114Y458078D02*
D03*
Y471078D02*
D03*
X1389194Y458078D02*
D03*
Y471078D02*
D03*
X1375732Y458078D02*
D03*
Y471078D02*
D03*
X1389636Y639035D02*
D03*
Y652035D02*
D03*
X1375920Y639035D02*
D03*
Y652035D02*
D03*
X1829304Y639035D02*
D03*
Y652035D02*
D03*
X1816096Y639035D02*
D03*
Y652035D02*
D03*
D65*
X1555122Y476596D02*
D03*
Y470096D02*
D03*
Y463596D02*
D03*
Y457096D02*
D03*
Y450596D02*
D03*
Y444096D02*
D03*
Y437596D02*
D03*
X1611122D02*
D03*
Y444096D02*
D03*
Y450596D02*
D03*
Y457096D02*
D03*
Y463596D02*
D03*
Y470096D02*
D03*
Y476596D02*
D03*
D66*
X1635760Y728091D02*
D03*
Y762381D02*
D03*
D67*
X1586230Y750410D02*
D03*
D68*
X1357884Y735330D02*
D03*
X1383284D02*
D03*
X1510284Y760730D02*
D03*
X1484884D02*
D03*
X1459484Y760730D02*
D03*
X1510284Y735330D02*
D03*
X1484884D02*
D03*
X1459484D02*
D03*
X1281684Y760730D02*
D03*
X1307084Y735330D02*
D03*
X1307084Y760730D02*
D03*
X1332484Y735330D02*
D03*
Y760730D02*
D03*
X1357884D02*
D03*
X1408684Y735330D02*
D03*
X1383284Y760730D02*
D03*
X1408684D02*
D03*
X1434084Y735330D02*
D03*
Y760730D02*
D03*
D69*
X1281684Y735330D02*
D03*
D70*
X1314196Y598424D02*
D03*
X1313180Y416560D02*
D03*
X1751543Y417281D02*
D03*
X1402080Y577850D02*
D03*
X1402588Y397589D02*
D03*
X1844548Y395684D02*
D03*
Y376174D02*
D03*
X1874548Y371868D02*
D03*
X1844294Y368808D02*
D03*
X1885696Y371868D02*
D03*
X1517650Y567944D02*
D03*
X1558290D02*
D03*
X1597406Y567436D02*
D03*
X1752346Y597916D02*
D03*
X1824228Y556768D02*
D03*
X1838452Y545338D02*
D03*
X1838960Y554736D02*
D03*
X1823974Y548132D02*
D03*
X1390142Y367284D02*
D03*
X1404874Y375158D02*
D03*
X1389888Y375412D02*
D03*
X1815222Y572383D02*
D03*
X1868180Y549777D02*
D03*
X1883646D02*
D03*
X1840738Y565658D02*
D03*
X1830578Y565912D02*
D03*
X1435182Y371868D02*
D03*
X1481156Y371614D02*
D03*
X1451156D02*
D03*
X1494028Y567436D02*
D03*
X1389888Y639318D02*
D03*
X1436116Y638302D02*
D03*
X1458468D02*
D03*
X1469644D02*
D03*
X1389126Y457708D02*
D03*
X1453134Y457962D02*
D03*
X1435100Y458216D02*
D03*
X1465834D02*
D03*
X1848612Y650494D02*
D03*
X1901444Y639064D02*
D03*
X1890776Y639318D02*
D03*
X1875028Y639064D02*
D03*
X1829308D02*
D03*
X1901444Y457962D02*
D03*
X1892300D02*
D03*
X1874266Y457708D02*
D03*
X1390396Y388112D02*
D03*
X1815592Y391668D02*
D03*
X1835404Y386334D02*
D03*
X1404874Y367284D02*
D03*
X1465326Y577088D02*
D03*
X1451102Y570992D02*
D03*
X1440688Y577342D02*
D03*
X1827290Y458078D02*
D03*
X1635506Y558024D02*
D03*
X1653032Y571000D02*
D03*
X1595374Y558024D02*
D03*
X1535430Y570366D02*
D03*
X1515618Y558024D02*
D03*
X1573530Y571000D02*
D03*
X1772920Y722630D02*
D03*
X1757172D02*
D03*
X1662684Y755650D02*
D03*
X1636014Y727710D02*
D03*
X1609090Y730156D02*
D03*
X1915696Y371868D02*
D03*
X1445502Y552825D02*
D03*
X1475502D02*
D03*
X1389380Y557022D02*
D03*
Y549402D02*
D03*
X1404874Y557022D02*
D03*
Y549402D02*
D03*
X1658620Y496570D02*
D03*
X1382268Y624586D02*
D03*
X1374902D02*
D03*
X1434354Y552825D02*
D03*
X1862707Y580668D02*
D03*
X1831770Y623285D02*
D03*
X1816862Y624840D02*
D03*
X1820926Y442976D02*
D03*
X1831788Y442328D02*
D03*
X1785112Y754634D02*
D03*
X1311910Y563372D02*
D03*
X1403350Y469900D02*
D03*
X1550924Y757936D02*
D03*
X1562100Y672084D02*
D03*
X1525778Y483870D02*
D03*
X1487170Y454914D02*
D03*
X1612392Y504698D02*
D03*
X1552956Y559054D02*
D03*
X1660144Y406146D02*
D03*
X1654302Y456946D02*
D03*
X1461354Y502412D02*
D03*
X1468628D02*
D03*
X1454081D02*
D03*
Y493014D02*
D03*
X1461354D02*
D03*
X1468628D02*
D03*
X1609344Y530812D02*
D03*
X1804416Y722630D02*
D03*
X1559560Y607568D02*
D03*
X1609344Y629666D02*
D03*
X1582674Y488442D02*
D03*
X1534264Y457096D02*
D03*
X1825956Y388863D02*
D03*
X1831340Y376169D02*
D03*
Y369051D02*
D03*
X1374858Y391426D02*
D03*
X1375046Y572383D02*
D03*
X1312164Y549910D02*
D03*
X1676654Y637032D02*
D03*
X1844040Y469392D02*
D03*
X1403350Y652780D02*
D03*
X1239012Y459232D02*
D03*
X1239266Y640588D02*
D03*
X1752092Y369062D02*
D03*
X1765046Y368808D02*
D03*
X1751838Y382524D02*
D03*
X1765046D02*
D03*
X1311148Y369316D02*
D03*
X1324102Y369062D02*
D03*
X1310894Y382778D02*
D03*
X1324102D02*
D03*
X1325118Y549656D02*
D03*
Y563372D02*
D03*
X1764284Y565404D02*
D03*
X1751076D02*
D03*
X1764284Y551688D02*
D03*
X1751330Y551942D02*
D03*
X1913310Y552813D02*
D03*
X1729668Y631045D02*
D03*
X1729686Y450088D02*
D03*
X1383030Y442976D02*
D03*
X1375137Y443070D02*
D03*
X1289304Y450088D02*
D03*
X1289492Y631045D02*
D03*
M02*
