M48
;Layer_Color=9474304
;FILE_FORMAT=4:4
METRIC,LZ
;TYPE=PLATED
T1F00S00C0.3000
T2F00S00C1.1000
%
T01
X01311148Y00369316
X01324102Y00369062
Y00382778
X01310894
X01374858Y00391426
X01390396Y00388112
X01389888Y00375412
X01390142Y00367284
X01404874
Y00375158
X01435182Y00371868
X01451156Y00371614
X01481156
X01752092Y00369062
X01765046Y00368808
Y00382524
X01751838
X01815592Y00391668
X01825956Y00388863
X01835404Y00386334
X0183134Y00376169
Y00369051
X01844294Y00368808
X01844548Y00376174
Y00395684
X01874548Y00371868
X01885696
X01915696
X01901444Y00457962
X018923
X01874266Y00457708
X0184404Y00469392
X0182729Y00458078
X01831788Y00442328
X01820926Y00442976
X01820349Y0050419
X01813075
X01805801
X01798528
X01791254
X01783981
X01776707
X01769433
X0176216
X01754886
Y00513588
X0176216
X01769433
X01776707
X01783981
X01791254
X01798528
X01805801
X01813075
X01820349
X01827622
X01834896
Y0050419
X01827622
X01823974Y00548132
X01824228Y00556768
X01830578Y00565912
X01840738Y00565658
X0183896Y00554736
X01838452Y00545338
X0186818Y00549777
X01883646
X0191331Y00552813
X01862707Y00580668
X01815222Y00572383
X01816862Y0062484
X0183177Y00623285
X01829308Y00639064
X01848612Y00650494
X01875028Y00639064
X01890776Y00639318
X01901444Y00639064
X01837182Y00680466
X01837182Y00689102
X01822492
X0182245Y00680466
X01807718
X01807802Y00689102
X01793113
X01792986Y00680466
X01778254
X01778423Y00689102
X01763734
X01763522Y00680466
X0174879
X01749044Y00689102
X01757172Y0072263
X0177292
X01804416
X01785112Y00754634
X01662684Y0075565
X01636014Y0072771
X0160909Y00730156
X01640586Y0068072
Y00671576
X01655318
Y0068072
X0167005
Y00671576
X01676654Y00637032
X01729668Y00631045
X01752346Y00597916
X01751076Y00565404
X01764284
Y00551688
X0175133Y00551942
X01653032Y00571
X01635506Y00558024
X01595374
X01597406Y00567436
X01609344Y00530812
X01612392Y00504698
X0165862Y0049657
X01654302Y00456946
X01660144Y00406146
X01751543Y00417281
X01729686Y00450088
X01609344Y00629666
X0155956Y00607568
X0155829Y00567944
X01552956Y00559054
X0153543Y00570366
X0151765Y00567944
X01515618Y00558024
X01494028Y00567436
X01475502Y00552825
X01445502
X01434354
X01440688Y00577342
X01451102Y00570992
X01465326Y00577088
X0140208Y0057785
X01404874Y00557022
Y00549402
X0138938
Y00557022
X01375046Y00572383
X01374902Y00624586
X01382268
X01389888Y00639318
X0140335Y0065278
X01390396Y00680974
X01383122
X01375849
X01368575
X01361302
Y00689864
X01368575
X01375849
X01383122
X01390396
X01352296
X01345022
X01337749
X01330475
X01323201
Y00680974
X01330475
X01337749
X01345022
X01352296
X01289492Y00631045
X01314196Y00598424
X0131191Y00563372
X01325118
Y00549656
X01312164Y0054991
X0131318Y00511556
X01320454
X01327727
X01335001
X01342274
X01349548
X01356822
X01364095
X01371369
X01378643
X01385916
X0139319
Y00503428
X01385916
X01378643
X01371369
X01364095
X01356822
X01349548
X01342274
X01335001
X01327727
X01320454
X0131318
X01289304Y00450088
X0131318Y0041656
X01375137Y0044307
X0138303Y00442976
X01389126Y00457708
X0140335Y004699
X014351Y00458216
X01453134Y00457962
X01465834Y00458216
X0148717Y00454914
X01534264Y00457096
X01525778Y0048387
X01582674Y00488442
X0157353Y00571
X015621Y00672084
X01550924Y00757936
X01469644Y00638302
X01458468
X01436116
X01454081Y00502412
X01461354
X01468628
Y00493014
X01461354
X01454081
X01402588Y00397589
X01239012Y00459232
X01239266Y00640588
T02
X01281684Y0073533
Y0076073
X01307084
X01332484Y0076073
Y0073533
X01357884
X01383284
X01408684
X01434084
X01459484
Y0076073
X01484884Y0076073
X01510284
Y0073533
X01484884
X01434084Y0076073
X01408684Y0076073
X01383284
X01357884Y0076073
X01307084Y0073533
M30
