G04*
G04 #@! TF.GenerationSoftware,Altium Limited,Altium Designer,23.4.1 (23)*
G04*
G04 Layer_Color=0*
%FSLAX44Y44*%
%MOMM*%
G71*
G04*
G04 #@! TF.SameCoordinates,D2C56FB1-3194-4FD5-B733-79DB95D4BDB6*
G04*
G04*
G04 #@! TF.FilePolarity,Positive*
G04*
G01*
G75*
%ADD84C,0.1000*%
D84*
X1859548Y366868D02*
Y376868D01*
X1854548Y371868D02*
X1864548D01*
X1238144Y480774D02*
X1248144D01*
X1243144Y475774D02*
Y485774D01*
X1518302Y371174D02*
Y381174D01*
X1513302Y376174D02*
X1523302D01*
X1274908Y662231D02*
X1284908D01*
X1279908Y657231D02*
Y667231D01*
X1290402Y661731D02*
X1300402D01*
X1295402Y656731D02*
Y666731D01*
X1489030Y558667D02*
X1499030D01*
X1494030Y553667D02*
Y563667D01*
X1900696Y366868D02*
Y376868D01*
X1895696Y371868D02*
X1905696D01*
X1419354Y547825D02*
Y557825D01*
X1414354Y552825D02*
X1424354D01*
X1535430Y573866D02*
Y583866D01*
X1530430Y578866D02*
X1540430D01*
X1515618Y568024D02*
Y578024D01*
X1510618Y573024D02*
X1520618D01*
X1573530Y574500D02*
Y584500D01*
X1568530Y579500D02*
X1578530D01*
X1555750Y568024D02*
Y578024D01*
X1550750Y573024D02*
X1560750D01*
X1595374Y568024D02*
Y578024D01*
X1590374Y573024D02*
X1600374D01*
X1614170Y574500D02*
Y584500D01*
X1609170Y579500D02*
X1619170D01*
X1653032Y574500D02*
Y584500D01*
X1648032Y579500D02*
X1658032D01*
X1635506Y568024D02*
Y578024D01*
X1630506Y573024D02*
X1640506D01*
X1582500Y522732D02*
X1592500D01*
X1587500Y517732D02*
Y527732D01*
X1582754Y504698D02*
X1592754D01*
X1587754Y499698D02*
Y509698D01*
X1495806Y521796D02*
Y531796D01*
X1490806Y526796D02*
X1500806D01*
X1678178Y522146D02*
Y532146D01*
X1673178Y527146D02*
X1683178D01*
X1679716Y435274D02*
Y445274D01*
X1674716Y440274D02*
X1684716D01*
X1729580Y404634D02*
X1739580D01*
X1734580Y399634D02*
Y409634D01*
X1737628Y416986D02*
Y426986D01*
X1732628Y421986D02*
X1742628D01*
X1684542Y475774D02*
Y485774D01*
X1679542Y480774D02*
X1689542D01*
X1702830Y472024D02*
Y482024D01*
X1697830Y477024D02*
X1707830D01*
X1928382Y372710D02*
Y382710D01*
X1923382Y377710D02*
X1933382D01*
X1736104Y475774D02*
Y485774D01*
X1731104Y480774D02*
X1741104D01*
X1855162Y399368D02*
Y409368D01*
X1850162Y404368D02*
X1860162D01*
X1698084Y443242D02*
X1708084D01*
X1703084Y438242D02*
Y448242D01*
X1698592Y407936D02*
X1708592D01*
X1703592Y402936D02*
Y412936D01*
X1810606Y371614D02*
X1820606D01*
X1815606Y366614D02*
Y376614D01*
X1848880Y468468D02*
Y478468D01*
X1843880Y473468D02*
X1853880D01*
X1720610Y476274D02*
Y486274D01*
X1715610Y481274D02*
X1725610D01*
X1239334Y435274D02*
Y445274D01*
X1234334Y440274D02*
X1244334D01*
X1289198Y404634D02*
X1299198D01*
X1294198Y399634D02*
Y409634D01*
X1297246Y416986D02*
Y426986D01*
X1292246Y421986D02*
X1302246D01*
X1261432Y472024D02*
Y482024D01*
X1256432Y477024D02*
X1266432D01*
X1496382Y372710D02*
Y382710D01*
X1491382Y377710D02*
X1501382D01*
X1294706Y475774D02*
Y485774D01*
X1289706Y480774D02*
X1299706D01*
X1414780Y399368D02*
Y409368D01*
X1409780Y404368D02*
X1419780D01*
X1257702Y443242D02*
X1267702D01*
X1262702Y438242D02*
Y448242D01*
X1258210Y407936D02*
X1268210D01*
X1263210Y402936D02*
Y412936D01*
X1461156Y371614D02*
X1471156D01*
X1466156Y366614D02*
Y376614D01*
X1370224Y371614D02*
X1380224D01*
X1375224Y366614D02*
Y376614D01*
X1409260Y468468D02*
Y478468D01*
X1404260Y473468D02*
X1414260D01*
X1415182Y371868D02*
X1425182D01*
X1420182Y366868D02*
Y376868D01*
X1279212Y476274D02*
Y486274D01*
X1274212Y481274D02*
X1284212D01*
X1239522Y616231D02*
Y626231D01*
X1234522Y621231D02*
X1244522D01*
X1289386Y585591D02*
X1299386D01*
X1294386Y580591D02*
Y590591D01*
X1297434Y597943D02*
Y607943D01*
X1292434Y602943D02*
X1302434D01*
X1243840Y656731D02*
Y666731D01*
X1238840Y661731D02*
X1248840D01*
X1262128Y652981D02*
Y662981D01*
X1257128Y657981D02*
X1267128D01*
X1414968Y580325D02*
Y590325D01*
X1409968Y585325D02*
X1419968D01*
X1257890Y624199D02*
X1267890D01*
X1262890Y619199D02*
Y629199D01*
X1258398Y588893D02*
X1268398D01*
X1263398Y583893D02*
Y593893D01*
X1457280Y552825D02*
X1467280D01*
X1462280Y547825D02*
Y557825D01*
X1370412Y552571D02*
X1380412D01*
X1375412Y547571D02*
Y557571D01*
X1410210Y649425D02*
Y659425D01*
X1405210Y654425D02*
X1415210D01*
X1578122Y457096D02*
X1588122D01*
X1583122Y452096D02*
Y462096D01*
X1893646Y549777D02*
X1903646D01*
X1898646Y544777D02*
Y554777D01*
X1679698Y616231D02*
Y626231D01*
X1674698Y621231D02*
X1684698D01*
X1729562Y585591D02*
X1739562D01*
X1734562Y580591D02*
Y590591D01*
X1737610Y597943D02*
Y607943D01*
X1732610Y602943D02*
X1742610D01*
X1683762Y656731D02*
Y666731D01*
X1678762Y661731D02*
X1688762D01*
X1702050Y652981D02*
Y662981D01*
X1697050Y657981D02*
X1707050D01*
X1928872Y550619D02*
Y560619D01*
X1923872Y555619D02*
X1933872D01*
X1735324Y656731D02*
Y666731D01*
X1730324Y661731D02*
X1740324D01*
X1855144Y580325D02*
Y590325D01*
X1850144Y585325D02*
X1860144D01*
X1698066Y624199D02*
X1708066D01*
X1703066Y619199D02*
Y629199D01*
X1698574Y588893D02*
X1708574D01*
X1703574Y583893D02*
Y593893D01*
X1802968Y552571D02*
X1812968D01*
X1807968Y547571D02*
Y557571D01*
X1849624Y649425D02*
Y659425D01*
X1844624Y654425D02*
X1854624D01*
X1848180Y549777D02*
X1858180D01*
X1853180Y544777D02*
Y554777D01*
X1719830Y657231D02*
Y667231D01*
X1714830Y662231D02*
X1724830D01*
X1503172Y429848D02*
Y439848D01*
X1498172Y434848D02*
X1508172D01*
X1503172Y474044D02*
Y484044D01*
X1498172Y479044D02*
X1508172D01*
X1523064Y485140D02*
X1533064D01*
X1528064Y480140D02*
Y490140D01*
X1523064Y428752D02*
X1533064D01*
X1528064Y423752D02*
Y433752D01*
X1683512Y371174D02*
Y381174D01*
X1678512Y376174D02*
X1688512D01*
X1632284Y428752D02*
X1642284D01*
X1637284Y423752D02*
Y433752D01*
X1655144Y434848D02*
X1665144D01*
X1660144Y429848D02*
Y439848D01*
X1632538Y485140D02*
X1642538D01*
X1637538Y480140D02*
Y490140D01*
X1654128Y479298D02*
X1664128D01*
X1659128Y474298D02*
Y484298D01*
M02*
