G04*
G04 #@! TF.GenerationSoftware,Altium Limited,Altium Designer,23.4.1 (23)*
G04*
G04 Layer_Color=128*
%FSLAX44Y44*%
%MOMM*%
G71*
G04*
G04 #@! TF.SameCoordinates,D2C56FB1-3194-4FD5-B733-79DB95D4BDB6*
G04*
G04*
G04 #@! TF.FilePolarity,Positive*
G04*
G01*
G75*
%ADD94C,0.1270*%
D94*
X1352384Y735330D02*
X1363384D01*
X1357884Y729830D02*
Y740830D01*
X1377784Y735330D02*
X1388784D01*
X1383284Y729830D02*
Y740830D01*
X1504784Y760730D02*
X1515784D01*
X1510284Y755230D02*
Y766230D01*
X1479384Y760730D02*
X1490384D01*
X1484884Y755230D02*
Y766230D01*
X1453984Y760730D02*
X1464984D01*
X1459484Y755230D02*
Y766230D01*
X1504784Y735330D02*
X1515784D01*
X1510284Y729830D02*
Y740830D01*
X1479384Y735330D02*
X1490384D01*
X1484884Y729830D02*
Y740830D01*
X1453984Y735330D02*
X1464984D01*
X1459484Y729830D02*
Y740830D01*
X1276184Y735330D02*
X1287184D01*
X1281684Y729830D02*
Y740830D01*
X1276184Y760730D02*
X1287184D01*
X1281684Y755230D02*
Y766230D01*
X1301584Y735330D02*
X1312584D01*
X1307084Y729830D02*
Y740830D01*
X1301584Y760730D02*
X1312584D01*
X1307084Y755230D02*
Y766230D01*
X1326984Y735330D02*
X1337984D01*
X1332484Y729830D02*
Y740830D01*
X1326984Y760730D02*
X1337984D01*
X1332484Y755230D02*
Y766230D01*
X1352384Y760730D02*
X1363384D01*
X1357884Y755230D02*
Y766230D01*
X1403184Y735330D02*
X1414184D01*
X1408684Y729830D02*
Y740830D01*
X1377784Y760730D02*
X1388784D01*
X1383284Y755230D02*
Y766230D01*
X1403184Y760730D02*
X1414184D01*
X1408684Y755230D02*
Y766230D01*
X1428584Y735330D02*
X1439584D01*
X1434084Y729830D02*
Y740830D01*
X1428584Y760730D02*
X1439584D01*
X1434084Y755230D02*
Y766230D01*
X1312696Y598424D02*
X1315696D01*
X1314196Y596924D02*
Y599924D01*
X1311680Y416560D02*
X1314680D01*
X1313180Y415060D02*
Y418060D01*
X1750043Y417281D02*
X1753043D01*
X1751543Y415781D02*
Y418781D01*
X1400580Y577850D02*
X1403580D01*
X1402080Y576350D02*
Y579350D01*
X1401088Y397589D02*
X1404088D01*
X1402588Y396089D02*
Y399089D01*
X1843048Y395684D02*
X1846048D01*
X1844548Y394184D02*
Y397184D01*
X1843048Y376174D02*
X1846048D01*
X1844548Y374674D02*
Y377674D01*
X1873048Y371868D02*
X1876048D01*
X1874548Y370368D02*
Y373368D01*
X1842794Y368808D02*
X1845794D01*
X1844294Y367308D02*
Y370308D01*
X1884196Y371868D02*
X1887196D01*
X1885696Y370368D02*
Y373368D01*
X1516150Y567944D02*
X1519150D01*
X1517650Y566444D02*
Y569444D01*
X1556790Y567944D02*
X1559790D01*
X1558290Y566444D02*
Y569444D01*
X1595906Y567436D02*
X1598906D01*
X1597406Y565936D02*
Y568936D01*
X1750846Y597916D02*
X1753846D01*
X1752346Y596416D02*
Y599416D01*
X1822728Y556768D02*
X1825728D01*
X1824228Y555268D02*
Y558268D01*
X1836952Y545338D02*
X1839952D01*
X1838452Y543838D02*
Y546838D01*
X1837460Y554736D02*
X1840460D01*
X1838960Y553236D02*
Y556236D01*
X1822474Y548132D02*
X1825474D01*
X1823974Y546632D02*
Y549632D01*
X1388642Y367284D02*
X1391642D01*
X1390142Y365784D02*
Y368784D01*
X1403374Y375158D02*
X1406374D01*
X1404874Y373658D02*
Y376658D01*
X1388388Y375412D02*
X1391388D01*
X1389888Y373912D02*
Y376912D01*
X1813722Y572383D02*
X1816722D01*
X1815222Y570883D02*
Y573883D01*
X1866680Y549777D02*
X1869680D01*
X1868180Y548277D02*
Y551277D01*
X1882146Y549777D02*
X1885146D01*
X1883646Y548277D02*
Y551277D01*
X1839238Y565658D02*
X1842238D01*
X1840738Y564158D02*
Y567158D01*
X1829078Y565912D02*
X1832078D01*
X1830578Y564412D02*
Y567412D01*
X1433682Y371868D02*
X1436682D01*
X1435182Y370368D02*
Y373368D01*
X1479656Y371614D02*
X1482656D01*
X1481156Y370114D02*
Y373114D01*
X1449656Y371614D02*
X1452656D01*
X1451156Y370114D02*
Y373114D01*
X1492528Y567436D02*
X1495528D01*
X1494028Y565936D02*
Y568936D01*
X1388388Y639318D02*
X1391388D01*
X1389888Y637818D02*
Y640818D01*
X1434616Y638302D02*
X1437616D01*
X1436116Y636802D02*
Y639802D01*
X1456968Y638302D02*
X1459968D01*
X1458468Y636802D02*
Y639802D01*
X1468144Y638302D02*
X1471144D01*
X1469644Y636802D02*
Y639802D01*
X1387626Y457708D02*
X1390626D01*
X1389126Y456208D02*
Y459208D01*
X1451634Y457962D02*
X1454634D01*
X1453134Y456462D02*
Y459462D01*
X1433600Y458216D02*
X1436600D01*
X1435100Y456716D02*
Y459716D01*
X1464334Y458216D02*
X1467334D01*
X1465834Y456716D02*
Y459716D01*
X1847112Y650494D02*
X1850112D01*
X1848612Y648994D02*
Y651994D01*
X1899944Y639064D02*
X1902944D01*
X1901444Y637564D02*
Y640564D01*
X1889276Y639318D02*
X1892276D01*
X1890776Y637818D02*
Y640818D01*
X1873528Y639064D02*
X1876528D01*
X1875028Y637564D02*
Y640564D01*
X1827808Y639064D02*
X1830808D01*
X1829308Y637564D02*
Y640564D01*
X1899944Y457962D02*
X1902944D01*
X1901444Y456462D02*
Y459462D01*
X1890800Y457962D02*
X1893800D01*
X1892300Y456462D02*
Y459462D01*
X1872766Y457708D02*
X1875766D01*
X1874266Y456208D02*
Y459208D01*
X1388896Y388112D02*
X1391896D01*
X1390396Y386612D02*
Y389612D01*
X1814092Y391668D02*
X1817092D01*
X1815592Y390168D02*
Y393168D01*
X1833904Y386334D02*
X1836904D01*
X1835404Y384834D02*
Y387834D01*
X1403374Y367284D02*
X1406374D01*
X1404874Y365784D02*
Y368784D01*
X1463826Y577088D02*
X1466826D01*
X1465326Y575588D02*
Y578588D01*
X1449602Y570992D02*
X1452602D01*
X1451102Y569492D02*
Y572492D01*
X1439188Y577342D02*
X1442188D01*
X1440688Y575842D02*
Y578842D01*
X1825790Y458078D02*
X1828790D01*
X1827290Y456578D02*
Y459578D01*
X1634006Y558024D02*
X1637006D01*
X1635506Y556524D02*
Y559524D01*
X1651532Y571000D02*
X1654532D01*
X1653032Y569500D02*
Y572500D01*
X1593874Y558024D02*
X1596874D01*
X1595374Y556524D02*
Y559524D01*
X1533930Y570366D02*
X1536930D01*
X1535430Y568866D02*
Y571866D01*
X1514118Y558024D02*
X1517118D01*
X1515618Y556524D02*
Y559524D01*
X1572030Y571000D02*
X1575030D01*
X1573530Y569500D02*
Y572500D01*
X1771420Y722630D02*
X1774420D01*
X1772920Y721130D02*
Y724130D01*
X1755672Y722630D02*
X1758672D01*
X1757172Y721130D02*
Y724130D01*
X1661184Y755650D02*
X1664184D01*
X1662684Y754150D02*
Y757150D01*
X1634514Y727710D02*
X1637514D01*
X1636014Y726210D02*
Y729210D01*
X1607590Y730156D02*
X1610590D01*
X1609090Y728656D02*
Y731656D01*
X1914196Y371868D02*
X1917196D01*
X1915696Y370368D02*
Y373368D01*
X1444002Y552825D02*
X1447002D01*
X1445502Y551325D02*
Y554325D01*
X1474002Y552825D02*
X1477002D01*
X1475502Y551325D02*
Y554325D01*
X1387880Y557022D02*
X1390880D01*
X1389380Y555522D02*
Y558522D01*
X1387880Y549402D02*
X1390880D01*
X1389380Y547902D02*
Y550902D01*
X1403374Y557022D02*
X1406374D01*
X1404874Y555522D02*
Y558522D01*
X1403374Y549402D02*
X1406374D01*
X1404874Y547902D02*
Y550902D01*
X1657120Y496570D02*
X1660120D01*
X1658620Y495070D02*
Y498070D01*
X1380768Y624586D02*
X1383768D01*
X1382268Y623086D02*
Y626086D01*
X1373402Y624586D02*
X1376402D01*
X1374902Y623086D02*
Y626086D01*
X1432854Y552825D02*
X1435854D01*
X1434354Y551325D02*
Y554325D01*
X1861207Y580668D02*
X1864207D01*
X1862707Y579168D02*
Y582168D01*
X1830270Y623285D02*
X1833270D01*
X1831770Y621785D02*
Y624785D01*
X1815362Y624840D02*
X1818362D01*
X1816862Y623340D02*
Y626340D01*
X1819426Y442976D02*
X1822426D01*
X1820926Y441476D02*
Y444476D01*
X1830288Y442328D02*
X1833288D01*
X1831788Y440828D02*
Y443828D01*
X1783612Y754634D02*
X1786612D01*
X1785112Y753134D02*
Y756134D01*
X1310410Y563372D02*
X1313410D01*
X1311910Y561872D02*
Y564872D01*
X1401850Y469900D02*
X1404850D01*
X1403350Y468400D02*
Y471400D01*
X1549424Y757936D02*
X1552424D01*
X1550924Y756436D02*
Y759436D01*
X1560600Y672084D02*
X1563600D01*
X1562100Y670584D02*
Y673584D01*
X1524278Y483870D02*
X1527278D01*
X1525778Y482370D02*
Y485370D01*
X1485670Y454914D02*
X1488670D01*
X1487170Y453414D02*
Y456414D01*
X1610892Y504698D02*
X1613892D01*
X1612392Y503198D02*
Y506198D01*
X1551456Y559054D02*
X1554456D01*
X1552956Y557554D02*
Y560554D01*
X1658644Y406146D02*
X1661644D01*
X1660144Y404646D02*
Y407646D01*
X1652802Y456946D02*
X1655802D01*
X1654302Y455446D02*
Y458446D01*
X1381622Y689864D02*
X1384622D01*
X1383122Y688364D02*
Y691364D01*
X1388896Y689864D02*
X1391896D01*
X1390396Y688364D02*
Y691364D01*
X1359801Y689864D02*
X1362802D01*
X1361302Y688364D02*
Y691364D01*
X1367075Y689864D02*
X1370075D01*
X1368575Y688364D02*
Y691364D01*
X1374349Y689864D02*
X1377349D01*
X1375849Y688364D02*
Y691364D01*
X1359801Y680974D02*
X1362802D01*
X1361302Y679474D02*
Y682474D01*
X1367075Y680974D02*
X1370075D01*
X1368575Y679474D02*
Y682474D01*
X1374349Y680974D02*
X1377349D01*
X1375849Y679474D02*
Y682474D01*
X1381622Y680974D02*
X1384622D01*
X1383122Y679474D02*
Y682474D01*
X1388896Y680974D02*
X1391896D01*
X1390396Y679474D02*
Y682474D01*
X1343522Y689864D02*
X1346522D01*
X1345022Y688364D02*
Y691364D01*
X1350796Y689864D02*
X1353796D01*
X1352296Y688364D02*
Y691364D01*
X1321702Y689864D02*
X1324702D01*
X1323201Y688364D02*
Y691364D01*
X1328975Y689864D02*
X1331975D01*
X1330475Y688364D02*
Y691364D01*
X1336249Y689864D02*
X1339249D01*
X1337749Y688364D02*
Y691364D01*
X1321702Y680974D02*
X1324702D01*
X1323201Y679474D02*
Y682474D01*
X1328975Y680974D02*
X1331975D01*
X1330475Y679474D02*
Y682474D01*
X1336249Y680974D02*
X1339249D01*
X1337749Y679474D02*
Y682474D01*
X1343522Y680974D02*
X1346522D01*
X1345022Y679474D02*
Y682474D01*
X1350796Y680974D02*
X1353796D01*
X1352296Y679474D02*
Y682474D01*
X1459854Y502412D02*
X1462854D01*
X1461354Y500912D02*
Y503912D01*
X1467128Y502412D02*
X1470128D01*
X1468628Y500912D02*
Y503912D01*
X1452581Y502412D02*
X1455581D01*
X1454081Y500912D02*
Y503912D01*
X1452581Y493014D02*
X1455581D01*
X1454081Y491514D02*
Y494514D01*
X1459854Y493014D02*
X1462854D01*
X1461354Y491514D02*
Y494514D01*
X1467128Y493014D02*
X1470128D01*
X1468628Y491514D02*
Y494514D01*
X1340775Y503428D02*
X1343775D01*
X1342274Y501928D02*
Y504928D01*
X1333501Y503428D02*
X1336501D01*
X1335001Y501928D02*
Y504928D01*
X1326227Y503428D02*
X1329227D01*
X1327727Y501928D02*
Y504928D01*
X1318954Y503428D02*
X1321954D01*
X1320454Y501928D02*
Y504928D01*
X1311680Y503428D02*
X1314680D01*
X1313180Y501928D02*
Y504928D01*
X1348048Y503428D02*
X1351048D01*
X1349548Y501928D02*
Y504928D01*
X1384416Y503428D02*
X1387416D01*
X1385916Y501928D02*
Y504928D01*
X1377143Y503428D02*
X1380143D01*
X1378643Y501928D02*
Y504928D01*
X1369869Y503428D02*
X1372869D01*
X1371369Y501928D02*
Y504928D01*
X1362595Y503428D02*
X1365595D01*
X1364095Y501928D02*
Y504928D01*
X1355322Y503428D02*
X1358322D01*
X1356822Y501928D02*
Y504928D01*
X1391690Y503428D02*
X1394690D01*
X1393190Y501928D02*
Y504928D01*
X1326227Y511556D02*
X1329227D01*
X1327727Y510056D02*
Y513056D01*
X1318954Y511556D02*
X1321954D01*
X1320454Y510056D02*
Y513056D01*
X1311680Y511556D02*
X1314680D01*
X1313180Y510056D02*
Y513056D01*
X1348048Y511556D02*
X1351048D01*
X1349548Y510056D02*
Y513056D01*
X1340775Y511556D02*
X1343775D01*
X1342274Y510056D02*
Y513056D01*
X1333501Y511556D02*
X1336501D01*
X1335001Y510056D02*
Y513056D01*
X1369869Y511556D02*
X1372869D01*
X1371369Y510056D02*
Y513056D01*
X1362595Y511556D02*
X1365595D01*
X1364095Y510056D02*
Y513056D01*
X1355322Y511556D02*
X1358322D01*
X1356822Y510056D02*
Y513056D01*
X1391690Y511556D02*
X1394690D01*
X1393190Y510056D02*
Y513056D01*
X1384416Y511556D02*
X1387416D01*
X1385916Y510056D02*
Y513056D01*
X1377143Y511556D02*
X1380143D01*
X1378643Y510056D02*
Y513056D01*
X1607844Y530812D02*
X1610844D01*
X1609344Y529312D02*
Y532312D01*
X1653818Y671576D02*
X1656818D01*
X1655318Y670076D02*
Y673076D01*
X1668550Y671576D02*
X1671550D01*
X1670050Y670076D02*
Y673076D01*
X1639086Y671576D02*
X1642086D01*
X1640586Y670076D02*
Y673076D01*
X1818849Y513588D02*
X1821849D01*
X1820349Y512088D02*
Y515088D01*
X1826122Y513588D02*
X1829122D01*
X1827622Y512088D02*
Y515088D01*
X1833396Y513588D02*
X1836396D01*
X1834896Y512088D02*
Y515088D01*
X1797028Y513588D02*
X1800028D01*
X1798528Y512088D02*
Y515088D01*
X1804301Y513588D02*
X1807301D01*
X1805801Y512088D02*
Y515088D01*
X1811575Y513588D02*
X1814575D01*
X1813075Y512088D02*
Y515088D01*
X1775207Y513588D02*
X1778207D01*
X1776707Y512088D02*
Y515088D01*
X1782480Y513588D02*
X1785480D01*
X1783981Y512088D02*
Y515088D01*
X1789754Y513588D02*
X1792754D01*
X1791254Y512088D02*
Y515088D01*
X1753386Y513588D02*
X1756386D01*
X1754886Y512088D02*
Y515088D01*
X1760660Y513588D02*
X1763660D01*
X1762160Y512088D02*
Y515088D01*
X1767933Y513588D02*
X1770933D01*
X1769433Y512088D02*
Y515088D01*
X1833396Y504190D02*
X1836396D01*
X1834896Y502690D02*
Y505690D01*
X1797028Y504190D02*
X1800028D01*
X1798528Y502690D02*
Y505690D01*
X1804301Y504190D02*
X1807301D01*
X1805801Y502690D02*
Y505690D01*
X1811575Y504190D02*
X1814575D01*
X1813075Y502690D02*
Y505690D01*
X1818849Y504190D02*
X1821849D01*
X1820349Y502690D02*
Y505690D01*
X1826122Y504190D02*
X1829122D01*
X1827622Y502690D02*
Y505690D01*
X1789754Y504190D02*
X1792754D01*
X1791254Y502690D02*
Y505690D01*
X1753386Y504190D02*
X1756386D01*
X1754886Y502690D02*
Y505690D01*
X1760660Y504190D02*
X1763660D01*
X1762160Y502690D02*
Y505690D01*
X1767933Y504190D02*
X1770933D01*
X1769433Y502690D02*
Y505690D01*
X1775207Y504190D02*
X1778207D01*
X1776707Y502690D02*
Y505690D01*
X1782480Y504190D02*
X1785480D01*
X1783981Y502690D02*
Y505690D01*
X1835682Y680466D02*
X1838682D01*
X1837182Y678966D02*
Y681966D01*
X1820950Y680466D02*
X1823950D01*
X1822450Y678966D02*
Y681966D01*
X1806218Y680466D02*
X1809218D01*
X1807718Y678966D02*
Y681966D01*
X1791486Y680466D02*
X1794486D01*
X1792986Y678966D02*
Y681966D01*
X1776754Y680466D02*
X1779754D01*
X1778254Y678966D02*
Y681966D01*
X1762022Y680466D02*
X1765022D01*
X1763522Y678966D02*
Y681966D01*
X1747290Y680466D02*
X1750290D01*
X1748790Y678966D02*
Y681966D01*
X1668550Y680720D02*
X1671550D01*
X1670050Y679220D02*
Y682220D01*
X1653818Y680720D02*
X1656818D01*
X1655318Y679220D02*
Y682220D01*
X1639086Y680720D02*
X1642086D01*
X1640586Y679220D02*
Y682220D01*
X1747544Y689102D02*
X1750544D01*
X1749044Y687602D02*
Y690602D01*
X1762234Y689102D02*
X1765234D01*
X1763734Y687602D02*
Y690602D01*
X1776923Y689102D02*
X1779923D01*
X1778423Y687602D02*
Y690602D01*
X1791613Y689102D02*
X1794613D01*
X1793113Y687602D02*
Y690602D01*
X1806302Y689102D02*
X1809303D01*
X1807802Y687602D02*
Y690602D01*
X1820992Y689102D02*
X1823992D01*
X1822492Y687602D02*
Y690602D01*
X1835682Y689102D02*
X1838682D01*
X1837182Y687602D02*
Y690602D01*
X1802916Y722630D02*
X1805916D01*
X1804416Y721130D02*
Y724130D01*
X1558060Y607568D02*
X1561060D01*
X1559560Y606068D02*
Y609068D01*
X1607844Y629666D02*
X1610844D01*
X1609344Y628166D02*
Y631166D01*
X1581174Y488442D02*
X1584174D01*
X1582674Y486942D02*
Y489942D01*
X1532764Y457096D02*
X1535764D01*
X1534264Y455596D02*
Y458596D01*
X1824456Y388863D02*
X1827456D01*
X1825956Y387363D02*
Y390363D01*
X1829840Y376169D02*
X1832840D01*
X1831340Y374669D02*
Y377669D01*
X1829840Y369051D02*
X1832840D01*
X1831340Y367551D02*
Y370551D01*
X1373358Y391426D02*
X1376358D01*
X1374858Y389926D02*
Y392926D01*
X1373546Y572383D02*
X1376546D01*
X1375046Y570883D02*
Y573883D01*
X1310664Y549910D02*
X1313664D01*
X1312164Y548410D02*
Y551410D01*
X1675154Y637032D02*
X1678154D01*
X1676654Y635532D02*
Y638532D01*
X1842540Y469392D02*
X1845540D01*
X1844040Y467892D02*
Y470892D01*
X1401850Y652780D02*
X1404850D01*
X1403350Y651280D02*
Y654280D01*
X1237512Y459232D02*
X1240512D01*
X1239012Y457732D02*
Y460732D01*
X1237766Y640588D02*
X1240766D01*
X1239266Y639088D02*
Y642088D01*
X1750592Y369062D02*
X1753592D01*
X1752092Y367562D02*
Y370562D01*
X1763546Y368808D02*
X1766546D01*
X1765046Y367308D02*
Y370308D01*
X1750338Y382524D02*
X1753338D01*
X1751838Y381024D02*
Y384024D01*
X1763546Y382524D02*
X1766546D01*
X1765046Y381024D02*
Y384024D01*
X1309648Y369316D02*
X1312648D01*
X1311148Y367816D02*
Y370816D01*
X1322602Y369062D02*
X1325602D01*
X1324102Y367562D02*
Y370562D01*
X1309394Y382778D02*
X1312394D01*
X1310894Y381278D02*
Y384278D01*
X1322602Y382778D02*
X1325602D01*
X1324102Y381278D02*
Y384278D01*
X1323618Y549656D02*
X1326618D01*
X1325118Y548156D02*
Y551156D01*
X1323618Y563372D02*
X1326618D01*
X1325118Y561872D02*
Y564872D01*
X1762784Y565404D02*
X1765784D01*
X1764284Y563904D02*
Y566904D01*
X1749576Y565404D02*
X1752576D01*
X1751076Y563904D02*
Y566904D01*
X1762784Y551688D02*
X1765784D01*
X1764284Y550188D02*
Y553188D01*
X1749830Y551942D02*
X1752830D01*
X1751330Y550442D02*
Y553442D01*
X1911810Y552813D02*
X1914810D01*
X1913310Y551313D02*
Y554313D01*
X1728168Y631045D02*
X1731168D01*
X1729668Y629545D02*
Y632545D01*
X1728186Y450088D02*
X1731186D01*
X1729686Y448588D02*
Y451588D01*
X1381530Y442976D02*
X1384530D01*
X1383030Y441476D02*
Y444476D01*
X1373637Y443070D02*
X1376637D01*
X1375137Y441570D02*
Y444570D01*
X1287804Y450088D02*
X1290804D01*
X1289304Y448588D02*
Y451588D01*
X1287992Y631045D02*
X1290992D01*
X1289492Y629545D02*
Y632545D01*
M02*
