G04*
G04 #@! TF.GenerationSoftware,Altium Limited,Altium Designer,23.4.1 (23)*
G04*
G04 Layer_Physical_Order=2*
G04 Layer_Color=32768*
%FSLAX44Y44*%
%MOMM*%
G71*
G04*
G04 #@! TF.SameCoordinates,D2C56FB1-3194-4FD5-B733-79DB95D4BDB6*
G04*
G04*
G04 #@! TF.FilePolarity,Negative*
G04*
G01*
G75*
%ADD81C,1.0160*%
%ADD82C,2.1160*%
%ADD83C,1.3160*%
D81*
X1227582Y347472D02*
X1938274D01*
Y795782D01*
X1227582Y347472D02*
Y795782D01*
X1938274D01*
D82*
X1357884Y735330D02*
D03*
X1383284D02*
D03*
X1510284D02*
D03*
X1484884D02*
D03*
X1459484D02*
D03*
X1281684D02*
D03*
X1307084D02*
D03*
X1332484D02*
D03*
X1408684D02*
D03*
X1434084D02*
D03*
D83*
X1314196Y598424D02*
D03*
X1313180Y416560D02*
D03*
X1751543Y417281D02*
D03*
X1402080Y577850D02*
D03*
X1402588Y397589D02*
D03*
X1844548Y395684D02*
D03*
Y376174D02*
D03*
X1874548Y371868D02*
D03*
X1844294Y368808D02*
D03*
X1885696Y371868D02*
D03*
X1752346Y597916D02*
D03*
X1824228Y556768D02*
D03*
X1838452Y545338D02*
D03*
X1838960Y554736D02*
D03*
X1823974Y548132D02*
D03*
X1390142Y367284D02*
D03*
X1404874Y375158D02*
D03*
X1389888Y375412D02*
D03*
X1815222Y572383D02*
D03*
X1868180Y549777D02*
D03*
X1883646D02*
D03*
X1840738Y565658D02*
D03*
X1830578Y565912D02*
D03*
X1435182Y371868D02*
D03*
X1481156Y371614D02*
D03*
X1451156D02*
D03*
X1494028Y567436D02*
D03*
X1436116Y638302D02*
D03*
X1458468D02*
D03*
X1469644D02*
D03*
X1453134Y457962D02*
D03*
X1435100Y458216D02*
D03*
X1465834D02*
D03*
X1901444Y639064D02*
D03*
X1890776Y639318D02*
D03*
X1875028Y639064D02*
D03*
X1901444Y457962D02*
D03*
X1892300D02*
D03*
X1874266Y457708D02*
D03*
X1390396Y388112D02*
D03*
X1815592Y391668D02*
D03*
X1835404Y386334D02*
D03*
X1404874Y367284D02*
D03*
X1465326Y577088D02*
D03*
X1451102Y570992D02*
D03*
X1440688Y577342D02*
D03*
X1772920Y722630D02*
D03*
X1757172D02*
D03*
X1636014Y727710D02*
D03*
X1609090Y730156D02*
D03*
X1915696Y371868D02*
D03*
X1445502Y552825D02*
D03*
X1475502D02*
D03*
X1389380Y557022D02*
D03*
Y549402D02*
D03*
X1404874Y557022D02*
D03*
Y549402D02*
D03*
X1382268Y624586D02*
D03*
X1374902D02*
D03*
X1434354Y552825D02*
D03*
X1862707Y580668D02*
D03*
X1831770Y623285D02*
D03*
X1816862Y624840D02*
D03*
X1820926Y442976D02*
D03*
X1831788Y442328D02*
D03*
X1383122Y689864D02*
D03*
X1390396D02*
D03*
X1361302D02*
D03*
X1368575D02*
D03*
X1375849D02*
D03*
X1361302Y680974D02*
D03*
X1368575D02*
D03*
X1375849D02*
D03*
X1383122D02*
D03*
X1390396D02*
D03*
X1345022Y689864D02*
D03*
X1352296D02*
D03*
X1323201D02*
D03*
X1330475D02*
D03*
X1337749D02*
D03*
X1323201Y680974D02*
D03*
X1330475D02*
D03*
X1337749D02*
D03*
X1345022D02*
D03*
X1352296D02*
D03*
X1461354Y502412D02*
D03*
X1468628D02*
D03*
X1454081D02*
D03*
Y493014D02*
D03*
X1461354D02*
D03*
X1468628D02*
D03*
X1342274Y503428D02*
D03*
X1335001D02*
D03*
X1327727D02*
D03*
X1320454D02*
D03*
X1313180D02*
D03*
X1349548D02*
D03*
X1385916D02*
D03*
X1378643D02*
D03*
X1371369D02*
D03*
X1364095D02*
D03*
X1356822D02*
D03*
X1393190D02*
D03*
X1327727Y511556D02*
D03*
X1320454D02*
D03*
X1313180D02*
D03*
X1349548D02*
D03*
X1342274D02*
D03*
X1335001D02*
D03*
X1371369D02*
D03*
X1364095D02*
D03*
X1356822D02*
D03*
X1393190D02*
D03*
X1385916D02*
D03*
X1378643D02*
D03*
X1609344Y530812D02*
D03*
X1655318Y671576D02*
D03*
X1670050D02*
D03*
X1640586D02*
D03*
X1820349Y513588D02*
D03*
X1827622D02*
D03*
X1834896D02*
D03*
X1798528D02*
D03*
X1805801D02*
D03*
X1813075D02*
D03*
X1776707D02*
D03*
X1783981D02*
D03*
X1791254D02*
D03*
X1754886D02*
D03*
X1762160D02*
D03*
X1769433D02*
D03*
X1834896Y504190D02*
D03*
X1798528D02*
D03*
X1805801D02*
D03*
X1813075D02*
D03*
X1820349D02*
D03*
X1827622D02*
D03*
X1791254D02*
D03*
X1754886D02*
D03*
X1762160D02*
D03*
X1769433D02*
D03*
X1776707D02*
D03*
X1783981D02*
D03*
X1837182Y680466D02*
D03*
X1822450D02*
D03*
X1807718D02*
D03*
X1792986D02*
D03*
X1778254D02*
D03*
X1763522D02*
D03*
X1748790D02*
D03*
X1670050Y680720D02*
D03*
X1655318D02*
D03*
X1640586D02*
D03*
X1749044Y689102D02*
D03*
X1763734D02*
D03*
X1778423D02*
D03*
X1793113D02*
D03*
X1807802D02*
D03*
X1822492D02*
D03*
X1837182D02*
D03*
X1804416Y722630D02*
D03*
X1559560Y607568D02*
D03*
X1609344Y629666D02*
D03*
X1582674Y488442D02*
D03*
X1534264Y457096D02*
D03*
X1825956Y388863D02*
D03*
X1831340Y376169D02*
D03*
Y369051D02*
D03*
X1374858Y391426D02*
D03*
X1375046Y572383D02*
D03*
X1913310Y552813D02*
D03*
X1729668Y631045D02*
D03*
X1729686Y450088D02*
D03*
X1383030Y442976D02*
D03*
X1375137Y443070D02*
D03*
X1289304Y450088D02*
D03*
X1289492Y631045D02*
D03*
M02*
