G04*
G04 #@! TF.GenerationSoftware,Altium Limited,Altium Designer,23.4.1 (23)*
G04*
G04 Layer_Physical_Order=4*
G04 Layer_Color=16711680*
%FSLAX44Y44*%
%MOMM*%
G71*
G04*
G04 #@! TF.SameCoordinates,D2C56FB1-3194-4FD5-B733-79DB95D4BDB6*
G04*
G04*
G04 #@! TF.FilePolarity,Positive*
G04*
G01*
G75*
%ADD71C,0.2540*%
%ADD72C,0.5080*%
%ADD78C,1.6000*%
G04:AMPARAMS|DCode=79|XSize=1.6mm|YSize=1.6mm|CornerRadius=0.4mm|HoleSize=0mm|Usage=FLASHONLY|Rotation=0.000|XOffset=0mm|YOffset=0mm|HoleType=Round|Shape=RoundedRectangle|*
%AMROUNDEDRECTD79*
21,1,1.6000,0.8000,0,0,0.0*
21,1,0.8000,1.6000,0,0,0.0*
1,1,0.8000,0.4000,-0.4000*
1,1,0.8000,-0.4000,-0.4000*
1,1,0.8000,-0.4000,0.4000*
1,1,0.8000,0.4000,0.4000*
%
%ADD79ROUNDEDRECTD79*%
%ADD80C,0.6000*%
G36*
X1397762Y402590D02*
X1434084D01*
X1456182Y380492D01*
Y362712D01*
X1427226D01*
X1397762Y392176D01*
Y402590D01*
D02*
G37*
G36*
X1371346Y449580D02*
X1392174D01*
X1396238D01*
X1400048D01*
X1415288Y464820D01*
X1432052D01*
X1470152D01*
Y451866D01*
X1418590D01*
X1406652Y439928D01*
X1371346D01*
Y449580D01*
D02*
G37*
G36*
X1393952Y583692D02*
X1423416D01*
X1452372Y561594D01*
Y543814D01*
X1428750D01*
X1393952Y575310D01*
Y583692D01*
D02*
G37*
G36*
X1370772Y629775D02*
X1391600D01*
X1395664D01*
X1399474D01*
X1414714Y645015D01*
X1431478D01*
X1450086D01*
Y632061D01*
X1418016D01*
X1406078Y620123D01*
X1370772D01*
Y629775D01*
D02*
G37*
G36*
X1839468Y402844D02*
X1868678D01*
X1890776Y380746D01*
Y362966D01*
X1864645Y362966D01*
X1839468Y390131D01*
Y402844D01*
D02*
G37*
G36*
X1812290Y449072D02*
X1833118D01*
X1837182D01*
X1840992D01*
X1856232Y464312D01*
X1872996D01*
X1906778D01*
Y451358D01*
X1859534D01*
X1847596Y439420D01*
X1812290D01*
Y449072D01*
D02*
G37*
G36*
X1851914Y583692D02*
X1866392D01*
X1887982Y562102D01*
Y541020D01*
X1863344D01*
X1851914Y552450D01*
Y583692D01*
D02*
G37*
G36*
X1743517Y730629D02*
Y715008D01*
X1793809D01*
X1797619Y711198D01*
X1813814D01*
Y733044D01*
X1811530Y735328D01*
X1799143D01*
X1794703Y730887D01*
X1743517Y730629D01*
D02*
G37*
G36*
X1811020Y630428D02*
X1831848D01*
X1835912D01*
X1839722D01*
X1854962Y645668D01*
X1871726D01*
X1906270D01*
Y632714D01*
X1858264D01*
X1845564Y620014D01*
X1811020D01*
Y630428D01*
D02*
G37*
D71*
X1348690Y558596D02*
X1382522Y524764D01*
X1303020Y598424D02*
X1314196D01*
X1277874Y623570D02*
X1303020Y598424D01*
X1348690Y558596D02*
Y563930D01*
X1314196Y598424D02*
X1348690Y563930D01*
X1312672Y416052D02*
X1313180Y416560D01*
X1299464Y416052D02*
X1312672D01*
X1751543Y417281D02*
Y417871D01*
X1735269Y434145D02*
X1751543Y417871D01*
X1708563Y434145D02*
X1735269D01*
X1738376Y597916D02*
X1752346D01*
X1691894Y525526D02*
X1752346Y585978D01*
Y597916D01*
X1665224Y524764D02*
X1738376Y597916D01*
X1422494Y430276D02*
X1481156Y371614D01*
X1329944Y430276D02*
X1422494D01*
X1423079Y608076D02*
X1462700Y568456D01*
Y565628D02*
Y568456D01*
X1333500Y608076D02*
X1423079D01*
X1462700Y565628D02*
X1475502Y552825D01*
X1609090Y730156D02*
X1632632D01*
X1635078Y727710D01*
X1636014D01*
X1601216Y636778D02*
Y722282D01*
X1609090Y730156D01*
X1594358Y629920D02*
X1601216Y636778D01*
X1871512Y416052D02*
X1915696Y371868D01*
X1763722Y416052D02*
X1871512D01*
X1382522Y524764D02*
X1665224D01*
X1567180Y629920D02*
X1594358D01*
X1559560Y607568D02*
Y622300D01*
X1567180Y629920D01*
X1534264Y457096D02*
X1551328D01*
X1582674Y488442D01*
X1266698Y669544D02*
X1332484Y735330D01*
X1266698Y448818D02*
Y669544D01*
X1332484Y709676D02*
Y735330D01*
X1277874Y655066D02*
X1332484Y709676D01*
X1277874Y623570D02*
Y655066D01*
X1289304Y450088D02*
X1310132D01*
X1329944Y430276D01*
X1289492Y631045D02*
X1310531D01*
X1333500Y608076D01*
X1779524Y617220D02*
X1789176Y607568D01*
X1858555D02*
X1913310Y552813D01*
X1789176Y607568D02*
X1858555D01*
X1729668Y631045D02*
X1743493Y617220D01*
X1779524D01*
X1691894Y450814D02*
Y525526D01*
Y450814D02*
X1708563Y434145D01*
X1266698Y448818D02*
X1299464Y416052D01*
X1729686Y450088D02*
X1763722Y416052D01*
D72*
X1773174Y722188D02*
X1773306Y722320D01*
X1773689D01*
X1649730Y722630D02*
X1756996D01*
Y743634D01*
X1716786Y783844D02*
X1756996Y743634D01*
X1609344Y530812D02*
Y682244D01*
X1649730Y722630D01*
X1270254Y783844D02*
X1716786D01*
X1255268Y744910D02*
Y768858D01*
X1270254Y783844D01*
X1264848Y735330D02*
X1281684D01*
X1255268Y744910D02*
X1264848Y735330D01*
D78*
X1357884D02*
D03*
X1383284D02*
D03*
X1510284Y760730D02*
D03*
X1484884D02*
D03*
X1459484Y760730D02*
D03*
X1510284Y735330D02*
D03*
X1484884D02*
D03*
X1459484D02*
D03*
X1281684Y760730D02*
D03*
X1307084Y735330D02*
D03*
X1307084Y760730D02*
D03*
X1332484Y735330D02*
D03*
Y760730D02*
D03*
X1357884D02*
D03*
X1408684Y735330D02*
D03*
X1383284Y760730D02*
D03*
X1408684D02*
D03*
X1434084Y735330D02*
D03*
Y760730D02*
D03*
D79*
X1281684Y735330D02*
D03*
D80*
X1314196Y598424D02*
D03*
X1313180Y416560D02*
D03*
X1751543Y417281D02*
D03*
X1402080Y577850D02*
D03*
X1402588Y397589D02*
D03*
X1844548Y395684D02*
D03*
Y376174D02*
D03*
X1874548Y371868D02*
D03*
X1844294Y368808D02*
D03*
X1885696Y371868D02*
D03*
X1517650Y567944D02*
D03*
X1558290D02*
D03*
X1597406Y567436D02*
D03*
X1752346Y597916D02*
D03*
X1824228Y556768D02*
D03*
X1838452Y545338D02*
D03*
X1838960Y554736D02*
D03*
X1823974Y548132D02*
D03*
X1390142Y367284D02*
D03*
X1404874Y375158D02*
D03*
X1389888Y375412D02*
D03*
X1815222Y572383D02*
D03*
X1868180Y549777D02*
D03*
X1883646D02*
D03*
X1840738Y565658D02*
D03*
X1830578Y565912D02*
D03*
X1435182Y371868D02*
D03*
X1481156Y371614D02*
D03*
X1451156D02*
D03*
X1494028Y567436D02*
D03*
X1389888Y639318D02*
D03*
X1436116Y638302D02*
D03*
X1458468D02*
D03*
X1469644D02*
D03*
X1389126Y457708D02*
D03*
X1453134Y457962D02*
D03*
X1435100Y458216D02*
D03*
X1465834D02*
D03*
X1848612Y650494D02*
D03*
X1901444Y639064D02*
D03*
X1890776Y639318D02*
D03*
X1875028Y639064D02*
D03*
X1829308D02*
D03*
X1901444Y457962D02*
D03*
X1892300D02*
D03*
X1874266Y457708D02*
D03*
X1390396Y388112D02*
D03*
X1815592Y391668D02*
D03*
X1835404Y386334D02*
D03*
X1404874Y367284D02*
D03*
X1465326Y577088D02*
D03*
X1451102Y570992D02*
D03*
X1440688Y577342D02*
D03*
X1827290Y458078D02*
D03*
X1635506Y558024D02*
D03*
X1653032Y571000D02*
D03*
X1595374Y558024D02*
D03*
X1535430Y570366D02*
D03*
X1515618Y558024D02*
D03*
X1573530Y571000D02*
D03*
X1772920Y722630D02*
D03*
X1757172D02*
D03*
X1662684Y755650D02*
D03*
X1636014Y727710D02*
D03*
X1609090Y730156D02*
D03*
X1915696Y371868D02*
D03*
X1445502Y552825D02*
D03*
X1475502D02*
D03*
X1389380Y557022D02*
D03*
Y549402D02*
D03*
X1404874Y557022D02*
D03*
Y549402D02*
D03*
X1658620Y496570D02*
D03*
X1382268Y624586D02*
D03*
X1374902D02*
D03*
X1434354Y552825D02*
D03*
X1862707Y580668D02*
D03*
X1831770Y623285D02*
D03*
X1816862Y624840D02*
D03*
X1820926Y442976D02*
D03*
X1831788Y442328D02*
D03*
X1785112Y754634D02*
D03*
X1311910Y563372D02*
D03*
X1403350Y469900D02*
D03*
X1550924Y757936D02*
D03*
X1562100Y672084D02*
D03*
X1525778Y483870D02*
D03*
X1487170Y454914D02*
D03*
X1612392Y504698D02*
D03*
X1552956Y559054D02*
D03*
X1660144Y406146D02*
D03*
X1654302Y456946D02*
D03*
X1383122Y689864D02*
D03*
X1390396D02*
D03*
X1361302D02*
D03*
X1368575D02*
D03*
X1375849D02*
D03*
X1361302Y680974D02*
D03*
X1368575D02*
D03*
X1375849D02*
D03*
X1383122D02*
D03*
X1390396D02*
D03*
X1345022Y689864D02*
D03*
X1352296D02*
D03*
X1323201D02*
D03*
X1330475D02*
D03*
X1337749D02*
D03*
X1323201Y680974D02*
D03*
X1330475D02*
D03*
X1337749D02*
D03*
X1345022D02*
D03*
X1352296D02*
D03*
X1461354Y502412D02*
D03*
X1468628D02*
D03*
X1454081D02*
D03*
Y493014D02*
D03*
X1461354D02*
D03*
X1468628D02*
D03*
X1342274Y503428D02*
D03*
X1335001D02*
D03*
X1327727D02*
D03*
X1320454D02*
D03*
X1313180D02*
D03*
X1349548D02*
D03*
X1385916D02*
D03*
X1378643D02*
D03*
X1371369D02*
D03*
X1364095D02*
D03*
X1356822D02*
D03*
X1393190D02*
D03*
X1327727Y511556D02*
D03*
X1320454D02*
D03*
X1313180D02*
D03*
X1349548D02*
D03*
X1342274D02*
D03*
X1335001D02*
D03*
X1371369D02*
D03*
X1364095D02*
D03*
X1356822D02*
D03*
X1393190D02*
D03*
X1385916D02*
D03*
X1378643D02*
D03*
X1609344Y530812D02*
D03*
X1655318Y671576D02*
D03*
X1670050D02*
D03*
X1640586D02*
D03*
X1820349Y513588D02*
D03*
X1827622D02*
D03*
X1834896D02*
D03*
X1798528D02*
D03*
X1805801D02*
D03*
X1813075D02*
D03*
X1776707D02*
D03*
X1783981D02*
D03*
X1791254D02*
D03*
X1754886D02*
D03*
X1762160D02*
D03*
X1769433D02*
D03*
X1834896Y504190D02*
D03*
X1798528D02*
D03*
X1805801D02*
D03*
X1813075D02*
D03*
X1820349D02*
D03*
X1827622D02*
D03*
X1791254D02*
D03*
X1754886D02*
D03*
X1762160D02*
D03*
X1769433D02*
D03*
X1776707D02*
D03*
X1783981D02*
D03*
X1837182Y680466D02*
D03*
X1822450D02*
D03*
X1807718D02*
D03*
X1792986D02*
D03*
X1778254D02*
D03*
X1763522D02*
D03*
X1748790D02*
D03*
X1670050Y680720D02*
D03*
X1655318D02*
D03*
X1640586D02*
D03*
X1749044Y689102D02*
D03*
X1763734D02*
D03*
X1778423D02*
D03*
X1793113D02*
D03*
X1807802D02*
D03*
X1822492D02*
D03*
X1837182D02*
D03*
X1804416Y722630D02*
D03*
X1559560Y607568D02*
D03*
X1609344Y629666D02*
D03*
X1582674Y488442D02*
D03*
X1534264Y457096D02*
D03*
X1825956Y388863D02*
D03*
X1831340Y376169D02*
D03*
Y369051D02*
D03*
X1374858Y391426D02*
D03*
X1375046Y572383D02*
D03*
X1312164Y549910D02*
D03*
X1676654Y637032D02*
D03*
X1844040Y469392D02*
D03*
X1403350Y652780D02*
D03*
X1239012Y459232D02*
D03*
X1239266Y640588D02*
D03*
X1752092Y369062D02*
D03*
X1765046Y368808D02*
D03*
X1751838Y382524D02*
D03*
X1765046D02*
D03*
X1311148Y369316D02*
D03*
X1324102Y369062D02*
D03*
X1310894Y382778D02*
D03*
X1324102D02*
D03*
X1325118Y549656D02*
D03*
Y563372D02*
D03*
X1764284Y565404D02*
D03*
X1751076D02*
D03*
X1764284Y551688D02*
D03*
X1751330Y551942D02*
D03*
X1913310Y552813D02*
D03*
X1729668Y631045D02*
D03*
X1729686Y450088D02*
D03*
X1383030Y442976D02*
D03*
X1375137Y443070D02*
D03*
X1289304Y450088D02*
D03*
X1289492Y631045D02*
D03*
M02*
