G04*
G04 #@! TF.GenerationSoftware,Altium Limited,Altium Designer,23.4.1 (23)*
G04*
G04 Layer_Color=255*
%FSLAX44Y44*%
%MOMM*%
G71*
G04*
G04 #@! TF.SameCoordinates,D2C56FB1-3194-4FD5-B733-79DB95D4BDB6*
G04*
G04*
G04 #@! TF.FilePolarity,Positive*
G04*
G01*
G75*
%ADD15R,0.6000X0.6000*%
%ADD21R,1.0000X1.8000*%
G04:AMPARAMS|DCode=22|XSize=0.45mm|YSize=1.55mm|CornerRadius=0.0495mm|HoleSize=0mm|Usage=FLASHONLY|Rotation=90.000|XOffset=0mm|YOffset=0mm|HoleType=Round|Shape=RoundedRectangle|*
%AMROUNDEDRECTD22*
21,1,0.4500,1.4510,0,0,90.0*
21,1,0.3510,1.5500,0,0,90.0*
1,1,0.0990,0.7255,0.1755*
1,1,0.0990,0.7255,-0.1755*
1,1,0.0990,-0.7255,-0.1755*
1,1,0.0990,-0.7255,0.1755*
%
%ADD22ROUNDEDRECTD22*%
G04:AMPARAMS|DCode=23|XSize=1.73mm|YSize=1.85mm|CornerRadius=0.0519mm|HoleSize=0mm|Usage=FLASHONLY|Rotation=0.000|XOffset=0mm|YOffset=0mm|HoleType=Round|Shape=RoundedRectangle|*
%AMROUNDEDRECTD23*
21,1,1.7300,1.7462,0,0,0.0*
21,1,1.6262,1.8500,0,0,0.0*
1,1,0.1038,0.8131,-0.8731*
1,1,0.1038,-0.8131,-0.8731*
1,1,0.1038,-0.8131,0.8731*
1,1,0.1038,0.8131,0.8731*
%
%ADD23ROUNDEDRECTD23*%
%ADD24R,0.8500X0.9000*%
%ADD25R,0.6000X0.5000*%
%ADD26R,0.6000X0.4000*%
%ADD27R,0.5200X0.5200*%
%ADD28R,0.8000X0.9000*%
G04:AMPARAMS|DCode=29|XSize=1mm|YSize=1.2mm|CornerRadius=0.25mm|HoleSize=0mm|Usage=FLASHONLY|Rotation=270.000|XOffset=0mm|YOffset=0mm|HoleType=Round|Shape=RoundedRectangle|*
%AMROUNDEDRECTD29*
21,1,1.0000,0.7000,0,0,270.0*
21,1,0.5000,1.2000,0,0,270.0*
1,1,0.5000,-0.3500,-0.2500*
1,1,0.5000,-0.3500,0.2500*
1,1,0.5000,0.3500,0.2500*
1,1,0.5000,0.3500,-0.2500*
%
%ADD29ROUNDEDRECTD29*%
%ADD30R,1.6500X1.1000*%
%ADD31R,1.8000X1.0000*%
%ADD32R,0.3000X1.4000*%
G04:AMPARAMS|DCode=33|XSize=0.9mm|YSize=1.45mm|CornerRadius=0.0495mm|HoleSize=0mm|Usage=FLASHONLY|Rotation=180.000|XOffset=0mm|YOffset=0mm|HoleType=Round|Shape=RoundedRectangle|*
%AMROUNDEDRECTD33*
21,1,0.9000,1.3510,0,0,180.0*
21,1,0.8010,1.4500,0,0,180.0*
1,1,0.0990,-0.4005,0.6755*
1,1,0.0990,0.4005,0.6755*
1,1,0.0990,0.4005,-0.6755*
1,1,0.0990,-0.4005,-0.6755*
%
%ADD33ROUNDEDRECTD33*%
G04:AMPARAMS|DCode=34|XSize=3.15mm|YSize=1.45mm|CornerRadius=0.0508mm|HoleSize=0mm|Usage=FLASHONLY|Rotation=180.000|XOffset=0mm|YOffset=0mm|HoleType=Round|Shape=RoundedRectangle|*
%AMROUNDEDRECTD34*
21,1,3.1500,1.3485,0,0,180.0*
21,1,3.0485,1.4500,0,0,180.0*
1,1,0.1015,-1.5243,0.6743*
1,1,0.1015,1.5243,0.6743*
1,1,0.1015,1.5243,-0.6743*
1,1,0.1015,-1.5243,-0.6743*
%
%ADD34ROUNDEDRECTD34*%
G04:AMPARAMS|DCode=35|XSize=1.6mm|YSize=2.2mm|CornerRadius=0.4mm|HoleSize=0mm|Usage=FLASHONLY|Rotation=0.000|XOffset=0mm|YOffset=0mm|HoleType=Round|Shape=RoundedRectangle|*
%AMROUNDEDRECTD35*
21,1,1.6000,1.4000,0,0,0.0*
21,1,0.8000,2.2000,0,0,0.0*
1,1,0.8000,0.4000,-0.7000*
1,1,0.8000,-0.4000,-0.7000*
1,1,0.8000,-0.4000,0.7000*
1,1,0.8000,0.4000,0.7000*
%
%ADD35ROUNDEDRECTD35*%
%ADD36R,1.6000X2.2000*%
%ADD37R,0.9000X0.8000*%
%ADD38R,0.4000X0.6000*%
%ADD39R,0.5000X0.6000*%
%ADD40R,1.0000X0.7500*%
%ADD41R,0.9500X0.6000*%
%ADD42R,5.3000X2.0000*%
%ADD43R,1.5200X1.6800*%
%ADD44R,1.0500X1.6000*%
%ADD45R,1.1000X1.3500*%
%ADD46R,0.9000X0.8500*%
%ADD47R,1.5240X1.5240*%
%ADD48R,1.2000X1.0000*%
%ADD59R,0.6000X0.6000*%
%ADD65R,1.6000X0.3500*%
%ADD78C,1.6000*%
G04:AMPARAMS|DCode=79|XSize=1.6mm|YSize=1.6mm|CornerRadius=0.4mm|HoleSize=0mm|Usage=FLASHONLY|Rotation=0.000|XOffset=0mm|YOffset=0mm|HoleType=Round|Shape=RoundedRectangle|*
%AMROUNDEDRECTD79*
21,1,1.6000,0.8000,0,0,0.0*
21,1,0.8000,1.6000,0,0,0.0*
1,1,0.8000,0.4000,-0.4000*
1,1,0.8000,-0.4000,-0.4000*
1,1,0.8000,-0.4000,0.4000*
1,1,0.8000,0.4000,0.4000*
%
%ADD79ROUNDEDRECTD79*%
D15*
X1509302Y368674D02*
D03*
Y383674D02*
D03*
X1527302D02*
D03*
Y368674D02*
D03*
X1712084Y435742D02*
D03*
Y450742D02*
D03*
X1694084D02*
D03*
Y435742D02*
D03*
X1271702D02*
D03*
Y450742D02*
D03*
X1253702D02*
D03*
Y435742D02*
D03*
X1271890Y616699D02*
D03*
Y631699D02*
D03*
X1253890D02*
D03*
Y616699D02*
D03*
X1712066D02*
D03*
Y631699D02*
D03*
X1694066D02*
D03*
Y616699D02*
D03*
X1692512Y383674D02*
D03*
Y368674D02*
D03*
X1674512D02*
D03*
Y383674D02*
D03*
D21*
X1874548Y371868D02*
D03*
X1844548D02*
D03*
X1915696D02*
D03*
X1885696D02*
D03*
X1434354Y552825D02*
D03*
X1404354D02*
D03*
X1572754Y504698D02*
D03*
X1602754D02*
D03*
X1688592Y407936D02*
D03*
X1718592D02*
D03*
X1248210D02*
D03*
X1278210D02*
D03*
X1451156Y371614D02*
D03*
X1481156D02*
D03*
X1405182Y371868D02*
D03*
X1435182D02*
D03*
X1248398Y588893D02*
D03*
X1278398D02*
D03*
X1447280Y552825D02*
D03*
X1477280D02*
D03*
X1883646Y549777D02*
D03*
X1913646D02*
D03*
X1688574Y588893D02*
D03*
X1718574D02*
D03*
X1838180Y549777D02*
D03*
X1868180D02*
D03*
D22*
X1753494Y463166D02*
D03*
X1799994D02*
D03*
Y456666D02*
D03*
Y450166D02*
D03*
Y443666D02*
D03*
X1753494Y456666D02*
D03*
Y450166D02*
D03*
Y443666D02*
D03*
X1313112D02*
D03*
Y450166D02*
D03*
Y456666D02*
D03*
X1359612Y443666D02*
D03*
Y450166D02*
D03*
Y456666D02*
D03*
Y463166D02*
D03*
X1313112D02*
D03*
X1313300Y624623D02*
D03*
Y631123D02*
D03*
Y637623D02*
D03*
X1359800Y624623D02*
D03*
Y631123D02*
D03*
Y637623D02*
D03*
Y644123D02*
D03*
X1313300D02*
D03*
X1753476Y624623D02*
D03*
Y631123D02*
D03*
Y637623D02*
D03*
X1799976Y624623D02*
D03*
Y631123D02*
D03*
Y637623D02*
D03*
Y644123D02*
D03*
X1753476Y644123D02*
D03*
D23*
X1776744Y453416D02*
D03*
X1336362D02*
D03*
X1336550Y634373D02*
D03*
X1776726D02*
D03*
D24*
X1357086Y488200D02*
D03*
X1344086D02*
D03*
X1784468Y477786D02*
D03*
X1797468D02*
D03*
X1784468Y488200D02*
D03*
X1797468D02*
D03*
X1344086Y477786D02*
D03*
X1357086D02*
D03*
X1344274Y658743D02*
D03*
X1357274D02*
D03*
X1344274Y669157D02*
D03*
X1357274D02*
D03*
X1784450Y658743D02*
D03*
X1797450D02*
D03*
X1784450Y669157D02*
D03*
X1797450D02*
D03*
D25*
X1243144Y475774D02*
D03*
Y485774D02*
D03*
X1295402Y666731D02*
D03*
Y656731D02*
D03*
X1679716Y445274D02*
D03*
Y435274D02*
D03*
X1737628Y416986D02*
D03*
Y426986D02*
D03*
X1684542Y485774D02*
D03*
Y475774D02*
D03*
X1736104D02*
D03*
Y485774D02*
D03*
X1855162Y399368D02*
D03*
Y409368D02*
D03*
X1239334Y445274D02*
D03*
Y435274D02*
D03*
X1297246Y416986D02*
D03*
Y426986D02*
D03*
X1294706Y475774D02*
D03*
Y485774D02*
D03*
X1414780Y399368D02*
D03*
Y409368D02*
D03*
X1239522Y626231D02*
D03*
Y616231D02*
D03*
X1297434Y597943D02*
D03*
Y607943D02*
D03*
X1243840Y666731D02*
D03*
Y656731D02*
D03*
X1414968Y580325D02*
D03*
Y590325D02*
D03*
X1679698Y626231D02*
D03*
Y616231D02*
D03*
X1737610Y597943D02*
D03*
Y607943D02*
D03*
X1683762Y666731D02*
D03*
Y656731D02*
D03*
X1735324D02*
D03*
Y666731D02*
D03*
X1855144Y580325D02*
D03*
Y590325D02*
D03*
D26*
X1509302Y376174D02*
D03*
X1527302D02*
D03*
X1712084Y443242D02*
D03*
X1694084D02*
D03*
X1271702D02*
D03*
X1253702D02*
D03*
X1271890Y624199D02*
D03*
X1253890D02*
D03*
X1712066D02*
D03*
X1694066D02*
D03*
X1692512Y376174D02*
D03*
X1674512D02*
D03*
D27*
X1279908Y666231D02*
D03*
Y658231D02*
D03*
X1720610Y477274D02*
D03*
Y485274D02*
D03*
X1279212Y477274D02*
D03*
Y485274D02*
D03*
X1719830Y658231D02*
D03*
Y666231D02*
D03*
D28*
X1494030Y567167D02*
D03*
Y550167D02*
D03*
X1535430Y587366D02*
D03*
Y570366D02*
D03*
X1573530Y588000D02*
D03*
Y571000D02*
D03*
X1614170Y588000D02*
D03*
Y571000D02*
D03*
X1653032Y588000D02*
D03*
Y571000D02*
D03*
X1928382Y369210D02*
D03*
Y386210D02*
D03*
X1496382Y369210D02*
D03*
Y386210D02*
D03*
X1928872Y547119D02*
D03*
Y564119D02*
D03*
X1503172Y426348D02*
D03*
Y443348D02*
D03*
Y487544D02*
D03*
Y470544D02*
D03*
X1660144Y443348D02*
D03*
Y426348D02*
D03*
X1659128Y470798D02*
D03*
Y487798D02*
D03*
D29*
X1676654Y775556D02*
D03*
Y755556D02*
D03*
X1773174Y742188D02*
D03*
Y722188D02*
D03*
X1609090Y750156D02*
D03*
Y730156D02*
D03*
X1586230Y730410D02*
D03*
D30*
X1535176Y679730D02*
D03*
Y651230D02*
D03*
X1874280Y458710D02*
D03*
Y487210D02*
D03*
X1434660Y458710D02*
D03*
Y487210D02*
D03*
X1436118Y639667D02*
D03*
Y668167D02*
D03*
X1874770Y639667D02*
D03*
Y668167D02*
D03*
X1584960Y669798D02*
D03*
Y698298D02*
D03*
D31*
X1515618Y588024D02*
D03*
Y558024D02*
D03*
X1555750Y588024D02*
D03*
Y558024D02*
D03*
X1595374Y588024D02*
D03*
Y558024D02*
D03*
X1635506Y588024D02*
D03*
Y558024D02*
D03*
X1848880Y488468D02*
D03*
Y458468D02*
D03*
X1409260Y488468D02*
D03*
Y458468D02*
D03*
X1410210Y669425D02*
D03*
Y639425D02*
D03*
X1849624Y669425D02*
D03*
Y639425D02*
D03*
X1528064Y470140D02*
D03*
Y500140D02*
D03*
Y443752D02*
D03*
Y413752D02*
D03*
X1637284Y443752D02*
D03*
Y413752D02*
D03*
X1637538Y470140D02*
D03*
Y500140D02*
D03*
D32*
X1589880Y606650D02*
D03*
X1584880D02*
D03*
X1579880D02*
D03*
X1574880D02*
D03*
X1569880D02*
D03*
Y650650D02*
D03*
X1574880D02*
D03*
X1579880D02*
D03*
X1584880D02*
D03*
X1589880D02*
D03*
D33*
X1702422Y722360D02*
D03*
X1725422D02*
D03*
X1748422D02*
D03*
D34*
X1725422Y783860D02*
D03*
D35*
X1805686Y722982D02*
D03*
D36*
Y766982D02*
D03*
D37*
X1579000Y522732D02*
D03*
X1596000D02*
D03*
D38*
X1495806Y517796D02*
D03*
Y535796D02*
D03*
X1678178Y536146D02*
D03*
Y518146D02*
D03*
D39*
X1729580Y404634D02*
D03*
X1739580D02*
D03*
X1289198D02*
D03*
X1299198D02*
D03*
X1289386Y585591D02*
D03*
X1299386D02*
D03*
X1729562D02*
D03*
X1739562D02*
D03*
D40*
X1702830Y469524D02*
D03*
Y484524D02*
D03*
X1261432Y469524D02*
D03*
Y484524D02*
D03*
X1262128Y650481D02*
D03*
Y665481D02*
D03*
X1702050Y650481D02*
D03*
Y665481D02*
D03*
D41*
X1831788Y442328D02*
D03*
Y432828D02*
D03*
Y423328D02*
D03*
X1854288Y442328D02*
D03*
Y432828D02*
D03*
Y423328D02*
D03*
X1391406Y442328D02*
D03*
Y432828D02*
D03*
Y423328D02*
D03*
X1413906Y442328D02*
D03*
Y432828D02*
D03*
Y423328D02*
D03*
X1391594Y623285D02*
D03*
Y613785D02*
D03*
Y604285D02*
D03*
X1414094Y623285D02*
D03*
Y613785D02*
D03*
Y604285D02*
D03*
X1831770Y623285D02*
D03*
X1831770Y613785D02*
D03*
X1831770Y604285D02*
D03*
X1854270Y623285D02*
D03*
Y613785D02*
D03*
Y604285D02*
D03*
D42*
X1894346Y393738D02*
D03*
Y428738D02*
D03*
X1453964Y393738D02*
D03*
Y428738D02*
D03*
X1454152Y574695D02*
D03*
Y609695D02*
D03*
X1894328Y574695D02*
D03*
Y609695D02*
D03*
D43*
X1810272Y417588D02*
D03*
X1776272D02*
D03*
X1369890D02*
D03*
X1335890D02*
D03*
X1370078Y598545D02*
D03*
X1336078D02*
D03*
X1810254D02*
D03*
X1776254D02*
D03*
D44*
X1830356Y371614D02*
D03*
X1800856D02*
D03*
X1389974D02*
D03*
X1360474D02*
D03*
X1390162Y552571D02*
D03*
X1360662D02*
D03*
X1822718D02*
D03*
X1793218D02*
D03*
D45*
X1801240Y391426D02*
D03*
X1815240D02*
D03*
X1360858D02*
D03*
X1374858D02*
D03*
X1361046Y572383D02*
D03*
X1375046D02*
D03*
X1801222D02*
D03*
X1815222D02*
D03*
D46*
X1828814Y458078D02*
D03*
Y471078D02*
D03*
X1816114Y458078D02*
D03*
Y471078D02*
D03*
X1389194Y458078D02*
D03*
Y471078D02*
D03*
X1375732Y458078D02*
D03*
Y471078D02*
D03*
X1389636Y639035D02*
D03*
Y652035D02*
D03*
X1375920Y639035D02*
D03*
Y652035D02*
D03*
X1829304Y639035D02*
D03*
Y652035D02*
D03*
X1816096Y639035D02*
D03*
Y652035D02*
D03*
D47*
X1635760Y728091D02*
D03*
Y762381D02*
D03*
D48*
X1586230Y750410D02*
D03*
D59*
X1488306Y517796D02*
D03*
X1503306D02*
D03*
Y535796D02*
D03*
X1488306D02*
D03*
X1685678Y536146D02*
D03*
X1670678D02*
D03*
Y518146D02*
D03*
X1685678D02*
D03*
D65*
X1555122Y476596D02*
D03*
Y470096D02*
D03*
Y463596D02*
D03*
Y457096D02*
D03*
Y450596D02*
D03*
Y444096D02*
D03*
Y437596D02*
D03*
X1611122D02*
D03*
Y444096D02*
D03*
Y450596D02*
D03*
Y457096D02*
D03*
Y463596D02*
D03*
Y470096D02*
D03*
Y476596D02*
D03*
D78*
X1357884Y735330D02*
D03*
X1383284D02*
D03*
X1510284Y760730D02*
D03*
X1484884D02*
D03*
X1459484Y760730D02*
D03*
X1510284Y735330D02*
D03*
X1484884D02*
D03*
X1459484D02*
D03*
X1281684Y760730D02*
D03*
X1307084Y735330D02*
D03*
X1307084Y760730D02*
D03*
X1332484Y735330D02*
D03*
Y760730D02*
D03*
X1357884D02*
D03*
X1408684Y735330D02*
D03*
X1383284Y760730D02*
D03*
X1408684D02*
D03*
X1434084Y735330D02*
D03*
Y760730D02*
D03*
D79*
X1281684Y735330D02*
D03*
M02*
