G04*
G04 #@! TF.GenerationSoftware,Altium Limited,Altium Designer,23.4.1 (23)*
G04*
G04 Layer_Color=32768*
%FSLAX44Y44*%
%MOMM*%
G71*
G04*
G04 #@! TF.SameCoordinates,D2C56FB1-3194-4FD5-B733-79DB95D4BDB6*
G04*
G04*
G04 #@! TF.FilePolarity,Positive*
G04*
G01*
G75*
%ADD11C,0.2000*%
%ADD84C,0.1000*%
%ADD92C,0.0500*%
D11*
X1837548Y359368D02*
Y384368D01*
Y359368D02*
X1881548D01*
Y384368D01*
X1837548D02*
X1881548D01*
X1239144Y489274D02*
X1247144D01*
X1239144Y472274D02*
Y489274D01*
Y472274D02*
X1247144D01*
Y489274D01*
X1531552Y364174D02*
Y388174D01*
X1505052D02*
X1531552D01*
X1505052Y364174D02*
Y388174D01*
Y364174D02*
X1531552D01*
X1275908Y654231D02*
X1283908D01*
Y670231D01*
X1275908D02*
X1283908D01*
X1275908Y654231D02*
Y670231D01*
X1291402Y653231D02*
X1299402D01*
Y670231D01*
X1291402D02*
X1299402D01*
X1291402Y653231D02*
Y670231D01*
X1488530Y544667D02*
X1499530D01*
Y572667D01*
X1488530D02*
X1499530D01*
X1488530Y544667D02*
Y572667D01*
X1878696Y359368D02*
Y384368D01*
Y359368D02*
X1922696D01*
Y384368D01*
X1878696D02*
X1922696D01*
X1397354Y540325D02*
Y565325D01*
Y540325D02*
X1441354D01*
Y565325D01*
X1397354D02*
X1441354D01*
X1540930Y564866D02*
Y592866D01*
X1529930Y564866D02*
X1540930D01*
X1529930D02*
Y592866D01*
X1540930D01*
X1528118Y551024D02*
Y595024D01*
X1503118Y551024D02*
X1528118D01*
X1503118D02*
Y595024D01*
X1528118D01*
X1579030Y565500D02*
Y593500D01*
X1568030Y565500D02*
X1579030D01*
X1568030D02*
Y593500D01*
X1579030D01*
X1568250Y551024D02*
Y595024D01*
X1543250Y551024D02*
X1568250D01*
X1543250D02*
Y595024D01*
X1568250D01*
X1607874Y551024D02*
Y595024D01*
X1582874Y551024D02*
X1607874D01*
X1582874D02*
Y595024D01*
X1607874D01*
X1619670Y565500D02*
Y593500D01*
X1608670Y565500D02*
X1619670D01*
X1608670D02*
Y593500D01*
X1619670D01*
X1658532Y565500D02*
Y593500D01*
X1647532Y565500D02*
X1658532D01*
X1647532D02*
Y593500D01*
X1658532D01*
X1648006Y551024D02*
Y595024D01*
X1623006Y551024D02*
X1648006D01*
X1623006D02*
Y595024D01*
X1648006D01*
X1573500Y528232D02*
X1601500D01*
Y517232D02*
Y528232D01*
X1573500Y517232D02*
X1601500D01*
X1573500D02*
Y528232D01*
X1565754Y517198D02*
X1609754D01*
Y492198D02*
Y517198D01*
X1565754Y492198D02*
X1609754D01*
X1565754D02*
Y517198D01*
X1483806Y513546D02*
Y540046D01*
X1507806D01*
Y513546D02*
Y540046D01*
X1483806Y513546D02*
X1507806D01*
X1690178Y513896D02*
Y540396D01*
X1666178Y513896D02*
X1690178D01*
X1666178D02*
Y540396D01*
X1690178D01*
X1683716Y431774D02*
Y448774D01*
X1675716Y431774D02*
X1683716D01*
X1675716D02*
Y448774D01*
X1683716D01*
X1726080Y408634D02*
X1743080D01*
Y400634D02*
Y408634D01*
X1726080Y400634D02*
X1743080D01*
X1726080D02*
Y408634D01*
X1733628Y413486D02*
Y430486D01*
X1741628D01*
Y413486D02*
Y430486D01*
X1733628Y413486D02*
X1741628D01*
X1688542Y472274D02*
Y489274D01*
X1680542Y472274D02*
X1688542D01*
X1680542D02*
Y489274D01*
X1688542D01*
X1696830Y464774D02*
Y489274D01*
X1708830D01*
Y464774D02*
Y489274D01*
X1696830Y464774D02*
X1708830D01*
X1922882Y363710D02*
Y391710D01*
X1933882D01*
Y363710D02*
Y391710D01*
X1922882Y363710D02*
X1933882D01*
X1732104Y472274D02*
Y489274D01*
X1740104D01*
Y472274D02*
Y489274D01*
X1732104Y472274D02*
X1740104D01*
X1851162Y395868D02*
Y412868D01*
X1859162D01*
Y395868D02*
Y412868D01*
X1851162Y395868D02*
X1859162D01*
X1689834Y431242D02*
X1716334D01*
X1689834D02*
Y455242D01*
X1716334D01*
Y431242D02*
Y455242D01*
X1681592Y420436D02*
X1725592D01*
Y395436D02*
Y420436D01*
X1681592Y395436D02*
X1725592D01*
X1681592D02*
Y420436D01*
X1794606Y361614D02*
X1836606D01*
X1794606D02*
Y381614D01*
X1836606D01*
Y361614D02*
Y381614D01*
X1861380Y451468D02*
Y495468D01*
X1836380Y451468D02*
X1861380D01*
X1836380D02*
Y495468D01*
X1861380D01*
X1716610Y473274D02*
Y489274D01*
X1724610D01*
Y473274D02*
Y489274D01*
X1716610Y473274D02*
X1724610D01*
X1243334Y431774D02*
Y448774D01*
X1235334Y431774D02*
X1243334D01*
X1235334D02*
Y448774D01*
X1243334D01*
X1285698Y408634D02*
X1302698D01*
Y400634D02*
Y408634D01*
X1285698Y400634D02*
X1302698D01*
X1285698D02*
Y408634D01*
X1293246Y413486D02*
Y430486D01*
X1301246D01*
Y413486D02*
Y430486D01*
X1293246Y413486D02*
X1301246D01*
X1255432Y464774D02*
Y489274D01*
X1267432D01*
Y464774D02*
Y489274D01*
X1255432Y464774D02*
X1267432D01*
X1490882Y363710D02*
Y391710D01*
X1501882D01*
Y363710D02*
Y391710D01*
X1490882Y363710D02*
X1501882D01*
X1290706Y472274D02*
Y489274D01*
X1298706D01*
Y472274D02*
Y489274D01*
X1290706Y472274D02*
X1298706D01*
X1410780Y395868D02*
Y412868D01*
X1418780D01*
Y395868D02*
Y412868D01*
X1410780Y395868D02*
X1418780D01*
X1249452Y431242D02*
X1275952D01*
X1249452D02*
Y455242D01*
X1275952D01*
Y431242D02*
Y455242D01*
X1241210Y420436D02*
X1285210D01*
Y395436D02*
Y420436D01*
X1241210Y395436D02*
X1285210D01*
X1241210D02*
Y420436D01*
X1444156Y384114D02*
X1488156D01*
Y359114D02*
Y384114D01*
X1444156Y359114D02*
X1488156D01*
X1444156D02*
Y384114D01*
X1354224Y361614D02*
X1396224D01*
X1354224D02*
Y381614D01*
X1396224D01*
Y361614D02*
Y381614D01*
X1421760Y451468D02*
Y495468D01*
X1396760Y451468D02*
X1421760D01*
X1396760D02*
Y495468D01*
X1421760D01*
X1398182Y384368D02*
X1442182D01*
Y359368D02*
Y384368D01*
X1398182Y359368D02*
X1442182D01*
X1398182D02*
Y384368D01*
X1275212Y473274D02*
Y489274D01*
X1283212D01*
Y473274D02*
Y489274D01*
X1275212Y473274D02*
X1283212D01*
X1243522Y612731D02*
Y629731D01*
X1235522Y612731D02*
X1243522D01*
X1235522D02*
Y629731D01*
X1243522D01*
X1285886Y589591D02*
X1302886D01*
Y581591D02*
Y589591D01*
X1285886Y581591D02*
X1302886D01*
X1285886D02*
Y589591D01*
X1293434Y594443D02*
Y611443D01*
X1301434D01*
Y594443D02*
Y611443D01*
X1293434Y594443D02*
X1301434D01*
X1247840Y653231D02*
Y670231D01*
X1239840Y653231D02*
X1247840D01*
X1239840D02*
Y670231D01*
X1247840D01*
X1256128Y645731D02*
Y670231D01*
X1268128D01*
Y645731D02*
Y670231D01*
X1256128Y645731D02*
X1268128D01*
X1410968Y576825D02*
Y593825D01*
X1418968D01*
Y576825D02*
Y593825D01*
X1410968Y576825D02*
X1418968D01*
X1249640Y612199D02*
X1276140D01*
X1249640D02*
Y636199D01*
X1276140D01*
Y612199D02*
Y636199D01*
X1241398Y601393D02*
X1285398D01*
Y576393D02*
Y601393D01*
X1241398Y576393D02*
X1285398D01*
X1241398D02*
Y601393D01*
X1440280Y565325D02*
X1484280D01*
Y540325D02*
Y565325D01*
X1440280Y540325D02*
X1484280D01*
X1440280D02*
Y565325D01*
X1354412Y542571D02*
X1396412D01*
X1354412D02*
Y562571D01*
X1396412D01*
Y542571D02*
Y562571D01*
X1422710Y632425D02*
Y676425D01*
X1397710Y632425D02*
X1422710D01*
X1397710D02*
Y676425D01*
X1422710D01*
X1546122Y485096D02*
X1620122D01*
X1620122Y429096D02*
X1620122Y485096D01*
X1546122Y429096D02*
X1620122D01*
X1546122D02*
X1546122Y485096D01*
X1876646Y562277D02*
X1920646D01*
Y537277D02*
Y562277D01*
X1876646Y537277D02*
X1920646D01*
X1876646D02*
Y562277D01*
X1683698Y612731D02*
Y629731D01*
X1675698Y612731D02*
X1683698D01*
X1675698D02*
Y629731D01*
X1683698D01*
X1726062Y589591D02*
X1743062D01*
Y581591D02*
Y589591D01*
X1726062Y581591D02*
X1743062D01*
X1726062D02*
Y589591D01*
X1733610Y594443D02*
Y611443D01*
X1741610D01*
Y594443D02*
Y611443D01*
X1733610Y594443D02*
X1741610D01*
X1687762Y653231D02*
Y670231D01*
X1679762Y653231D02*
X1687762D01*
X1679762D02*
Y670231D01*
X1687762D01*
X1696050Y645731D02*
Y670231D01*
X1708050D01*
Y645731D02*
Y670231D01*
X1696050Y645731D02*
X1708050D01*
X1923372Y541619D02*
Y569619D01*
X1934372D01*
Y541619D02*
Y569619D01*
X1923372Y541619D02*
X1934372D01*
X1731324Y653231D02*
Y670231D01*
X1739324D01*
Y653231D02*
Y670231D01*
X1731324Y653231D02*
X1739324D01*
X1851144Y576825D02*
Y593825D01*
X1859144D01*
Y576825D02*
Y593825D01*
X1851144Y576825D02*
X1859144D01*
X1689816Y612199D02*
X1716316D01*
X1689816D02*
Y636199D01*
X1716316D01*
Y612199D02*
Y636199D01*
X1681574Y601393D02*
X1725574D01*
Y576393D02*
Y601393D01*
X1681574Y576393D02*
X1725574D01*
X1681574D02*
Y601393D01*
X1786968Y542571D02*
X1828968D01*
X1786968D02*
Y562571D01*
X1828968D01*
Y542571D02*
Y562571D01*
X1862124Y632425D02*
Y676425D01*
X1837124Y632425D02*
X1862124D01*
X1837124D02*
Y676425D01*
X1862124D01*
X1831180Y562277D02*
X1875180D01*
Y537277D02*
Y562277D01*
X1831180Y537277D02*
X1875180D01*
X1831180D02*
Y562277D01*
X1715830Y654231D02*
Y670231D01*
X1723830D01*
Y654231D02*
Y670231D01*
X1715830Y654231D02*
X1723830D01*
X1497672Y420848D02*
Y448848D01*
X1508672D01*
Y420848D02*
Y448848D01*
X1497672Y420848D02*
X1508672D01*
Y465044D02*
Y493044D01*
X1497672Y465044D02*
X1508672D01*
X1497672D02*
Y493044D01*
X1508672D01*
X1515564Y507140D02*
X1540564D01*
X1515564Y463140D02*
Y507140D01*
Y463140D02*
X1540564D01*
Y507140D01*
X1515564Y406752D02*
X1540564D01*
Y450752D01*
X1515564D02*
X1540564D01*
X1515564Y406752D02*
Y450752D01*
X1670262Y364174D02*
Y388174D01*
Y364174D02*
X1696762D01*
Y388174D01*
X1670262D02*
X1696762D01*
X1624784Y406752D02*
X1649784D01*
Y450752D01*
X1624784D02*
X1649784D01*
X1624784Y406752D02*
Y450752D01*
X1654644Y420848D02*
X1665644D01*
Y448848D01*
X1654644D02*
X1665644D01*
X1654644Y420848D02*
Y448848D01*
X1625038Y507140D02*
X1650038D01*
X1625038Y463140D02*
Y507140D01*
Y463140D02*
X1650038D01*
Y507140D01*
X1653628Y493298D02*
X1664628D01*
X1653628Y465298D02*
Y493298D01*
Y465298D02*
X1664628D01*
Y493298D01*
D84*
X1771744Y453416D02*
X1781744D01*
X1776744Y448416D02*
Y458416D01*
X1350586Y483400D02*
Y493000D01*
X1345786Y488200D02*
X1355386D01*
X1530176Y665480D02*
X1540176D01*
X1535176Y660480D02*
Y670480D01*
X1725422Y748110D02*
Y758110D01*
X1720422Y753110D02*
X1730422D01*
X1869280Y472960D02*
X1879280D01*
X1874280Y467960D02*
Y477960D01*
X1843038Y427828D02*
Y437828D01*
X1838038Y432828D02*
X1848038D01*
X1793272Y412588D02*
Y422588D01*
X1788272Y417588D02*
X1798272D01*
X1803240Y391426D02*
X1813240D01*
X1808240Y386426D02*
Y396426D01*
X1786168Y477786D02*
X1795768D01*
X1790968Y472986D02*
Y482586D01*
X1828814Y459778D02*
Y469378D01*
X1824014Y464578D02*
X1833614D01*
X1786168Y488200D02*
X1795768D01*
X1790968Y483400D02*
Y493000D01*
X1816114Y459778D02*
Y469378D01*
X1811314Y464578D02*
X1820914D01*
X1336362Y448416D02*
Y458416D01*
X1331362Y453416D02*
X1341362D01*
X1429660Y472960D02*
X1439660D01*
X1434660Y467960D02*
Y477960D01*
X1402656Y427828D02*
Y437828D01*
X1397656Y432828D02*
X1407656D01*
X1352890Y412588D02*
Y422588D01*
X1347890Y417588D02*
X1357890D01*
X1362858Y391426D02*
X1372858D01*
X1367858Y386426D02*
Y396426D01*
X1345786Y477786D02*
X1355386Y477786D01*
X1350586Y472986D02*
Y482586D01*
X1389194Y459778D02*
Y469378D01*
X1384394Y464578D02*
X1393994D01*
X1375732Y459778D02*
Y469378D01*
X1370932Y464578D02*
X1380532D01*
X1336550Y629373D02*
Y639373D01*
X1331550Y634373D02*
X1341550D01*
X1431118Y653917D02*
X1441118D01*
X1436118Y648917D02*
Y658917D01*
X1402844Y608785D02*
Y618785D01*
X1397844Y613785D02*
X1407844D01*
X1353078Y593545D02*
Y603545D01*
X1348078Y598545D02*
X1358078D01*
X1363046Y572383D02*
X1373046D01*
X1368046Y567383D02*
Y577383D01*
X1345974Y658743D02*
X1355574D01*
X1350774Y653943D02*
Y663543D01*
X1389636Y640735D02*
Y650335D01*
X1384836Y645535D02*
X1394436D01*
X1345974Y669157D02*
X1355574D01*
X1350774Y664357D02*
Y673957D01*
X1375920Y640735D02*
Y650335D01*
X1371120Y645535D02*
X1380720D01*
X1776726Y629373D02*
Y639373D01*
X1771726Y634373D02*
X1781726D01*
X1869770Y653917D02*
X1879770D01*
X1874770Y648917D02*
Y658917D01*
X1843020Y608785D02*
Y618785D01*
X1838020Y613785D02*
X1848020D01*
X1793254Y593545D02*
Y603545D01*
X1788254Y598545D02*
X1798254D01*
X1803222Y572383D02*
X1813222D01*
X1808222Y567383D02*
Y577383D01*
X1786150Y658743D02*
X1795750D01*
X1790950Y653943D02*
Y663543D01*
X1829304Y640735D02*
Y650335D01*
X1824504Y645535D02*
X1834104D01*
X1786150Y669157D02*
X1795750D01*
X1790950Y664357D02*
Y673957D01*
X1816096Y640735D02*
Y650335D01*
X1811296Y645535D02*
X1820896D01*
X1584960Y679048D02*
Y689048D01*
X1579960Y684048D02*
X1589960D01*
D92*
X1740744Y432916D02*
Y473916D01*
X1812744Y432916D02*
Y473916D01*
X1740744D02*
X1812744D01*
X1740744Y432916D02*
X1812744D01*
X1339086Y482200D02*
X1362086D01*
X1339086Y494200D02*
X1362086D01*
Y482200D02*
Y494200D01*
X1339086Y482200D02*
Y494200D01*
X1546176Y642980D02*
Y687980D01*
X1524176Y642980D02*
Y687980D01*
X1546176D01*
X1524176Y642980D02*
X1546176D01*
X1690922Y714110D02*
X1759922D01*
X1690922Y792110D02*
X1759922D01*
X1690922Y714110D02*
Y792110D01*
X1759922Y714110D02*
Y792110D01*
X1863280Y450460D02*
Y495460D01*
X1885280Y450460D02*
Y495460D01*
X1863280Y450460D02*
X1885280D01*
X1863280Y495460D02*
X1885280D01*
X1826038Y448828D02*
X1860038D01*
X1826038Y416828D02*
X1860038D01*
X1826038D02*
Y448828D01*
X1860038Y416828D02*
Y448828D01*
X1865846Y381738D02*
Y440738D01*
Y381738D02*
X1922846D01*
Y440738D01*
X1865846D02*
X1922846D01*
X1889346Y411238D02*
X1899346D01*
X1894346Y406238D02*
Y416238D01*
X1767672Y402588D02*
X1818872D01*
X1767672Y402588D02*
Y432588D01*
X1767672D02*
X1818872D01*
Y402588D02*
Y432588D01*
X1794740Y382926D02*
Y399926D01*
X1821740Y382926D02*
Y399926D01*
X1794740D02*
X1821740D01*
X1794740Y382926D02*
X1821740D01*
X1779468Y471786D02*
Y483786D01*
X1802468Y471786D02*
Y483786D01*
X1779468D02*
X1802468D01*
X1779468Y471786D02*
X1802468D01*
X1822814Y453078D02*
X1834814D01*
X1822814Y476078D02*
X1834814D01*
X1822814Y453078D02*
Y476078D01*
X1834814Y453078D02*
Y476078D01*
X1779468Y482200D02*
Y494200D01*
X1802468Y482200D02*
Y494200D01*
X1779468D02*
X1802468D01*
X1779468Y482200D02*
X1802468D01*
X1810114Y453078D02*
X1822114D01*
X1810114Y476078D02*
X1822114D01*
X1810114Y453078D02*
Y476078D01*
X1822114Y453078D02*
Y476078D01*
X1300362Y432916D02*
X1372362D01*
X1300362Y473916D02*
X1372362D01*
Y432916D02*
Y473916D01*
X1300362Y432916D02*
Y473916D01*
X1423660Y450460D02*
Y495460D01*
X1445660Y450460D02*
Y495460D01*
X1423660Y450460D02*
X1445660D01*
X1423660Y495460D02*
X1445660D01*
X1385656Y448828D02*
X1419656D01*
X1385656Y416828D02*
X1419656D01*
X1385656D02*
Y448828D01*
X1419656Y416828D02*
Y448828D01*
X1425464Y381738D02*
Y440738D01*
Y381738D02*
X1482464D01*
Y440738D01*
X1425464D02*
X1482464D01*
X1448964Y411238D02*
X1458964D01*
X1453964Y406238D02*
Y416238D01*
X1327290Y402588D02*
X1378490D01*
X1327290Y402588D02*
Y432588D01*
X1327290D02*
X1378490D01*
Y402588D02*
Y432588D01*
X1354358Y382926D02*
Y399926D01*
X1381358Y382926D02*
Y399926D01*
X1354358D02*
X1381358D01*
X1354358Y382926D02*
X1381358D01*
X1339086Y483786D02*
X1339086Y471786D01*
X1362086D02*
X1362086Y483786D01*
X1339086D02*
X1362086D01*
X1339086Y471786D02*
X1362086D01*
X1383194Y453078D02*
X1395194D01*
X1383194Y476078D02*
X1395194D01*
X1383194Y453078D02*
Y476078D01*
X1395194Y453078D02*
Y476078D01*
X1369732Y453078D02*
X1381732D01*
X1369732Y476078D02*
X1381732D01*
X1369732Y453078D02*
Y476078D01*
X1381732Y453078D02*
Y476078D01*
X1300550Y613873D02*
X1372550D01*
X1300550Y654873D02*
X1372550D01*
Y613873D02*
Y654873D01*
X1300550Y613873D02*
Y654873D01*
X1425118Y631417D02*
Y676417D01*
X1447118Y631417D02*
Y676417D01*
X1425118Y631417D02*
X1447118D01*
X1425118Y676417D02*
X1447118D01*
X1385844Y629785D02*
X1419844D01*
X1385844Y597785D02*
X1419844D01*
X1385844D02*
Y629785D01*
X1419844Y597785D02*
Y629785D01*
X1425652Y562695D02*
Y621695D01*
Y562695D02*
X1482652D01*
Y621695D01*
X1425652D02*
X1482652D01*
X1449152Y592195D02*
X1459152D01*
X1454152Y587195D02*
Y597195D01*
X1327478Y583545D02*
X1378678D01*
X1327478Y583545D02*
Y613545D01*
X1327478D02*
X1378678D01*
Y583545D02*
Y613545D01*
X1354546Y563883D02*
Y580883D01*
X1381546Y563883D02*
Y580883D01*
X1354546D02*
X1381546D01*
X1354546Y563883D02*
X1381546D01*
X1339274Y652743D02*
Y664743D01*
X1362274Y652743D02*
Y664743D01*
X1339274D02*
X1362274D01*
X1339274Y652743D02*
X1362274D01*
X1383636Y634035D02*
X1395636D01*
X1383636Y657035D02*
X1395636D01*
X1383636Y634035D02*
Y657035D01*
X1395636Y634035D02*
Y657035D01*
X1339274Y663157D02*
Y675157D01*
X1362274Y663157D02*
Y675157D01*
X1339274D02*
X1362274D01*
X1339274Y663157D02*
X1362274D01*
X1369920Y634035D02*
X1381920D01*
X1369920Y657035D02*
X1381920D01*
X1369920Y634035D02*
Y657035D01*
X1381920Y634035D02*
Y657035D01*
X1740726Y613873D02*
X1812726D01*
X1740726Y654873D02*
X1812726D01*
Y613873D02*
Y654873D01*
X1740726Y613873D02*
Y654873D01*
X1863770Y631417D02*
Y676417D01*
X1885770Y631417D02*
Y676417D01*
X1863770Y631417D02*
X1885770D01*
X1863770Y676417D02*
X1885770D01*
X1826020Y629785D02*
X1860020Y629785D01*
X1826020Y597785D02*
X1860020Y597785D01*
X1826020Y597785D02*
Y629785D01*
X1860020Y597785D02*
Y629785D01*
X1865828Y562695D02*
Y621695D01*
Y562695D02*
X1922828D01*
Y621695D01*
X1865828D02*
X1922828D01*
X1889328Y592195D02*
X1899328D01*
X1894328Y587195D02*
Y597195D01*
X1767654Y583545D02*
X1818854D01*
X1767654Y583545D02*
X1767654Y613545D01*
X1767654D02*
X1818854D01*
Y583545D02*
Y613545D01*
X1794722Y563883D02*
Y580883D01*
X1821722Y563883D02*
Y580883D01*
X1794722D02*
X1821722D01*
X1794722Y563883D02*
X1821722D01*
X1779450Y652743D02*
Y664743D01*
X1802450D02*
X1802450Y652743D01*
X1779450Y664743D02*
X1802450D01*
X1779450Y652743D02*
X1802450D01*
X1823304Y634035D02*
X1835304D01*
X1823304Y657035D02*
X1835304D01*
X1823304Y634035D02*
Y657035D01*
X1835304Y634035D02*
Y657035D01*
X1779450Y663157D02*
Y675157D01*
X1802450D02*
X1802450Y663157D01*
X1779450Y675157D02*
X1802450D01*
X1779450Y663157D02*
X1802450D01*
X1810096Y634035D02*
X1822096D01*
X1810096Y657035D02*
X1822096D01*
X1810096Y634035D02*
Y657035D01*
X1822096Y634035D02*
Y657035D01*
X1562130Y660150D02*
X1597630D01*
X1562130Y597150D02*
Y660150D01*
Y597150D02*
X1597630D01*
Y660150D01*
X1395984Y743030D02*
Y753030D01*
X1390984Y748030D02*
X1400984D01*
X1227684Y796530D02*
X1564284D01*
X1564284Y701030D02*
X1564284Y796530D01*
X1227684Y701030D02*
X1564284D01*
X1227684Y796530D02*
X1227684Y701030D01*
X1573960Y661548D02*
X1595960D01*
X1573960Y706548D02*
X1595960D01*
X1573960Y661548D02*
Y706548D01*
X1595960Y661548D02*
Y706548D01*
M02*
