G04*
G04 #@! TF.GenerationSoftware,Altium Limited,Altium Designer,23.4.1 (23)*
G04*
G04 Layer_Color=32768*
%FSLAX44Y44*%
%MOMM*%
G71*
G04*
G04 #@! TF.SameCoordinates,D2C56FB1-3194-4FD5-B733-79DB95D4BDB6*
G04*
G04*
G04 #@! TF.FilePolarity,Positive*
G04*
G01*
G75*
%ADD84C,0.1000*%
%ADD87R,4.5000X0.7250*%
D84*
X1897346Y427238D02*
G03*
X1897346Y427238I-3000J0D01*
G01*
X1456964D02*
G03*
X1456964Y427238I-3000J0D01*
G01*
X1457152Y608195D02*
G03*
X1457152Y608195I-3000J0D01*
G01*
X1897328D02*
G03*
X1897328Y608195I-3000J0D01*
G01*
X1870346Y387238D02*
Y435238D01*
Y387238D02*
X1918346D01*
Y435238D01*
X1870346D02*
X1918346D01*
X1429964Y387238D02*
Y435238D01*
Y387238D02*
X1477964D01*
Y435238D01*
X1429964D02*
X1477964D01*
X1430152Y568195D02*
Y616195D01*
Y568195D02*
X1478152D01*
Y616195D01*
X1430152D02*
X1478152D01*
X1870328Y568195D02*
Y616195D01*
Y568195D02*
X1918328D01*
Y616195D01*
X1870328D02*
X1918328D01*
X1230684Y703780D02*
Y792280D01*
Y703780D02*
X1561284D01*
Y792280D01*
X1230684D02*
X1561284D01*
D87*
X1395984Y707405D02*
D03*
M02*
